<?xml version="1.0" standalone="no"?>
 <!DOCTYPE svg PUBLIC "-//W3C//DTD SVG 1.1//EN" 
 "http://www.w3.org/Graphics/SVG/1.1/DTD/svg11.dtd"> 
<svg xmlns="http://www.w3.org/2000/svg" version="1.1" 
    width="7.81304cm" height="6.25094cm" viewBox="0 0 30760 24610 ">
<title>SVG Picture created as Aquapioneers Board-F.Cu.svg date 2018/08/27 10:53:59 </title>
  <desc>Picture generated by PCBNEW </desc>
<g style="fill:#000000; fill-opacity:1;stroke:#000000; stroke-opacity:1;
stroke-linecap:round; stroke-linejoin:round; "
 transform="translate(0 0) scale(1 1)">
</g>
<g style="fill:#000000; fill-opacity:0.0; 
stroke:#000000; stroke-width:-0.000393701; stroke-opacity:1; 
stroke-linecap:round; stroke-linejoin:round;">
</g>
<g style="fill:#000000; fill-opacity:0.0; 
stroke:#000000; stroke-width:39.3701; stroke-opacity:1; 
stroke-linecap:round; stroke-linejoin:round;">
<path d="M14638 22269
L2738 22269
" />
<path d="M14688 19
L2788 19
" />
<path d="M15988 21019
L15988 1319
" />
<path d="M1488 1319
L1488 20919
" />
<path d="M2788.66 19.6854 A1300 1300 0.0 0 0 1488.66 1319.69 " />
<path d="M15988.7 1319.69 A1300 1300 0.0 0 0 14688.7 19.6854 " />
<path d="M14638.7 22269.7 A1300.96 1300.96 0.0 0 0 15988.7 21019.7 " />
<path d="M1488.66 20919.7 A1300.96 1300.96 0.0 0 0 2738.66 22269.7 " />
</g>
<g style="fill:#000000; fill-opacity:0.0; 
stroke:#000000; stroke-width:0; stroke-opacity:1; 
stroke-linecap:round; stroke-linejoin:round;">
</g>
<g style="fill:#000000; fill-opacity:1.0; 
stroke:#000000; stroke-width:0; stroke-opacity:1; 
stroke-linecap:round; stroke-linejoin:round;">
<polyline style="fill-rule:evenodd;"
points="6993,1032
7583,1032
7583,2607
6993,2607
6993,1032
" /> 
<polyline style="fill-rule:evenodd;"
points="10012,3132
10327,3132
10327,4707
10012,4707
10012,3132
" /> 
<polyline style="fill-rule:evenodd;"
points="9224,3132
9539,3132
9539,4707
9224,4707
9224,3132
" /> 
<polyline style="fill-rule:evenodd;"
points="8437,3132
8752,3132
8752,4707
8437,4707
8437,3132
" /> 
<polyline style="fill-rule:evenodd;"
points="7650,3132
7965,3132
7965,4707
7650,4707
7650,3132
" /> 
<polyline style="fill-rule:evenodd;"
points="10493,1032
11083,1032
11083,2607
10493,2607
10493,1032
" /> 
<polyline style="fill-rule:evenodd;"
points="7483,21307
6893,21307
6893,19732
7483,19732
7483,21307
" /> 
<polyline style="fill-rule:evenodd;"
points="4465,19207
4150,19207
4150,17632
4465,17632
4465,19207
" /> 
<polyline style="fill-rule:evenodd;"
points="5252,19207
4937,19207
4937,17632
5252,17632
5252,19207
" /> 
<polyline style="fill-rule:evenodd;"
points="6039,19207
5724,19207
5724,17632
6039,17632
6039,19207
" /> 
<polyline style="fill-rule:evenodd;"
points="6827,19207
6512,19207
6512,17632
6827,17632
6827,19207
" /> 
<polyline style="fill-rule:evenodd;"
points="3983,21307
3393,21307
3393,19732
3983,19732
3983,21307
" /> 
<polyline style="fill-rule:evenodd;"
points="14876,4924
14876,5514
13301,5514
13301,4924
14876,4924
" /> 
<polyline style="fill-rule:evenodd;"
points="12776,7943
12776,8258
11201,8258
11201,7943
12776,7943
" /> 
<polyline style="fill-rule:evenodd;"
points="12776,7155
12776,7470
11201,7470
11201,7155
12776,7155
" /> 
<polyline style="fill-rule:evenodd;"
points="12776,6368
12776,6683
11201,6683
11201,6368
12776,6368
" /> 
<polyline style="fill-rule:evenodd;"
points="12776,5581
12776,5896
11201,5896
11201,5581
12776,5581
" /> 
<polyline style="fill-rule:evenodd;"
points="14876,8424
14876,9014
13301,9014
13301,8424
14876,8424
" /> 
<polyline style="fill-rule:evenodd;"
points="14876,11424
14876,12014
13301,12014
13301,11424
14876,11424
" /> 
<polyline style="fill-rule:evenodd;"
points="12776,14443
12776,14758
11201,14758
11201,14443
12776,14443
" /> 
<polyline style="fill-rule:evenodd;"
points="12776,13655
12776,13970
11201,13970
11201,13655
12776,13655
" /> 
<polyline style="fill-rule:evenodd;"
points="12776,12868
12776,13183
11201,13183
11201,12868
12776,12868
" /> 
<polyline style="fill-rule:evenodd;"
points="12776,12081
12776,12396
11201,12396
11201,12081
12776,12081
" /> 
<polyline style="fill-rule:evenodd;"
points="14876,14924
14876,15514
13301,15514
13301,14924
14876,14924
" /> 
<polyline style="fill-rule:evenodd;"
points="13983,21307
13393,21307
13393,19732
13983,19732
13983,21307
" /> 
<polyline style="fill-rule:evenodd;"
points="10965,19207
10650,19207
10650,17632
10965,17632
10965,19207
" /> 
<polyline style="fill-rule:evenodd;"
points="11752,19207
11437,19207
11437,17632
11752,17632
11752,19207
" /> 
<polyline style="fill-rule:evenodd;"
points="12539,19207
12224,19207
12224,17632
12539,17632
12539,19207
" /> 
<polyline style="fill-rule:evenodd;"
points="13327,19207
13012,19207
13012,17632
13327,17632
13327,19207
" /> 
<polyline style="fill-rule:evenodd;"
points="10483,21307
9893,21307
9893,19732
10483,19732
10483,21307
" /> 
<polyline style="fill-rule:evenodd;"
points="3073,10035
3073,10704
2404,10704
2404,10035
3073,10035
" /> 
</g>
<g style="fill:#000000; fill-opacity:1.0; 
stroke:#000000; stroke-width:669.291; stroke-opacity:1; 
stroke-linecap:round; stroke-linejoin:round;">
</g>
<g style="fill:#000000; fill-opacity:0.0; 
stroke:#000000; stroke-width:669.291; stroke-opacity:1; 
stroke-linecap:round; stroke-linejoin:round;">
<path d="M3738 10369
L3738 10369
" />
<path d="M2738 9369
L2738 9369
" />
<path d="M3738 9369
L3738 9369
" />
<path d="M2738 8369
L2738 8369
" />
<path d="M3738 8369
L3738 8369
" />
<path d="M2738 7369
L2738 7369
" />
<path d="M3738 7369
L3738 7369
" />
<path d="M2738 6369
L2738 6369
" />
<path d="M3738 6369
L3738 6369
" />
<path d="M2738 5369
L2738 5369
" />
<path d="M3738 5369
L3738 5369
" />
<path d="M2738 4369
L2738 4369
" />
<path d="M3738 4369
L3738 4369
" />
<path d="M2738 3369
L2738 3369
" />
<path d="M3738 3369
L3738 3369
" />
</g>
<g style="fill:#000000; fill-opacity:1.0; 
stroke:#000000; stroke-width:0; stroke-opacity:1; 
stroke-linecap:round; stroke-linejoin:round;">
<circle cx="2988.66" cy="15419.7" r="334.646" /> 
</g>
<g style="fill:#000000; fill-opacity:1.0; 
stroke:#000000; stroke-width:39.3701; stroke-opacity:1; 
stroke-linecap:round; stroke-linejoin:round;">
</g>
<g style="fill:#000000; fill-opacity:1.0; 
stroke:#000000; stroke-width:0; stroke-opacity:1; 
stroke-linecap:round; stroke-linejoin:round;">
<circle cx="13088.7" cy="17219.7" r="334.646" /> 
</g>
<g style="fill:#000000; fill-opacity:1.0; 
stroke:#000000; stroke-width:39.3701; stroke-opacity:1; 
stroke-linecap:round; stroke-linejoin:round;">
</g>
<g style="fill:#000000; fill-opacity:1.0; 
stroke:#000000; stroke-width:0; stroke-opacity:1; 
stroke-linecap:round; stroke-linejoin:round;">
<circle cx="7288.66" cy="16619.7" r="334.646" /> 
</g>
<g style="fill:#000000; fill-opacity:1.0; 
stroke:#000000; stroke-width:39.3701; stroke-opacity:1; 
stroke-linecap:round; stroke-linejoin:round;">
</g>
<g style="fill:#000000; fill-opacity:1.0; 
stroke:#000000; stroke-width:0; stroke-opacity:1; 
stroke-linecap:round; stroke-linejoin:round;">
<circle cx="5988.66" cy="8919.69" r="334.646" /> 
</g>
<g style="fill:#000000; fill-opacity:1.0; 
stroke:#000000; stroke-width:39.3701; stroke-opacity:1; 
stroke-linecap:round; stroke-linejoin:round;">
</g>
<g style="fill:#000000; fill-opacity:1.0; 
stroke:#000000; stroke-width:0; stroke-opacity:1; 
stroke-linecap:round; stroke-linejoin:round;">
<circle cx="6988.66" cy="14919.7" r="334.646" /> 
</g>
<g style="fill:#000000; fill-opacity:1.0; 
stroke:#000000; stroke-width:39.3701; stroke-opacity:1; 
stroke-linecap:round; stroke-linejoin:round;">
</g>
<g style="fill:#000000; fill-opacity:1.0; 
stroke:#000000; stroke-width:0; stroke-opacity:1; 
stroke-linecap:round; stroke-linejoin:round;">
<circle cx="12488.7" cy="16419.7" r="334.646" /> 
</g>
<g style="fill:#000000; fill-opacity:1.0; 
stroke:#000000; stroke-width:39.3701; stroke-opacity:1; 
stroke-linecap:round; stroke-linejoin:round;">
</g>
<g style="fill:#000000; fill-opacity:1.0; 
stroke:#000000; stroke-width:0; stroke-opacity:1; 
stroke-linecap:round; stroke-linejoin:round;">
<circle cx="9488.66" cy="16419.7" r="334.646" /> 
</g>
<g style="fill:#000000; fill-opacity:1.0; 
stroke:#000000; stroke-width:39.3701; stroke-opacity:1; 
stroke-linecap:round; stroke-linejoin:round;">
</g>
<g style="fill:#000000; fill-opacity:1.0; 
stroke:#000000; stroke-width:0; stroke-opacity:1; 
stroke-linecap:round; stroke-linejoin:round;">
<circle cx="7488.66" cy="7919.69" r="334.646" /> 
</g>
<g style="fill:#000000; fill-opacity:1.0; 
stroke:#000000; stroke-width:39.3701; stroke-opacity:1; 
stroke-linecap:round; stroke-linejoin:round;">
</g>
<g style="fill:#000000; fill-opacity:1.0; 
stroke:#000000; stroke-width:0; stroke-opacity:1; 
stroke-linecap:round; stroke-linejoin:round;">
<circle cx="8988.66" cy="11919.7" r="334.646" /> 
</g>
<g style="fill:#000000; fill-opacity:1.0; 
stroke:#000000; stroke-width:39.3701; stroke-opacity:1; 
stroke-linecap:round; stroke-linejoin:round;">
</g>
<g style="fill:#000000; fill-opacity:1.0; 
stroke:#000000; stroke-width:0; stroke-opacity:1; 
stroke-linecap:round; stroke-linejoin:round;">
<circle cx="7488.66" cy="6419.69" r="334.646" /> 
</g>
<g style="fill:#000000; fill-opacity:1.0; 
stroke:#000000; stroke-width:39.3701; stroke-opacity:1; 
stroke-linecap:round; stroke-linejoin:round;">
</g>
<g style="fill:#000000; fill-opacity:1.0; 
stroke:#000000; stroke-width:0; stroke-opacity:1; 
stroke-linecap:round; stroke-linejoin:round;">
<circle cx="10488.7" cy="5919.69" r="334.646" /> 
</g>
<g style="fill:#000000; fill-opacity:1.0; 
stroke:#000000; stroke-width:39.3701; stroke-opacity:1; 
stroke-linecap:round; stroke-linejoin:round;">
</g>
<g style="fill:#000000; fill-opacity:1.0; 
stroke:#000000; stroke-width:0; stroke-opacity:1; 
stroke-linecap:round; stroke-linejoin:round;">
<circle cx="1988.66" cy="1919.69" r="334.646" /> 
</g>
<g style="fill:#000000; fill-opacity:1.0; 
stroke:#000000; stroke-width:39.3701; stroke-opacity:1; 
stroke-linecap:round; stroke-linejoin:round;">
</g>
<g style="fill:#000000; fill-opacity:1.0; 
stroke:#000000; stroke-width:0; stroke-opacity:1; 
stroke-linecap:round; stroke-linejoin:round;">
<circle cx="4988.66" cy="1919.69" r="334.646" /> 
</g>
<g style="fill:#000000; fill-opacity:1.0; 
stroke:#000000; stroke-width:39.3701; stroke-opacity:1; 
stroke-linecap:round; stroke-linejoin:round;">
</g>
<g style="fill:#000000; fill-opacity:1.0; 
stroke:#000000; stroke-width:196.85; stroke-opacity:1; 
stroke-linecap:round; stroke-linejoin:round;">
</g>
<g style="fill:#000000; fill-opacity:0.0; 
stroke:#000000; stroke-width:196.85; stroke-opacity:1; 
stroke-linecap:round; stroke-linejoin:round;">
<path d="M8288 13813
L8382 13813
" />
<path d="M8382 13813
L11594 17025
" />
<path d="M8988 14419
L8488 13919
" />
<path d="M8988 14419
L8488 13919
" />
<path d="M11594 17025
L10988 16419
" />
<path d="M10488 15919
L9488 14919
" />
<path d="M9488 14919
L8988 14419
" />
<path d="M10988 16419
L10488 15919
" />
<path d="M11594 18419
L11594 17025
" />
<path d="M9594 7313
L9488 7419
" />
<path d="M9382 3919
L9382 7525
" />
<path d="M9382 7525
L9488 7419
" />
<path d="M5988 12919
L5988 10919
" />
<path d="M5988 10919
L9488 7419
" />
<path d="M9594 7313
L11988 7313
" />
</g>
<g style="fill:#000000; fill-opacity:0.0; 
stroke:#000000; stroke-width:98.4252; stroke-opacity:1; 
stroke-linecap:round; stroke-linejoin:round;">
<path d="M10588 13813
L10588 13819
" />
<path d="M10588 13819
L10588 13813
" />
</g>
<g style="fill:#000000; fill-opacity:0.0; 
stroke:#000000; stroke-width:196.85; stroke-opacity:1; 
stroke-linecap:round; stroke-linejoin:round;">
<path d="M5094 18419
L5094 14313
" />
<path d="M5094 14313
L6238 13169
" />
<path d="M2738 10369
L3438 10369
" />
<path d="M3438 10369
L5988 12919
" />
<path d="M5988 12919
L6238 13169
" />
<path d="M6238 13169
L6882 13813
" />
<path d="M6882 13813
L8288 13813
" />
<path d="M8288 13813
L10588 13813
" />
<path d="M10588 13813
L11988 13813
" />
<path d="M1988 6919
L2538 6369
" />
<path d="M1988 14419
L1988 6919
" />
<path d="M2988 15419
L1988 14419
" />
<path d="M2538 6369
L2738 6369
" />
<path d="M13088 17219
L13169 17300
" />
<path d="M13169 17300
L13169 18419
" />
<path d="M7288 16619
L6688 17219
" />
<path d="M6669 18419
L6669 17238
" />
</g>
<g style="fill:#000000; fill-opacity:0.0; 
stroke:#000000; stroke-width:98.4252; stroke-opacity:1; 
stroke-linecap:round; stroke-linejoin:round;">
<path d="M6669 17238
L6688 17219
" />
</g>
<g style="fill:#000000; fill-opacity:0.0; 
stroke:#000000; stroke-width:196.85; stroke-opacity:1; 
stroke-linecap:round; stroke-linejoin:round;">
<path d="M4988 6919
L5988 7919
" />
<path d="M5988 7919
L5988 8919
" />
<path d="M5882 16019
L5888 16019
" />
<path d="M4438 6369
L3738 6369
" />
<path d="M4988 6919
L4438 6369
" />
<path d="M5888 16019
L6988 14919
" />
<path d="M5882 16019
L8888 16019
" />
<path d="M12382 16525
L12382 18419
" />
<path d="M12488 16419
L12382 16525
" />
<path d="M9288 16419
L9488 16419
" />
<path d="M8888 16019
L9288 16419
" />
<path d="M5882 16625
L5882 16019
" />
<path d="M5882 18419
L5882 16625
" />
<path d="M7488 7919
L6988 7919
" />
<path d="M6988 7919
L4438 5369
" />
<path d="M4438 5369
L3738 5369
" />
<path d="M8988 11919
L9307 12238
" />
<path d="M9307 12238
L11988 12238
" />
<path d="M6988 7919
L4438 5369
" />
<path d="M5988 5919
L6488 6419
" />
<path d="M6488 6419
L7488 6419
" />
<path d="M3738 4369
L4438 4369
" />
<path d="M10669 5738
L11988 5738
" />
<path d="M10488 5919
L10669 5738
" />
<path d="M4438 4369
L5988 5919
" />
<path d="M1988 3619
L2738 4369
" />
<path d="M7807 3919
L7807 5100
" />
<path d="M1988 1919
L1988 3619
" />
<path d="M4988 3419
L4988 1919
" />
<path d="M6988 5419
L4988 3419
" />
<path d="M7488 5419
L6988 5419
" />
<path d="M7807 5100
L7488 5419
" />
<path d="M10807 18419
L10807 17138
" />
<path d="M10807 17138
L10688 17019
" />
<path d="M11988 14600
L10507 14600
" />
<path d="M10507 14600
L10488 14619
" />
<path d="M8988 18919
L9488 18419
" />
<path d="M9488 18419
L10807 18419
" />
<path d="M12988 15919
L11988 14919
" />
<path d="M11988 14919
L11988 14600
" />
<path d="M13488 16219
L13288 16219
" />
<path d="M13288 16219
L12988 15919
" />
<path d="M4307 18419
L4307 17238
" />
<path d="M1988 17419
L1988 17919
" />
<path d="M2488 16919
L1988 17419
" />
<path d="M3988 16919
L2488 16919
" />
<path d="M4307 17238
L3988 16919
" />
<path d="M15488 10419
L15488 9919
" />
<path d="M13488 16219
L15488 16219
" />
<path d="M11988 8100
L11007 8100
" />
<path d="M11088 10219
L15488 10219
" />
<path d="M10688 9819
L11088 10219
" />
<path d="M10688 8419
L10688 9819
" />
<path d="M11007 8100
L10688 8419
" />
<path d="M10169 3919
L10169 4900
" />
<path d="M12488 3619
L12488 419
" />
<path d="M11088 5019
L12488 3619
" />
<path d="M10288 5019
L11088 5019
" />
<path d="M10169 4900
L10288 5019
" />
</g>
<g style="fill:#000000; fill-opacity:0.0; 
stroke:#000000; stroke-width:98.4252; stroke-opacity:1; 
stroke-linecap:round; stroke-linejoin:round;">
<path d="M10169 4600
L10169 3919
" />
<path d="M11307 8100
L11988 8100
" />
<path d="M11307 14600
L11988 14600
" />
</g>
<g style="fill:#000000; fill-opacity:0.0; 
stroke:#000000; stroke-width:196.85; stroke-opacity:1; 
stroke-linecap:round; stroke-linejoin:round;">
<path d="M8988 21919
L8988 18919
" />
</g>
<g style="fill:#000000; fill-opacity:0.0; 
stroke:#000000; stroke-width:98.4252; stroke-opacity:1; 
stroke-linecap:round; stroke-linejoin:round;">
<path d="M10807 17738
L10807 18419
" />
</g>
<g style="fill:#000000; fill-opacity:0.0; 
stroke:#000000; stroke-width:196.85; stroke-opacity:1; 
stroke-linecap:round; stroke-linejoin:round;">
<path d="M15488 10419
L15488 15919
" />
</g>
<g style="fill:#000000; fill-opacity:0.0; 
stroke:#000000; stroke-width:98.4252; stroke-opacity:1; 
stroke-linecap:round; stroke-linejoin:round;">
<path d="M15488 10219
L15488 10419
" />
</g>
<g style="fill:#000000; fill-opacity:0.0; 
stroke:#000000; stroke-width:196.85; stroke-opacity:1; 
stroke-linecap:round; stroke-linejoin:round;">
<path d="M15488 15919
L15488 16219
" />
<path d="M15488 16219
L15488 16419
" />
<path d="M15488 20919
L14488 21919
" />
<path d="M14488 21919
L8988 21919
" />
<path d="M15488 16419
L15488 20919
" />
<path d="M1988 20919
L1988 17919
" />
<path d="M8988 21919
L2988 21919
" />
<path d="M2988 21919
L1988 20919
" />
</g>
<g style="fill:#000000; fill-opacity:0.0; 
stroke:#000000; stroke-width:98.4252; stroke-opacity:1; 
stroke-linecap:round; stroke-linejoin:round;">
<path d="M4307 17738
L4307 18419
" />
<path d="M10169 4600
L10169 3919
" />
</g>
<g style="fill:#000000; fill-opacity:0.0; 
stroke:#000000; stroke-width:196.85; stroke-opacity:1; 
stroke-linecap:round; stroke-linejoin:round;">
<path d="M2738 3369
L2738 1169
" />
<path d="M2738 1169
L3488 419
" />
<path d="M11988 419
L12488 419
" />
<path d="M11488 419
L11988 419
" />
<path d="M3488 419
L11488 419
" />
<path d="M15488 1419
L15488 9419
" />
<path d="M12488 419
L14488 419
" />
<path d="M14488 419
L15488 1419
" />
<path d="M15488 9419
L15488 9919
" />
<path d="M15488 9919
L15488 10219
" />
</g>
<g style="fill:#000000; fill-opacity:0.0; 
stroke:#000000; stroke-width:98.4252; stroke-opacity:1; 
stroke-linecap:round; stroke-linejoin:round;">
<path d="M4307 17738
L4307 18419
" />
</g>
<g style="fill:#000000; fill-opacity:0.0; 
stroke:#000000; stroke-width:196.85; stroke-opacity:1; 
stroke-linecap:round; stroke-linejoin:round;">
<path d="M8594 3919
L8594 5525
" />
<path d="M8594 5525
L8688 5619
" />
<path d="M11988 13025
L10494 13025
" />
<path d="M10494 13025
L10488 13019
" />
</g>
<g style="fill:#000000; fill-opacity:0.0; 
stroke:#000000; stroke-width:98.4252; stroke-opacity:1; 
stroke-linecap:round; stroke-linejoin:round;">
<path d="M3788 7419
L3738 7369
" />
<path d="M2738 7369
L2538 7369
" />
</g>
<g style="fill:#FFFFFF; fill-opacity:0.0; 
stroke:#FFFFFF; stroke-width:98.4252; stroke-opacity:1; 
stroke-linecap:round; stroke-linejoin:round;">
</g>
<g style="fill:#FFFFFF; fill-opacity:1.0; 
stroke:#FFFFFF; stroke-width:0; stroke-opacity:1; 
stroke-linecap:round; stroke-linejoin:round;">
<circle cx="2988.66" cy="15419.7" r="196.85" /> 
</g>
<g style="fill:#FFFFFF; fill-opacity:1.0; 
stroke:#FFFFFF; stroke-width:39.3701; stroke-opacity:1; 
stroke-linecap:round; stroke-linejoin:round;">
</g>
<g style="fill:#FFFFFF; fill-opacity:1.0; 
stroke:#FFFFFF; stroke-width:0; stroke-opacity:1; 
stroke-linecap:round; stroke-linejoin:round;">
<circle cx="13088.7" cy="17219.7" r="196.85" /> 
</g>
<g style="fill:#FFFFFF; fill-opacity:1.0; 
stroke:#FFFFFF; stroke-width:39.3701; stroke-opacity:1; 
stroke-linecap:round; stroke-linejoin:round;">
</g>
<g style="fill:#FFFFFF; fill-opacity:1.0; 
stroke:#FFFFFF; stroke-width:0; stroke-opacity:1; 
stroke-linecap:round; stroke-linejoin:round;">
<circle cx="7288.66" cy="16619.7" r="196.85" /> 
</g>
<g style="fill:#FFFFFF; fill-opacity:1.0; 
stroke:#FFFFFF; stroke-width:39.3701; stroke-opacity:1; 
stroke-linecap:round; stroke-linejoin:round;">
</g>
<g style="fill:#FFFFFF; fill-opacity:1.0; 
stroke:#FFFFFF; stroke-width:0; stroke-opacity:1; 
stroke-linecap:round; stroke-linejoin:round;">
<circle cx="5988.66" cy="8919.69" r="196.85" /> 
</g>
<g style="fill:#FFFFFF; fill-opacity:1.0; 
stroke:#FFFFFF; stroke-width:39.3701; stroke-opacity:1; 
stroke-linecap:round; stroke-linejoin:round;">
</g>
<g style="fill:#FFFFFF; fill-opacity:1.0; 
stroke:#FFFFFF; stroke-width:0; stroke-opacity:1; 
stroke-linecap:round; stroke-linejoin:round;">
<circle cx="6988.66" cy="14919.7" r="196.85" /> 
</g>
<g style="fill:#FFFFFF; fill-opacity:1.0; 
stroke:#FFFFFF; stroke-width:39.3701; stroke-opacity:1; 
stroke-linecap:round; stroke-linejoin:round;">
</g>
<g style="fill:#FFFFFF; fill-opacity:1.0; 
stroke:#FFFFFF; stroke-width:0; stroke-opacity:1; 
stroke-linecap:round; stroke-linejoin:round;">
<circle cx="12488.7" cy="16419.7" r="196.85" /> 
</g>
<g style="fill:#FFFFFF; fill-opacity:1.0; 
stroke:#FFFFFF; stroke-width:39.3701; stroke-opacity:1; 
stroke-linecap:round; stroke-linejoin:round;">
</g>
<g style="fill:#FFFFFF; fill-opacity:1.0; 
stroke:#FFFFFF; stroke-width:0; stroke-opacity:1; 
stroke-linecap:round; stroke-linejoin:round;">
<circle cx="9488.66" cy="16419.7" r="196.85" /> 
</g>
<g style="fill:#FFFFFF; fill-opacity:1.0; 
stroke:#FFFFFF; stroke-width:39.3701; stroke-opacity:1; 
stroke-linecap:round; stroke-linejoin:round;">
</g>
<g style="fill:#FFFFFF; fill-opacity:1.0; 
stroke:#FFFFFF; stroke-width:0; stroke-opacity:1; 
stroke-linecap:round; stroke-linejoin:round;">
<circle cx="7488.66" cy="7919.69" r="196.85" /> 
</g>
<g style="fill:#FFFFFF; fill-opacity:1.0; 
stroke:#FFFFFF; stroke-width:39.3701; stroke-opacity:1; 
stroke-linecap:round; stroke-linejoin:round;">
</g>
<g style="fill:#FFFFFF; fill-opacity:1.0; 
stroke:#FFFFFF; stroke-width:0; stroke-opacity:1; 
stroke-linecap:round; stroke-linejoin:round;">
<circle cx="8988.66" cy="11919.7" r="196.85" /> 
</g>
<g style="fill:#FFFFFF; fill-opacity:1.0; 
stroke:#FFFFFF; stroke-width:39.3701; stroke-opacity:1; 
stroke-linecap:round; stroke-linejoin:round;">
</g>
<g style="fill:#FFFFFF; fill-opacity:1.0; 
stroke:#FFFFFF; stroke-width:0; stroke-opacity:1; 
stroke-linecap:round; stroke-linejoin:round;">
<circle cx="7488.66" cy="6419.69" r="196.85" /> 
</g>
<g style="fill:#FFFFFF; fill-opacity:1.0; 
stroke:#FFFFFF; stroke-width:39.3701; stroke-opacity:1; 
stroke-linecap:round; stroke-linejoin:round;">
</g>
<g style="fill:#FFFFFF; fill-opacity:1.0; 
stroke:#FFFFFF; stroke-width:0; stroke-opacity:1; 
stroke-linecap:round; stroke-linejoin:round;">
<circle cx="10488.7" cy="5919.69" r="196.85" /> 
</g>
<g style="fill:#FFFFFF; fill-opacity:1.0; 
stroke:#FFFFFF; stroke-width:39.3701; stroke-opacity:1; 
stroke-linecap:round; stroke-linejoin:round;">
</g>
<g style="fill:#FFFFFF; fill-opacity:1.0; 
stroke:#FFFFFF; stroke-width:0; stroke-opacity:1; 
stroke-linecap:round; stroke-linejoin:round;">
<circle cx="1988.66" cy="1919.69" r="196.85" /> 
</g>
<g style="fill:#FFFFFF; fill-opacity:1.0; 
stroke:#FFFFFF; stroke-width:39.3701; stroke-opacity:1; 
stroke-linecap:round; stroke-linejoin:round;">
</g>
<g style="fill:#FFFFFF; fill-opacity:1.0; 
stroke:#FFFFFF; stroke-width:0; stroke-opacity:1; 
stroke-linecap:round; stroke-linejoin:round;">
<circle cx="4988.66" cy="1919.69" r="196.85" /> 
</g>
<g style="fill:#FFFFFF; fill-opacity:1.0; 
stroke:#FFFFFF; stroke-width:39.3701; stroke-opacity:1; 
stroke-linecap:round; stroke-linejoin:round;">
</g>
<g style="fill:#FFFFFF; fill-opacity:1.0; 
stroke:#FFFFFF; stroke-width:0; stroke-opacity:1; 
stroke-linecap:round; stroke-linejoin:round;">
<circle cx="2738.66" cy="10369.7" r="196.85" /> 
</g>
<g style="fill:#FFFFFF; fill-opacity:1.0; 
stroke:#FFFFFF; stroke-width:39.3701; stroke-opacity:1; 
stroke-linecap:round; stroke-linejoin:round;">
</g>
<g style="fill:#FFFFFF; fill-opacity:1.0; 
stroke:#FFFFFF; stroke-width:0; stroke-opacity:1; 
stroke-linecap:round; stroke-linejoin:round;">
<circle cx="3738.66" cy="10369.7" r="196.85" /> 
</g>
<g style="fill:#FFFFFF; fill-opacity:1.0; 
stroke:#FFFFFF; stroke-width:39.3701; stroke-opacity:1; 
stroke-linecap:round; stroke-linejoin:round;">
</g>
<g style="fill:#FFFFFF; fill-opacity:1.0; 
stroke:#FFFFFF; stroke-width:0; stroke-opacity:1; 
stroke-linecap:round; stroke-linejoin:round;">
<circle cx="2738.66" cy="9369.69" r="196.85" /> 
</g>
<g style="fill:#FFFFFF; fill-opacity:1.0; 
stroke:#FFFFFF; stroke-width:39.3701; stroke-opacity:1; 
stroke-linecap:round; stroke-linejoin:round;">
</g>
<g style="fill:#FFFFFF; fill-opacity:1.0; 
stroke:#FFFFFF; stroke-width:0; stroke-opacity:1; 
stroke-linecap:round; stroke-linejoin:round;">
<circle cx="3738.66" cy="9369.69" r="196.85" /> 
</g>
<g style="fill:#FFFFFF; fill-opacity:1.0; 
stroke:#FFFFFF; stroke-width:39.3701; stroke-opacity:1; 
stroke-linecap:round; stroke-linejoin:round;">
</g>
<g style="fill:#FFFFFF; fill-opacity:1.0; 
stroke:#FFFFFF; stroke-width:0; stroke-opacity:1; 
stroke-linecap:round; stroke-linejoin:round;">
<circle cx="2738.66" cy="8369.69" r="196.85" /> 
</g>
<g style="fill:#FFFFFF; fill-opacity:1.0; 
stroke:#FFFFFF; stroke-width:39.3701; stroke-opacity:1; 
stroke-linecap:round; stroke-linejoin:round;">
</g>
<g style="fill:#FFFFFF; fill-opacity:1.0; 
stroke:#FFFFFF; stroke-width:0; stroke-opacity:1; 
stroke-linecap:round; stroke-linejoin:round;">
<circle cx="3738.66" cy="8369.69" r="196.85" /> 
</g>
<g style="fill:#FFFFFF; fill-opacity:1.0; 
stroke:#FFFFFF; stroke-width:39.3701; stroke-opacity:1; 
stroke-linecap:round; stroke-linejoin:round;">
</g>
<g style="fill:#FFFFFF; fill-opacity:1.0; 
stroke:#FFFFFF; stroke-width:0; stroke-opacity:1; 
stroke-linecap:round; stroke-linejoin:round;">
<circle cx="2738.66" cy="7369.69" r="196.85" /> 
</g>
<g style="fill:#FFFFFF; fill-opacity:1.0; 
stroke:#FFFFFF; stroke-width:39.3701; stroke-opacity:1; 
stroke-linecap:round; stroke-linejoin:round;">
</g>
<g style="fill:#FFFFFF; fill-opacity:1.0; 
stroke:#FFFFFF; stroke-width:0; stroke-opacity:1; 
stroke-linecap:round; stroke-linejoin:round;">
<circle cx="3738.66" cy="7369.69" r="196.85" /> 
</g>
<g style="fill:#FFFFFF; fill-opacity:1.0; 
stroke:#FFFFFF; stroke-width:39.3701; stroke-opacity:1; 
stroke-linecap:round; stroke-linejoin:round;">
</g>
<g style="fill:#FFFFFF; fill-opacity:1.0; 
stroke:#FFFFFF; stroke-width:0; stroke-opacity:1; 
stroke-linecap:round; stroke-linejoin:round;">
<circle cx="2738.66" cy="6369.69" r="196.85" /> 
</g>
<g style="fill:#FFFFFF; fill-opacity:1.0; 
stroke:#FFFFFF; stroke-width:39.3701; stroke-opacity:1; 
stroke-linecap:round; stroke-linejoin:round;">
</g>
<g style="fill:#FFFFFF; fill-opacity:1.0; 
stroke:#FFFFFF; stroke-width:0; stroke-opacity:1; 
stroke-linecap:round; stroke-linejoin:round;">
<circle cx="3738.66" cy="6369.69" r="196.85" /> 
</g>
<g style="fill:#FFFFFF; fill-opacity:1.0; 
stroke:#FFFFFF; stroke-width:39.3701; stroke-opacity:1; 
stroke-linecap:round; stroke-linejoin:round;">
</g>
<g style="fill:#FFFFFF; fill-opacity:1.0; 
stroke:#FFFFFF; stroke-width:0; stroke-opacity:1; 
stroke-linecap:round; stroke-linejoin:round;">
<circle cx="2738.66" cy="5369.69" r="196.85" /> 
</g>
<g style="fill:#FFFFFF; fill-opacity:1.0; 
stroke:#FFFFFF; stroke-width:39.3701; stroke-opacity:1; 
stroke-linecap:round; stroke-linejoin:round;">
</g>
<g style="fill:#FFFFFF; fill-opacity:1.0; 
stroke:#FFFFFF; stroke-width:0; stroke-opacity:1; 
stroke-linecap:round; stroke-linejoin:round;">
<circle cx="3738.66" cy="5369.69" r="196.85" /> 
</g>
<g style="fill:#FFFFFF; fill-opacity:1.0; 
stroke:#FFFFFF; stroke-width:39.3701; stroke-opacity:1; 
stroke-linecap:round; stroke-linejoin:round;">
</g>
<g style="fill:#FFFFFF; fill-opacity:1.0; 
stroke:#FFFFFF; stroke-width:0; stroke-opacity:1; 
stroke-linecap:round; stroke-linejoin:round;">
<circle cx="2738.66" cy="4369.69" r="196.85" /> 
</g>
<g style="fill:#FFFFFF; fill-opacity:1.0; 
stroke:#FFFFFF; stroke-width:39.3701; stroke-opacity:1; 
stroke-linecap:round; stroke-linejoin:round;">
</g>
<g style="fill:#FFFFFF; fill-opacity:1.0; 
stroke:#FFFFFF; stroke-width:0; stroke-opacity:1; 
stroke-linecap:round; stroke-linejoin:round;">
<circle cx="3738.66" cy="4369.69" r="196.85" /> 
</g>
<g style="fill:#FFFFFF; fill-opacity:1.0; 
stroke:#FFFFFF; stroke-width:39.3701; stroke-opacity:1; 
stroke-linecap:round; stroke-linejoin:round;">
</g>
<g style="fill:#FFFFFF; fill-opacity:1.0; 
stroke:#FFFFFF; stroke-width:0; stroke-opacity:1; 
stroke-linecap:round; stroke-linejoin:round;">
<circle cx="2738.66" cy="3369.69" r="196.85" /> 
</g>
<g style="fill:#FFFFFF; fill-opacity:1.0; 
stroke:#FFFFFF; stroke-width:39.3701; stroke-opacity:1; 
stroke-linecap:round; stroke-linejoin:round;">
</g>
<g style="fill:#FFFFFF; fill-opacity:1.0; 
stroke:#FFFFFF; stroke-width:0; stroke-opacity:1; 
stroke-linecap:round; stroke-linejoin:round;">
<circle cx="3738.66" cy="3369.69" r="196.85" /> 
</g>
<g style="fill:#FFFFFF; fill-opacity:1.0; 
stroke:#FFFFFF; stroke-width:39.3701; stroke-opacity:1; 
stroke-linecap:round; stroke-linejoin:round;">
</g>
<g style="fill:#000000; fill-opacity:1.0; 
stroke:#000000; stroke-width:39.3701; stroke-opacity:1; 
stroke-linecap:round; stroke-linejoin:round;">
</g> 
</svg>
