  0
SECTION
  2
HEADER
  9
$ACADVER
  1
AC1014
  9
$ACADMAINTVER
 70
     9
  9
$DWGCODEPAGE
  3
ANSI_1252
  9
$INSBASE
 10
0.0
 20
0.0
 30
0.0
  9
$EXTMIN
 10
36.28858749050404
 20
-1.486298064142119
 30
0.0
  9
$EXTMAX
 10
439.5936232443832
 20
368.7113209834793
 30
0.0
  9
$LIMMIN
 10
0.0
 20
0.0
  9
$LIMMAX
 10
12.0
 20
9.0
  9
$ORTHOMODE
 70
     0
  9
$REGENMODE
 70
     1
  9
$FILLMODE
 70
     1
  9
$QTEXTMODE
 70
     0
  9
$MIRRTEXT
 70
     1
  9
$DRAGMODE
 70
     2
  9
$LTSCALE
 40
1.0
  9
$OSMODE
 70
    37
  9
$ATTMODE
 70
     1
  9
$TEXTSIZE
 40
0.2
  9
$TRACEWID
 40
0.05
  9
$TEXTSTYLE
  7
STANDARD
  9
$CLAYER
  8
0
  9
$CELTYPE
  6
BYLAYER
  9
$CECOLOR
 62
   256
  9
$CELTSCALE
 40
1.0
  9
$DELOBJ
 70
     1
  9
$DISPSILH
 70
     0
  9
$DIMSCALE
 40
1.0
  9
$DIMASZ
 40
0.18
  9
$DIMEXO
 40
0.0625
  9
$DIMDLI
 40
0.38
  9
$DIMRND
 40
0.0
  9
$DIMDLE
 40
0.0
  9
$DIMEXE
 40
0.18
  9
$DIMTP
 40
0.0
  9
$DIMTM
 40
0.0
  9
$DIMTXT
 40
0.18
  9
$DIMCEN
 40
0.09
  9
$DIMTSZ
 40
0.0
  9
$DIMTOL
 70
     0
  9
$DIMLIM
 70
     0
  9
$DIMTIH
 70
     1
  9
$DIMTOH
 70
     1
  9
$DIMSE1
 70
     0
  9
$DIMSE2
 70
     0
  9
$DIMTAD
 70
     0
  9
$DIMZIN
 70
     0
  9
$DIMBLK
  1

  9
$DIMASO
 70
     1
  9
$DIMSHO
 70
     1
  9
$DIMPOST
  1

  9
$DIMAPOST
  1

  9
$DIMALT
 70
     0
  9
$DIMALTD
 70
     2
  9
$DIMALTF
 40
25.4
  9
$DIMLFAC
 40
1.0
  9
$DIMTOFL
 70
     0
  9
$DIMTVP
 40
0.0
  9
$DIMTIX
 70
     0
  9
$DIMSOXD
 70
     0
  9
$DIMSAH
 70
     0
  9
$DIMBLK1
  1

  9
$DIMBLK2
  1

  9
$DIMSTYLE
  2
STANDARD
  9
$DIMCLRD
 70
     0
  9
$DIMCLRE
 70
     0
  9
$DIMCLRT
 70
     0
  9
$DIMTFAC
 40
1.0
  9
$DIMGAP
 40
0.09
  9
$DIMJUST
 70
     0
  9
$DIMSD1
 70
     0
  9
$DIMSD2
 70
     0
  9
$DIMTOLJ
 70
     1
  9
$DIMTZIN
 70
     0
  9
$DIMALTZ
 70
     0
  9
$DIMALTTZ
 70
     0
  9
$DIMFIT
 70
     5
  9
$DIMUPT
 70
     0
  9
$DIMUNIT
 70
     2
  9
$DIMDEC
 70
     4
  9
$DIMTDEC
 70
     4
  9
$DIMALTU
 70
     2
  9
$DIMALTTD
 70
     2
  9
$DIMTXSTY
  7
STANDARD
  9
$DIMAUNIT
 70
     0
  9
$LUNITS
 70
     2
  9
$LUPREC
 70
     2
  9
$SKETCHINC
 40
0.1
  9
$FILLETRAD
 40
0.5
  9
$AUNITS
 70
     0
  9
$AUPREC
 70
     0
  9
$MENU
  1
.
  9
$ELEVATION
 40
0.0
  9
$PELEVATION
 40
0.0
  9
$THICKNESS
 40
0.0
  9
$LIMCHECK
 70
     0
  9
$CHAMFERA
 40
0.0
  9
$CHAMFERB
 40
0.0
  9
$CHAMFERC
 40
0.0
  9
$CHAMFERD
 40
0.0
  9
$SKPOLY
 70
     0
  9
$TDCREATE
 40
2458348.558867708
  9
$TDUPDATE
 40
2458348.558888391
  9
$TDINDWG
 40
0.0000000116
  9
$TDUSRTIMER
 40
0.0000000116
  9
$USRTIMER
 70
     1
  9
$ANGBASE
 50
0.0
  9
$ANGDIR
 70
     0
  9
$PDMODE
 70
     0
  9
$PDSIZE
 40
0.0
  9
$PLINEWID
 40
0.0
  9
$COORDS
 70
     1
  9
$SPLFRAME
 70
     0
  9
$SPLINETYPE
 70
     6
  9
$SPLINESEGS
 70
     8
  9
$ATTDIA
 70
     0
  9
$ATTREQ
 70
     1
  9
$HANDLING
 70
     1
  9
$HANDSEED
  5
2A0
  9
$SURFTAB1
 70
     6
  9
$SURFTAB2
 70
     6
  9
$SURFTYPE
 70
     6
  9
$SURFU
 70
     6
  9
$SURFV
 70
     6
  9
$UCSNAME
  2

  9
$UCSORG
 10
0.0
 20
0.0
 30
0.0
  9
$UCSXDIR
 10
1.0
 20
0.0
 30
0.0
  9
$UCSYDIR
 10
0.0
 20
1.0
 30
0.0
  9
$PUCSNAME
  2

  9
$PUCSORG
 10
0.0
 20
0.0
 30
0.0
  9
$PUCSXDIR
 10
1.0
 20
0.0
 30
0.0
  9
$PUCSYDIR
 10
0.0
 20
1.0
 30
0.0
  9
$USERI1
 70
     0
  9
$USERI2
 70
     0
  9
$USERI3
 70
     0
  9
$USERI4
 70
     0
  9
$USERI5
 70
     0
  9
$USERR1
 40
0.0
  9
$USERR2
 40
0.0
  9
$USERR3
 40
0.0
  9
$USERR4
 40
0.0
  9
$USERR5
 40
0.0
  9
$WORLDVIEW
 70
     1
  9
$SHADEDGE
 70
     3
  9
$SHADEDIF
 70
    70
  9
$TILEMODE
 70
     1
  9
$MAXACTVP
 70
    64
  9
$PINSBASE
 10
0.0
 20
0.0
 30
0.0
  9
$PLIMCHECK
 70
     0
  9
$PEXTMIN
 10
1.000000000000000E+20
 20
1.000000000000000E+20
 30
1.000000000000000E+20
  9
$PEXTMAX
 10
-1.000000000000000E+20
 20
-1.000000000000000E+20
 30
-1.000000000000000E+20
  9
$PLIMMIN
 10
0.0
 20
0.0
  9
$PLIMMAX
 10
12.0
 20
9.0
  9
$UNITMODE
 70
     0
  9
$VISRETAIN
 70
     1
  9
$PLINEGEN
 70
     0
  9
$PSLTSCALE
 70
     1
  9
$TREEDEPTH
 70
  3020
  9
$PICKSTYLE
 70
     1
  9
$CMLSTYLE
  2
STANDARD
  9
$CMLJUST
 70
     0
  9
$CMLSCALE
 40
1.0
  9
$PROXYGRAPHICS
 70
     1
  9
$MEASUREMENT
 70
     0
  0
ENDSEC
  0
SECTION
  2
CLASSES
  0
CLASS
  1
ACDBDICTIONARYWDFLT
  2
AcDbDictionaryWithDefault
  3
ObjectDBX Classes
 90
        0
280
     0
281
     0
  0
CLASS
  1
VISUALSTYLE
  2
AcDbVisualStyle
  3
ObjectDBX Classes
 90
     4095
280
     0
281
     0
  0
CLASS
  1
MATERIAL
  2
AcDbMaterial
  3
ObjectDBX Classes
 90
     1153
280
     0
281
     0
  0
CLASS
  1
SCALE
  2
AcDbScale
  3
ObjectDBX Classes
 90
     1153
280
     0
281
     0
  0
CLASS
  1
SUN
  2
AcDbSun
  3
SCENEOE
 90
     1153
280
     0
281
     0
  0
CLASS
  1
DICTIONARYVAR
  2
AcDbDictionaryVar
  3
ObjectDBX Classes
 90
        0
280
     0
281
     0
  0
CLASS
  1
XRECORD
  2
AcDbXrecord
  3
ObjectDBX Classes
 90
        0
280
     0
281
     0
  0
CLASS
  1
LWPOLYLINE
  2
AcDbPolyline
  3
ObjectDBX Classes
 90
        0
280
     0
281
     1
  0
CLASS
  1
HATCH
  2
AcDbHatch
  3
ObjectDBX Classes
 90
        0
280
     0
281
     1
  0
CLASS
  1
ACDBPLACEHOLDER
  2
AcDbPlaceHolder
  3
ObjectDBX Classes
 90
        0
280
     0
281
     0
  0
CLASS
  1
LAYOUT
  2
AcDbLayout
  3
ObjectDBX Classes
 90
        0
280
     0
281
     0
  0
ENDSEC
  0
SECTION
  2
TABLES
  0
TABLE
  2
VPORT
  5
8
330
0
100
AcDbSymbolTable
 70
     1
  0
VPORT
  5
29
330
8
100
AcDbSymbolTableRecord
100
AcDbViewportTableRecord
  2
*ACTIVE
 70
     0
 10
0.0
 20
0.0
 11
1.0
 21
1.0
 12
237.9411053674436
 22
183.6125114596686
 13
0.0
 23
0.0
 14
0.5
 24
0.5
 15
0.5
 25
0.5
 16
0.0
 26
0.0
 36
1.0
 17
0.0
 27
0.0
 37
0.0
 40
377.6015714285738
 41
1.089431738624983
 42
50.0
 43
0.0
 44
0.0
 50
0.0
 51
0.0
 71
     0
 72
   100
 73
     1
 74
     3
 75
     0
 76
     0
 77
     0
 78
     0
  0
ENDTAB
  0
TABLE
  2
LTYPE
  5
5
330
0
100
AcDbSymbolTable
 70
     1
  0
LTYPE
  5
14
330
5
100
AcDbSymbolTableRecord
100
AcDbLinetypeTableRecord
  2
BYBLOCK
 70
     0
  3

 72
    65
 73
     0
 40
0.0
  0
LTYPE
  5
15
330
5
100
AcDbSymbolTableRecord
100
AcDbLinetypeTableRecord
  2
BYLAYER
 70
     0
  3

 72
    65
 73
     0
 40
0.0
  0
LTYPE
  5
16
330
5
100
AcDbSymbolTableRecord
100
AcDbLinetypeTableRecord
  2
CONTINUOUS
 70
     0
  3
Solid line
 72
    65
 73
     0
 40
0.0
  0
ENDTAB
  0
TABLE
  2
LAYER
  5
2
330
0
100
AcDbSymbolTable
 70
     2
  0
LAYER
  5
10
330
2
100
AcDbSymbolTableRecord
100
AcDbLayerTableRecord
  2
0
 70
     0
 62
     7
  6
CONTINUOUS
  0
LAYER
  5
6A
330
2
100
AcDbSymbolTableRecord
100
AcDbLayerTableRecord
  2
MAKE2D$VISIBLE$LINES
 70
     0
 62
    18
  6
CONTINUOUS
  0
ENDTAB
  0
TABLE
  2
STYLE
  5
3
330
0
100
AcDbSymbolTable
 70
     1
  0
STYLE
  5
11
330
3
100
AcDbSymbolTableRecord
100
AcDbTextStyleTableRecord
  2
STANDARD
 70
     0
 40
0.0
 41
1.0
 50
0.0
 71
     0
 42
0.2
  3
txt
  4

  0
ENDTAB
  0
TABLE
  2
VIEW
  5
6
330
0
100
AcDbSymbolTable
 70
     0
  0
ENDTAB
  0
TABLE
  2
UCS
  5
7
330
0
100
AcDbSymbolTable
 70
     0
  0
ENDTAB
  0
TABLE
  2
APPID
  5
9
330
0
100
AcDbSymbolTable
 70
     1
  0
APPID
  5
12
330
9
100
AcDbSymbolTableRecord
100
AcDbRegAppTableRecord
  2
ACAD
 70
     0
  0
ENDTAB
  0
TABLE
  2
DIMSTYLE
  5
A
330
0
100
AcDbSymbolTable
 70
     1
  0
DIMSTYLE
105
27
330
A
100
AcDbSymbolTableRecord
100
AcDbDimStyleTableRecord
  2
STANDARD
 70
     0
  3

  4

  5

  6

  7

 40
1.0
 41
0.18
 42
0.0625
 43
0.38
 44
0.18
 45
0.0
 46
0.0
 47
0.0
 48
0.0
140
0.18
141
0.09
142
0.0
143
25.4
144
1.0
145
0.0
146
1.0
147
0.09
 71
     0
 72
     0
 73
     1
 74
     1
 75
     0
 76
     0
 77
     0
 78
     0
170
     0
171
     2
172
     0
173
     0
174
     0
175
     0
176
     0
177
     0
178
     0
270
     2
271
     4
272
     4
273
     2
274
     2
340
11
275
     0
280
     0
281
     0
282
     0
283
     1
284
     0
285
     0
286
     0
287
     3
288
     0
  0
ENDTAB
  0
TABLE
  2
BLOCK_RECORD
  5
1
330
0
100
AcDbSymbolTable
 70
    12
  0
BLOCK_RECORD
  5
1F
330
1
100
AcDbSymbolTableRecord
100
AcDbBlockTableRecord
  2
*MODEL_SPACE
  0
BLOCK_RECORD
  5
1B
330
1
100
AcDbSymbolTableRecord
100
AcDbBlockTableRecord
  2
*PAPER_SPACE
  0
BLOCK_RECORD
  5
16A
330
1
100
AcDbSymbolTableRecord
100
AcDbBlockTableRecord
  2
NESTING_TOP
  0
BLOCK_RECORD
  5
16B
330
1
100
AcDbSymbolTableRecord
100
AcDbBlockTableRecord
  2
SW_CENTERMARKSYMBOL_7
  0
BLOCK_RECORD
  5
177
330
1
100
AcDbSymbolTableRecord
100
AcDbBlockTableRecord
  2
SW_CENTERMARKSYMBOL_6
  0
BLOCK_RECORD
  5
183
330
1
100
AcDbSymbolTableRecord
100
AcDbBlockTableRecord
  2
SW_CENTERMARKSYMBOL_5
  0
BLOCK_RECORD
  5
18F
330
1
100
AcDbSymbolTableRecord
100
AcDbBlockTableRecord
  2
SW_CENTERMARKSYMBOL_4
  0
BLOCK_RECORD
  5
19B
330
1
100
AcDbSymbolTableRecord
100
AcDbBlockTableRecord
  2
SW_CENTERMARKSYMBOL_3
  0
BLOCK_RECORD
  5
1A7
330
1
100
AcDbSymbolTableRecord
100
AcDbBlockTableRecord
  2
SW_CENTERMARKSYMBOL_2
  0
BLOCK_RECORD
  5
1B3
330
1
100
AcDbSymbolTableRecord
100
AcDbBlockTableRecord
  2
SW_CENTERMARKSYMBOL_1
  0
BLOCK_RECORD
  5
1BF
330
1
100
AcDbSymbolTableRecord
100
AcDbBlockTableRecord
  2
SW_CENTERMARKSYMBOL_0
  0
BLOCK_RECORD
  5
1E8
330
1
100
AcDbSymbolTableRecord
100
AcDbBlockTableRecord
  2
SW_NOTE_1
  0
BLOCK_RECORD
  5
1EF
330
1
100
AcDbSymbolTableRecord
100
AcDbBlockTableRecord
  2
SW_NOTE_0
  0
ENDTAB
  0
ENDSEC
  0
SECTION
  2
BLOCKS
  0
BLOCK
  5
20
330
1F
100
AcDbEntity
  8
0
100
AcDbBlockBegin
  2
*MODEL_SPACE
 70
     0
 10
0.0
 20
0.0
 30
0.0
  3
*MODEL_SPACE
  1

  0
ENDBLK
  5
21
330
1F
100
AcDbEntity
  8
0
100
AcDbBlockEnd
  0
BLOCK
  5
1C
330
1B
100
AcDbEntity
 67
     1
  8
0
100
AcDbBlockBegin
  2
*PAPER_SPACE
 70
     0
 10
0.0
 20
0.0
 30
0.0
  3
*PAPER_SPACE
  1

  0
ENDBLK
  5
1D
330
1B
100
AcDbEntity
 67
     1
  8
0
100
AcDbBlockEnd
  0
BLOCK
  5
26F
330
16A
100
AcDbEntity
  8
0
100
AcDbBlockBegin
  2
NESTING_TOP
 70
     0
 10
0.0
 20
0.0
 30
0.0
  3
NESTING_TOP
  1
NESTING_TOP
  0
INSERT
  5
176
330
16A
100
AcDbEntity
  8
0
  6
CONTINUOUS
 62
     7
100
AcDbBlockReference
  2
SW_CENTERMARKSYMBOL_7
 10
331.0055118110237
 20
250.5708661417322
 30
0.0
  0
INSERT
  5
182
330
16A
100
AcDbEntity
  8
0
  6
CONTINUOUS
 62
     7
100
AcDbBlockReference
  2
SW_CENTERMARKSYMBOL_6
 10
301.0055118110237
 20
240.5708661417322
 30
0.0
  0
INSERT
  5
18E
330
16A
100
AcDbEntity
  8
0
  6
CONTINUOUS
 62
     7
100
AcDbBlockReference
  2
SW_CENTERMARKSYMBOL_5
 10
311.0055118110237
 20
210.5708661417322
 30
0.0
  0
INSERT
  5
19A
330
16A
100
AcDbEntity
  8
0
  6
CONTINUOUS
 62
     7
100
AcDbBlockReference
  2
SW_CENTERMARKSYMBOL_4
 10
341.0055118110237
 20
220.5708661417322
 30
0.0
  0
INSERT
  5
1A6
330
16A
100
AcDbEntity
  8
0
  6
CONTINUOUS
 62
     7
100
AcDbBlockReference
  2
SW_CENTERMARKSYMBOL_3
 10
375.5055118110237
 20
272.5708661417322
 30
0.0
  0
INSERT
  5
1B2
330
16A
100
AcDbEntity
  8
0
  6
CONTINUOUS
 62
     7
100
AcDbBlockReference
  2
SW_CENTERMARKSYMBOL_2
 10
266.5055118110236
 20
188.5708661417322
 30
0.0
  0
INSERT
  5
1BE
330
16A
100
AcDbEntity
  8
0
  6
CONTINUOUS
 62
     7
100
AcDbBlockReference
  2
SW_CENTERMARKSYMBOL_1
 10
375.5055118110237
 20
188.5708661417322
 30
0.0
  0
INSERT
  5
1CA
330
16A
100
AcDbEntity
  8
0
  6
CONTINUOUS
 62
     7
100
AcDbBlockReference
  2
SW_CENTERMARKSYMBOL_0
 10
266.5055118110236
 20
272.5708661417322
 30
0.0
  0
LINE
  5
1CB
330
16A
100
AcDbEntity
  8
0
  6
BYBLOCK
 62
     0
100
AcDbLine
 10
261.0055138290402
 20
268.0708672039287
 30
0.0
 11
261.0055138290402
 21
193.0708679489867
 31
0.0
  0
LINE
  5
1CC
330
16A
100
AcDbEntity
  8
0
  6
BYBLOCK
 62
     0
100
AcDbLine
 10
271.0055117428776
 20
183.070866309859
 30
0.0
 11
371.0055113703485
 21
183.070866309859
 31
0.0
  0
LINE
  5
1CD
330
16A
100
AcDbEntity
  8
0
  6
BYBLOCK
 62
     0
100
AcDbLine
 10
381.0055111468311
 20
193.0708679489867
 30
0.0
 11
381.0055111468311
 21
268.0708672039287
 31
0.0
  0
LINE
  5
1CE
330
16A
100
AcDbEntity
  8
0
  6
BYBLOCK
 62
     0
100
AcDbLine
 10
371.0055113703485
 20
278.0708651177661
 30
0.0
 11
271.0055117428776
 21
278.0708651177661
 31
0.0
  0
CIRCLE
  5
1CF
330
16A
100
AcDbEntity
  8
0
  6
BYBLOCK
 62
     0
100
AcDbCircle
 10
331.0055118110237
 20
250.5708661417322
 30
0.0
 40
1.099999999999966
  0
CIRCLE
  5
1D0
330
16A
100
AcDbEntity
  8
0
  6
BYBLOCK
 62
     0
100
AcDbCircle
 10
301.0055118110237
 20
240.5708661417322
 30
0.0
 40
1.099999999999966
  0
CIRCLE
  5
1D1
330
16A
100
AcDbEntity
  8
0
  6
BYBLOCK
 62
     0
100
AcDbCircle
 10
311.0055118110237
 20
210.5708661417322
 30
0.0
 40
1.099999999999966
  0
CIRCLE
  5
1D2
330
16A
100
AcDbEntity
  8
0
  6
BYBLOCK
 62
     0
100
AcDbCircle
 10
341.0055118110237
 20
220.5708661417322
 30
0.0
 40
1.100000000000023
  0
CIRCLE
  5
1D3
330
16A
100
AcDbEntity
  8
0
  6
BYBLOCK
 62
     0
100
AcDbCircle
 10
375.5055118110237
 20
272.5708661417322
 30
0.0
 40
1.5
  0
CIRCLE
  5
1D4
330
16A
100
AcDbEntity
  8
0
  6
BYBLOCK
 62
     0
100
AcDbCircle
 10
266.5055118110236
 20
188.5708661417322
 30
0.0
 40
1.500000000000057
  0
CIRCLE
  5
1D5
330
16A
100
AcDbEntity
  8
0
  6
BYBLOCK
 62
     0
100
AcDbCircle
 10
375.5055118110237
 20
188.5708661417322
 30
0.0
 40
1.5
  0
CIRCLE
  5
1D6
330
16A
100
AcDbEntity
  8
0
  6
BYBLOCK
 62
     0
100
AcDbCircle
 10
266.5055118110236
 20
272.5708661417322
 30
0.0
 40
1.500000000000057
  0
ARC
  5
1D7
330
16A
100
AcDbEntity
  8
0
  6
BYBLOCK
 62
     0
100
AcDbCircle
 10
271.0055118110236
 20
193.0708661417322
 30
0.0
 40
9.999999999999972
100
AcDbArc
 50
179.9999999999998
 51
270.000000000001
  0
ARC
  5
1D8
330
16A
100
AcDbEntity
  8
0
  6
BYBLOCK
 62
     0
100
AcDbCircle
 10
371.0055118110237
 20
193.0708661417322
 30
0.0
 40
10.0
100
AcDbArc
 50
270.0000000000007
 51
359.9999999999998
  0
ARC
  5
1D9
330
16A
100
AcDbEntity
  8
0
  6
BYBLOCK
 62
     0
100
AcDbCircle
 10
371.0055118110237
 20
268.0708661417322
 30
0.0
 40
10.0
100
AcDbArc
 50
0.0
 51
90.0
  0
ARC
  5
1DA
330
16A
100
AcDbEntity
  8
0
  6
BYBLOCK
 62
     0
100
AcDbCircle
 10
271.0055118110236
 20
268.0708661417322
 30
0.0
 40
10.0
100
AcDbArc
 50
90.0
 51
180.0
  0
MTEXT
  5
1DB
330
16A
100
AcDbEntity
  8
0
  6
BYBLOCK
 62
     0
100
AcDbMText
 10
538.8984179212961
 20
23.60691096725083
 30
0.0
 40
6.35
 41
49.84367469879518
 71
     2
 72
     1
  1
\fArial;Nesting top
1001
ACAD
1000
MTEXTBEGIN
1070
    73
1070
     2
1070
    44
1040
0.9638554216867471
1000
MTEXTEND
1000
ACAD_MTEXT_DEFINED_HEIGHT_BEGIN
1070
    46
1040
8.186144578313254
1000
ACAD_MTEXT_DEFINED_HEIGHT_END
  0
MTEXT
  5
1DC
330
16A
100
AcDbEntity
  8
0
  6
BYBLOCK
 62
     0
100
AcDbMText
 10
459.6178111281214
 20
12.94931190358807
 30
0.0
 40
1.4986
 41
9.000627710843373
 71
     1
 72
     1
  1
\fArial;MASSE:
1001
ACAD
1000
MTEXTBEGIN
1070
    73
1070
     2
1070
    44
1040
0.9638554216867471
1000
MTEXTEND
1000
ACAD_MTEXT_DEFINED_HEIGHT_BEGIN
1070
    46
1040
1.552766265060241
1000
ACAD_MTEXT_DEFINED_HEIGHT_END
  0
MTEXT
  5
1DD
330
16A
100
AcDbEntity
  8
0
  6
BYBLOCK
 62
     0
100
AcDbMText
 10
574.8711564346464
 20
24.40638856899682
 30
0.0
 40
2.910416666666666
 41
7.626694277108431
 71
     1
 72
     1
  1
\fArial;A2
1001
ACAD
1000
MTEXTBEGIN
1070
    73
1070
     2
1070
    44
1040
0.963855421686747
1000
MTEXTEND
1000
ACAD_MTEXT_DEFINED_HEIGHT_BEGIN
1070
    46
1040
2.927949297188754
1000
ACAD_MTEXT_DEFINED_HEIGHT_END
  0
MTEXT
  5
1DE
330
16A
100
AcDbEntity
  8
0
  6
BYBLOCK
 62
     0
100
AcDbMText
 10
548.478294427816
 20
12.90008727453221
 30
0.0
 40
1.5
 41
17.81024096385542
 71
     1
 72
     1
  1
\fArial;FEUILLE 1 SUR 1
1001
ACAD
1000
MTEXTBEGIN
1070
    73
1070
     2
1070
    44
1040
0.9638554216867472
1000
MTEXTEND
1000
ACAD_MTEXT_DEFINED_HEIGHT_BEGIN
1070
    46
1040
1.55421686746988
1000
ACAD_MTEXT_DEFINED_HEIGHT_END
  0
MTEXT
  5
1DF
330
16A
100
AcDbEntity
  8
0
  6
BYBLOCK
 62
     0
100
AcDbMText
 10
504.0739661174922
 20
12.90008727453224
 30
0.0
 40
1.5
 41
13.88855421686747
 71
     1
 72
     1
  1
\fArial;ECHELLE:2:1
1001
ACAD
1000
MTEXTBEGIN
1070
    73
1070
     2
1070
    44
1040
0.9638554216867472
1000
MTEXTEND
1000
ACAD_MTEXT_DEFINED_HEIGHT_BEGIN
1070
    46
1040
1.55421686746988
1000
ACAD_MTEXT_DEFINED_HEIGHT_END
  0
MTEXT
  5
1E0
330
16A
100
AcDbEntity
  8
0
  6
BYBLOCK
 62
     0
100
AcDbMText
 10
503.6307371313777
 20
25.98605628924531
 30
0.0
 40
1.5
 41
13.86144578313253
 71
     1
 72
     1
  1
\fArial;No. DE PLAN
1001
ACAD
1000
MTEXTBEGIN
1070
    73
1070
     2
1070
    44
1040
0.9638554216867472
1000
MTEXTEND
1000
ACAD_MTEXT_DEFINED_HEIGHT_BEGIN
1070
    46
1040
1.518072289156627
1000
ACAD_MTEXT_DEFINED_HEIGHT_END
  0
MTEXT
  5
1E1
330
16A
100
AcDbEntity
  8
0
  6
BYBLOCK
 62
     0
100
AcDbMText
 10
504.0282962789189
 20
46.57617922121972
 30
0.0
 40
1.5
 41
7.825301204819277
 71
     1
 72
     1
  1
\fArial;TITRE:
1001
ACAD
1000
MTEXTBEGIN
1070
    73
1070
     2
1070
    44
1040
0.9638554216867472
1000
MTEXTEND
1000
ACAD_MTEXT_DEFINED_HEIGHT_BEGIN
1070
    46
1040
1.5
1000
ACAD_MTEXT_DEFINED_HEIGHT_END
  0
MTEXT
  5
1E2
330
16A
100
AcDbEntity
  8
0
  6
BYBLOCK
 62
     0
100
AcDbMText
 10
557.3275816993463
 20
62.33490868045675
 30
0.0
 40
1.5
 41
11.08734939759036
 71
     1
 72
     1
  1
\fArial;REVISION
1001
ACAD
1000
MTEXTBEGIN
1070
    73
1070
     2
1070
    44
1040
0.9638554216867472
1000
MTEXTEND
1000
ACAD_MTEXT_DEFINED_HEIGHT_BEGIN
1070
    46
1040
1.55421686746988
1000
ACAD_MTEXT_DEFINED_HEIGHT_END
  0
MTEXT
  5
1E3
330
16A
100
AcDbEntity
  8
0
  6
BYBLOCK
 62
     0
100
AcDbMText
 10
516.6146405228759
 20
62.53299357505438
 30
0.0
 40
1.5
 41
31.39156626506024
 71
     1
 72
     1
  1
\fArial;NE PAS CHANGER L'ECHELLE
1001
ACAD
1000
MTEXTBEGIN
1070
    73
1070
     2
1070
    44
1040
0.9638554216867472
1000
MTEXTEND
1000
ACAD_MTEXT_DEFINED_HEIGHT_BEGIN
1070
    46
1040
1.55421686746988
1000
ACAD_MTEXT_DEFINED_HEIGHT_END
  0
MTEXT
  5
1E4
330
16A
100
AcDbEntity
  8
0
  6
BYBLOCK
 62
     0
100
AcDbMText
 10
459.645862308762
 20
25.98605628924531
 30
0.0
 40
1.5
 41
12.46987951807229
 71
     1
 72
     1
  1
\fArial;MATERIAU:
1001
ACAD
1000
MTEXTBEGIN
1070
    73
1070
     2
1070
    44
1040
0.9638554216867472
1000
MTEXTEND
1000
ACAD_MTEXT_DEFINED_HEIGHT_BEGIN
1070
    46
1040
1.52710843373494
1000
ACAD_MTEXT_DEFINED_HEIGHT_END
  0
MTEXT
  5
1E5
330
16A
100
AcDbEntity
  8
0
  6
BYBLOCK
 62
     0
100
AcDbMText
 10
451.2147019657192
 20
46.57617922121972
 30
0.0
 40
1.5
 41
6.759036144578313
 71
     1
 72
     1
  1
\fArial;DATE
1001
ACAD
1000
MTEXTBEGIN
1070
    73
1070
     2
1070
    44
1040
0.9638554216867472
1000
MTEXTEND
1000
ACAD_MTEXT_DEFINED_HEIGHT_BEGIN
1070
    46
1040
1.5
1000
ACAD_MTEXT_DEFINED_HEIGHT_END
  0
MTEXT
  5
1E6
330
16A
100
AcDbEntity
  8
0
  6
BYBLOCK
 62
     0
100
AcDbMText
 10
434.0335875631769
 20
46.56175637954664
 30
0.0
 40
1.5
 41
13.40963855421687
 71
     1
 72
     1
  1
\fArial;SIGNATURE
1001
ACAD
1000
MTEXTBEGIN
1070
    73
1070
     2
1070
    44
1040
0.9638554216867472
1000
MTEXTEND
1000
ACAD_MTEXT_DEFINED_HEIGHT_BEGIN
1070
    46
1040
1.55421686746988
1000
ACAD_MTEXT_DEFINED_HEIGHT_END
  0
MTEXT
  5
1E7
330
16A
100
AcDbEntity
  8
0
  6
BYBLOCK
 62
     0
100
AcDbMText
 10
418.3222392176832
 20
46.50148263347074
 30
0.0
 40
1.5
 41
6.036144578313253
 71
     1
 72
     1
  1
\fArial;NOM
1001
ACAD
1000
MTEXTBEGIN
1070
    73
1070
     2
1070
    44
1040
0.9638554216867472
1000
MTEXTEND
1000
ACAD_MTEXT_DEFINED_HEIGHT_BEGIN
1070
    46
1040
1.55421686746988
1000
ACAD_MTEXT_DEFINED_HEIGHT_END
  0
INSERT
  5
1ED
330
16A
100
AcDbEntity
  8
0
  6
CONTINUOUS
 62
     7
100
AcDbBlockReference
  2
SW_NOTE_1
 10
485.3092156862746
 20
62.06948964302882
 30
0.0
  0
MTEXT
  5
1EE
330
16A
100
AcDbEntity
  8
0
  6
BYBLOCK
 62
     0
100
AcDbMText
 10
438.3712921668304
 20
63.91927199513623
 30
0.0
 40
1.5
 41
10.59939759036144
 71
     1
 72
     1
  1
\fArial;FINITION:
1001
ACAD
1000
MTEXTBEGIN
1070
    73
1070
     2
1070
    44
1040
0.9638554216867472
1000
MTEXTEND
1000
ACAD_MTEXT_DEFINED_HEIGHT_BEGIN
1070
    46
1040
1.55421686746988
1000
ACAD_MTEXT_DEFINED_HEIGHT_END
  0
INSERT
  5
1F8
330
16A
100
AcDbEntity
  8
0
  6
CONTINUOUS
 62
     7
100
AcDbBlockReference
  2
SW_NOTE_0
 10
404.5936687456393
 20
61.98736987427895
 30
0.0
  0
MTEXT
  5
1F9
330
16A
100
AcDbEntity
  8
0
  6
BYBLOCK
 62
     0
100
AcDbMText
 10
404.6690428621802
 20
25.34964920730684
 30
0.0
 40
1.5
 41
7.445783132530121
 71
     1
 72
     1
  1
\fArial;QUAL.
1001
ACAD
1000
MTEXTBEGIN
1070
    73
1070
     2
1070
    44
1040
0.9638554216867472
1000
MTEXTEND
1000
ACAD_MTEXT_DEFINED_HEIGHT_BEGIN
1070
    46
1040
1.644578313253012
1000
ACAD_MTEXT_DEFINED_HEIGHT_END
  0
MTEXT
  5
1FA
330
16A
100
AcDbEntity
  8
0
  6
BYBLOCK
 62
     0
100
AcDbMText
 10
404.4551864990927
 20
29.73370465059662
 30
0.0
 40
1.5
 41
5.746987951807228
 71
     1
 72
     1
  1
\fArial;FAB.
1001
ACAD
1000
MTEXTBEGIN
1070
    73
1070
     2
1070
    44
1040
0.9638554216867472
1000
MTEXTEND
1000
ACAD_MTEXT_DEFINED_HEIGHT_BEGIN
1070
    46
1040
1.5
1000
ACAD_MTEXT_DEFINED_HEIGHT_END
  0
MTEXT
  5
1FB
330
16A
100
AcDbEntity
  8
0
  6
BYBLOCK
 62
     0
100
AcDbMText
 10
404.401722408321
 20
34.06429600311458
 30
0.0
 40
1.5
 41
7.536144578313253
 71
     1
 72
     1
  1
\fArial;APPR.
1001
ACAD
1000
MTEXTBEGIN
1070
    73
1070
     2
1070
    44
1040
0.9638554216867472
1000
MTEXTEND
1000
ACAD_MTEXT_DEFINED_HEIGHT_BEGIN
1070
    46
1040
1.5
1000
ACAD_MTEXT_DEFINED_HEIGHT_END
  0
MTEXT
  5
1FC
330
16A
100
AcDbEntity
  8
0
  6
BYBLOCK
 62
     0
100
AcDbMText
 10
404.4104688676169
 20
38.15440715998795
 30
0.0
 40
1.5
 41
7.969879518072289
 71
     1
 72
     1
  1
\fArial;VERIF.
1001
ACAD
1000
MTEXTBEGIN
1070
    73
1070
     2
1070
    44
1040
0.9638554216867472
1000
MTEXTEND
1000
ACAD_MTEXT_DEFINED_HEIGHT_BEGIN
1070
    46
1040
1.5
1000
ACAD_MTEXT_DEFINED_HEIGHT_END
  0
MTEXT
  5
1FD
330
16A
100
AcDbEntity
  8
0
  6
BYBLOCK
 62
     0
100
AcDbMText
 10
404.2121492440884
 20
42.42971488591166
 30
0.0
 40
1.5
 41
10.00301204819277
 71
     1
 72
     1
  1
\fArial;AUTEUR
1001
ACAD
1000
MTEXTBEGIN
1070
    73
1070
     2
1070
    44
1040
0.9638554216867472
1000
MTEXTEND
1000
ACAD_MTEXT_DEFINED_HEIGHT_BEGIN
1070
    46
1040
1.52710843373494
1000
ACAD_MTEXT_DEFINED_HEIGHT_END
  0
MTEXT
  5
1FE
330
16A
100
AcDbEntity
  8
0
  6
BYBLOCK
 62
     0
100
AcDbMText
 10
567.9600369464607
 20
414.9832802942457
 30
0.0
 40
3.968749999999999
 41
5.451054216867469
 71
     2
 72
     1
  1
\fArial;1
1001
ACAD
1000
MTEXTBEGIN
1070
    73
1070
     2
1070
    44
1040
0.9638554216867471
1000
MTEXTEND
1000
ACAD_MTEXT_DEFINED_HEIGHT_BEGIN
1070
    46
1040
3.99265813253012
1000
ACAD_MTEXT_DEFINED_HEIGHT_END
  0
MTEXT
  5
1FF
330
16A
100
AcDbEntity
  8
0
  6
BYBLOCK
 62
     0
100
AcDbMText
 10
567.9600369464607
 20
9.983280294245759
 30
0.0
 40
3.968749999999999
 41
5.451054216867469
 71
     2
 72
     1
  1
\fArial;1
1001
ACAD
1000
MTEXTBEGIN
1070
    73
1070
     2
1070
    44
1040
0.9638554216867471
1000
MTEXTEND
1000
ACAD_MTEXT_DEFINED_HEIGHT_BEGIN
1070
    46
1040
3.99265813253012
1000
ACAD_MTEXT_DEFINED_HEIGHT_END
  0
MTEXT
  5
200
330
16A
100
AcDbEntity
  8
0
  6
BYBLOCK
 62
     0
100
AcDbMText
 10
526.9600369464607
 20
414.9832802942458
 30
0.0
 40
3.968749999999999
 41
6.574736445783131
 71
     2
 72
     1
  1
\fArial;2
1001
ACAD
1000
MTEXTBEGIN
1070
    73
1070
     2
1070
    44
1040
0.9638554216867471
1000
MTEXTEND
1000
ACAD_MTEXT_DEFINED_HEIGHT_BEGIN
1070
    46
1040
3.99265813253012
1000
ACAD_MTEXT_DEFINED_HEIGHT_END
  0
MTEXT
  5
201
330
16A
100
AcDbEntity
  8
0
  6
BYBLOCK
 62
     0
100
AcDbMText
 10
526.9600369464607
 20
9.983280294245759
 30
0.0
 40
3.968749999999999
 41
6.574736445783131
 71
     2
 72
     1
  1
\fArial;2
1001
ACAD
1000
MTEXTBEGIN
1070
    73
1070
     2
1070
    44
1040
0.9638554216867471
1000
MTEXTEND
1000
ACAD_MTEXT_DEFINED_HEIGHT_BEGIN
1070
    46
1040
3.99265813253012
1000
ACAD_MTEXT_DEFINED_HEIGHT_END
  0
MTEXT
  5
202
330
16A
100
AcDbEntity
  8
0
  6
BYBLOCK
 62
     0
100
AcDbMText
 10
476.9600369464607
 20
414.9832802942457
 30
0.0
 40
3.968749999999999
 41
6.574736445783131
 71
     2
 72
     1
  1
\fArial;3
1001
ACAD
1000
MTEXTBEGIN
1070
    73
1070
     2
1070
    44
1040
0.9638554216867471
1000
MTEXTEND
1000
ACAD_MTEXT_DEFINED_HEIGHT_BEGIN
1070
    46
1040
4.064382530120481
1000
ACAD_MTEXT_DEFINED_HEIGHT_END
  0
MTEXT
  5
203
330
16A
100
AcDbEntity
  8
0
  6
BYBLOCK
 62
     0
100
AcDbMText
 10
476.9600369464607
 20
9.983280294245759
 30
0.0
 40
3.968749999999999
 41
6.574736445783131
 71
     2
 72
     1
  1
\fArial;3
1001
ACAD
1000
MTEXTBEGIN
1070
    73
1070
     2
1070
    44
1040
0.9638554216867471
1000
MTEXTEND
1000
ACAD_MTEXT_DEFINED_HEIGHT_BEGIN
1070
    46
1040
4.064382530120481
1000
ACAD_MTEXT_DEFINED_HEIGHT_END
  0
MTEXT
  5
204
330
16A
100
AcDbEntity
  8
0
  6
BYBLOCK
 62
     0
100
AcDbMText
 10
426.9600369464607
 20
414.9832802942458
 30
0.0
 40
3.968749999999999
 41
6.742093373493974
 71
     2
 72
     1
  1
\fArial;4
1001
ACAD
1000
MTEXTBEGIN
1070
    73
1070
     2
1070
    44
1040
0.9638554216867471
1000
MTEXTEND
1000
ACAD_MTEXT_DEFINED_HEIGHT_BEGIN
1070
    46
1040
3.968749999999999
1000
ACAD_MTEXT_DEFINED_HEIGHT_END
  0
MTEXT
  5
205
330
16A
100
AcDbEntity
  8
0
  6
BYBLOCK
 62
     0
100
AcDbMText
 10
426.9600369464607
 20
9.983280294245759
 30
0.0
 40
3.968749999999999
 41
6.742093373493974
 71
     2
 72
     1
  1
\fArial;4
1001
ACAD
1000
MTEXTBEGIN
1070
    73
1070
     2
1070
    44
1040
0.9638554216867471
1000
MTEXTEND
1000
ACAD_MTEXT_DEFINED_HEIGHT_BEGIN
1070
    46
1040
3.968749999999999
1000
ACAD_MTEXT_DEFINED_HEIGHT_END
  0
MTEXT
  5
206
330
16A
100
AcDbEntity
  8
0
  6
BYBLOCK
 62
     0
100
AcDbMText
 10
376.9600369464607
 20
414.9832802942458
 30
0.0
 40
3.968749999999999
 41
6.574736445783131
 71
     2
 72
     1
  1
\fArial;5
1001
ACAD
1000
MTEXTBEGIN
1070
    73
1070
     2
1070
    44
1040
0.9638554216867471
1000
MTEXTEND
1000
ACAD_MTEXT_DEFINED_HEIGHT_BEGIN
1070
    46
1040
3.992658132530119
1000
ACAD_MTEXT_DEFINED_HEIGHT_END
  0
MTEXT
  5
207
330
16A
100
AcDbEntity
  8
0
  6
BYBLOCK
 62
     0
100
AcDbMText
 10
376.9600369464607
 20
9.983280294245759
 30
0.0
 40
3.968749999999999
 41
6.574736445783131
 71
     2
 72
     1
  1
\fArial;5
1001
ACAD
1000
MTEXTBEGIN
1070
    73
1070
     2
1070
    44
1040
0.9638554216867471
1000
MTEXTEND
1000
ACAD_MTEXT_DEFINED_HEIGHT_BEGIN
1070
    46
1040
3.992658132530119
1000
ACAD_MTEXT_DEFINED_HEIGHT_END
  0
MTEXT
  5
208
330
16A
100
AcDbEntity
  8
0
  6
BYBLOCK
 62
     0
100
AcDbMText
 10
326.9600369464607
 20
414.9832802942457
 30
0.0
 40
3.968749999999999
 41
6.598644578313252
 71
     2
 72
     1
  1
\fArial;6
1001
ACAD
1000
MTEXTBEGIN
1070
    73
1070
     2
1070
    44
1040
0.9638554216867471
1000
MTEXTEND
1000
ACAD_MTEXT_DEFINED_HEIGHT_BEGIN
1070
    46
1040
4.064382530120481
1000
ACAD_MTEXT_DEFINED_HEIGHT_END
  0
MTEXT
  5
209
330
16A
100
AcDbEntity
  8
0
  6
BYBLOCK
 62
     0
100
AcDbMText
 10
326.9600369464607
 20
9.983280294245759
 30
0.0
 40
3.968749999999999
 41
6.598644578313252
 71
     2
 72
     1
  1
\fArial;6
1001
ACAD
1000
MTEXTBEGIN
1070
    73
1070
     2
1070
    44
1040
0.9638554216867471
1000
MTEXTEND
1000
ACAD_MTEXT_DEFINED_HEIGHT_BEGIN
1070
    46
1040
4.064382530120481
1000
ACAD_MTEXT_DEFINED_HEIGHT_END
  0
MTEXT
  5
20A
330
16A
100
AcDbEntity
  8
0
  6
BYBLOCK
 62
     0
100
AcDbMText
 10
276.9600369464607
 20
414.9832802942458
 30
0.0
 40
3.968749999999999
 41
6.55082831325301
 71
     2
 72
     1
  1
\fArial;7
1001
ACAD
1000
MTEXTBEGIN
1070
    73
1070
     2
1070
    44
1040
0.9638554216867471
1000
MTEXTEND
1000
ACAD_MTEXT_DEFINED_HEIGHT_BEGIN
1070
    46
1040
3.920933734939758
1000
ACAD_MTEXT_DEFINED_HEIGHT_END
  0
MTEXT
  5
20B
330
16A
100
AcDbEntity
  8
0
  6
BYBLOCK
 62
     0
100
AcDbMText
 10
276.9600369464607
 20
9.983280294245759
 30
0.0
 40
3.968749999999999
 41
6.55082831325301
 71
     2
 72
     1
  1
\fArial;7
1001
ACAD
1000
MTEXTBEGIN
1070
    73
1070
     2
1070
    44
1040
0.9638554216867471
1000
MTEXTEND
1000
ACAD_MTEXT_DEFINED_HEIGHT_BEGIN
1070
    46
1040
3.920933734939758
1000
ACAD_MTEXT_DEFINED_HEIGHT_END
  0
MTEXT
  5
20C
330
16A
100
AcDbEntity
  8
0
  6
BYBLOCK
 62
     0
100
AcDbMText
 10
226.9600369464605
 20
414.9832802942457
 30
0.0
 40
3.968749999999999
 41
6.55082831325301
 71
     2
 72
     1
  1
\fArial;8
1001
ACAD
1000
MTEXTBEGIN
1070
    73
1070
     2
1070
    44
1040
0.9638554216867471
1000
MTEXTEND
1000
ACAD_MTEXT_DEFINED_HEIGHT_BEGIN
1070
    46
1040
4.064382530120481
1000
ACAD_MTEXT_DEFINED_HEIGHT_END
  0
MTEXT
  5
20D
330
16A
100
AcDbEntity
  8
0
  6
BYBLOCK
 62
     0
100
AcDbMText
 10
226.9600369464606
 20
9.983280294245759
 30
0.0
 40
3.968749999999999
 41
6.55082831325301
 71
     2
 72
     1
  1
\fArial;8
1001
ACAD
1000
MTEXTBEGIN
1070
    73
1070
     2
1070
    44
1040
0.9638554216867471
1000
MTEXTEND
1000
ACAD_MTEXT_DEFINED_HEIGHT_BEGIN
1070
    46
1040
4.064382530120481
1000
ACAD_MTEXT_DEFINED_HEIGHT_END
  0
MTEXT
  5
20E
330
16A
100
AcDbEntity
  8
0
  6
BYBLOCK
 62
     0
100
AcDbMText
 10
176.9600369464606
 20
414.9832802942458
 30
0.0
 40
3.968749999999999
 41
6.574736445783131
 71
     2
 72
     1
  1
\fArial;9
1001
ACAD
1000
MTEXTBEGIN
1070
    73
1070
     2
1070
    44
1040
0.9638554216867471
1000
MTEXTEND
1000
ACAD_MTEXT_DEFINED_HEIGHT_BEGIN
1070
    46
1040
4.064382530120481
1000
ACAD_MTEXT_DEFINED_HEIGHT_END
  0
MTEXT
  5
20F
330
16A
100
AcDbEntity
  8
0
  6
BYBLOCK
 62
     0
100
AcDbMText
 10
176.9600369464606
 20
9.983280294245759
 30
0.0
 40
3.968749999999999
 41
6.574736445783131
 71
     2
 72
     1
  1
\fArial;9
1001
ACAD
1000
MTEXTBEGIN
1070
    73
1070
     2
1070
    44
1040
0.9638554216867471
1000
MTEXTEND
1000
ACAD_MTEXT_DEFINED_HEIGHT_BEGIN
1070
    46
1040
4.064382530120481
1000
ACAD_MTEXT_DEFINED_HEIGHT_END
  0
MTEXT
  5
210
330
16A
100
AcDbEntity
  8
0
  6
BYBLOCK
 62
     0
100
AcDbMText
 10
126.9200738929212
 20
414.9832802942456
 30
0.0
 40
3.968749999999999
 41
9.276355421686745
 71
     2
 72
     1
  1
\fArial;10
1001
ACAD
1000
MTEXTBEGIN
1070
    73
1070
     2
1070
    44
1040
0.9638554216867471
1000
MTEXTEND
1000
ACAD_MTEXT_DEFINED_HEIGHT_BEGIN
1070
    46
1040
4.064382530120481
1000
ACAD_MTEXT_DEFINED_HEIGHT_END
  0
MTEXT
  5
211
330
16A
100
AcDbEntity
  8
0
  6
BYBLOCK
 62
     0
100
AcDbMText
 10
126.9200738929212
 20
9.983280294245759
 30
0.0
 40
3.968749999999999
 41
9.276355421686745
 71
     2
 72
     1
  1
\fArial;10
1001
ACAD
1000
MTEXTBEGIN
1070
    73
1070
     2
1070
    44
1040
0.9638554216867471
1000
MTEXTEND
1000
ACAD_MTEXT_DEFINED_HEIGHT_BEGIN
1070
    46
1040
4.064382530120481
1000
ACAD_MTEXT_DEFINED_HEIGHT_END
  0
MTEXT
  5
212
330
16A
100
AcDbEntity
  8
0
  6
BYBLOCK
 62
     0
100
AcDbMText
 10
76.92007389292121
 20
414.9832802942458
 30
0.0
 40
3.968749999999999
 41
8.51129518072289
 71
     2
 72
     1
  1
\fArial;11
1001
ACAD
1000
MTEXTBEGIN
1070
    73
1070
     2
1070
    44
1040
0.9638554216867471
1000
MTEXTEND
1000
ACAD_MTEXT_DEFINED_HEIGHT_BEGIN
1070
    46
1040
3.99265813253012
1000
ACAD_MTEXT_DEFINED_HEIGHT_END
  0
MTEXT
  5
213
330
16A
100
AcDbEntity
  8
0
  6
BYBLOCK
 62
     0
100
AcDbMText
 10
76.92007389292121
 20
9.983280294245759
 30
0.0
 40
3.968749999999999
 41
8.51129518072289
 71
     2
 72
     1
  1
\fArial;11
1001
ACAD
1000
MTEXTBEGIN
1070
    73
1070
     2
1070
    44
1040
0.9638554216867471
1000
MTEXTEND
1000
ACAD_MTEXT_DEFINED_HEIGHT_BEGIN
1070
    46
1040
3.99265813253012
1000
ACAD_MTEXT_DEFINED_HEIGHT_END
  0
MTEXT
  5
214
330
16A
100
AcDbEntity
  8
0
  6
BYBLOCK
 62
     0
100
AcDbMText
 10
35.92007389292121
 20
414.9832802942457
 30
0.0
 40
3.968749999999999
 41
9.204631024096383
 71
     2
 72
     1
  1
\fArial;12
1001
ACAD
1000
MTEXTBEGIN
1070
    73
1070
     2
1070
    44
1040
0.9638554216867471
1000
MTEXTEND
1000
ACAD_MTEXT_DEFINED_HEIGHT_BEGIN
1070
    46
1040
3.99265813253012
1000
ACAD_MTEXT_DEFINED_HEIGHT_END
  0
MTEXT
  5
215
330
16A
100
AcDbEntity
  8
0
  6
BYBLOCK
 62
     0
100
AcDbMText
 10
35.92007389292121
 20
9.983280294245759
 30
0.0
 40
3.968749999999999
 41
9.204631024096383
 71
     2
 72
     1
  1
\fArial;12
1001
ACAD
1000
MTEXTBEGIN
1070
    73
1070
     2
1070
    44
1040
0.9638554216867471
1000
MTEXTEND
1000
ACAD_MTEXT_DEFINED_HEIGHT_BEGIN
1070
    46
1040
3.99265813253012
1000
ACAD_MTEXT_DEFINED_HEIGHT_END
  0
MTEXT
  5
216
330
16A
100
AcDbEntity
  8
0
  6
BYBLOCK
 62
     0
100
AcDbMText
 10
586.4903537835927
 20
387.4832802942458
 30
0.0
 40
3.968749999999999
 41
7.05289909638554
 71
     2
 72
     1
  1
\fArial;H
1001
ACAD
1000
MTEXTBEGIN
1070
    73
1070
     2
1070
    44
1040
0.9638554216867471
1000
MTEXTEND
1000
ACAD_MTEXT_DEFINED_HEIGHT_BEGIN
1070
    46
1040
3.968749999999999
1000
ACAD_MTEXT_DEFINED_HEIGHT_END
  0
MTEXT
  5
217
330
16A
100
AcDbEntity
  8
0
  6
BYBLOCK
 62
     0
100
AcDbMText
 10
17.49035378359258
 20
387.4832802942458
 30
0.0
 40
3.968749999999999
 41
7.05289909638554
 71
     2
 72
     1
  1
\fArial;H
1001
ACAD
1000
MTEXTBEGIN
1070
    73
1070
     2
1070
    44
1040
0.9638554216867471
1000
MTEXTEND
1000
ACAD_MTEXT_DEFINED_HEIGHT_BEGIN
1070
    46
1040
3.968749999999999
1000
ACAD_MTEXT_DEFINED_HEIGHT_END
  0
MTEXT
  5
218
330
16A
100
AcDbEntity
  8
0
  6
BYBLOCK
 62
     0
100
AcDbMText
 10
586.4866788852961
 20
337.4832802942457
 30
0.0
 40
3.968749999999999
 41
7.674510542168673
 71
     2
 72
     1
  1
\fArial;G
1001
ACAD
1000
MTEXTBEGIN
1070
    73
1070
     2
1070
    44
1040
0.9638554216867471
1000
MTEXTEND
1000
ACAD_MTEXT_DEFINED_HEIGHT_BEGIN
1070
    46
1040
4.112198795180722
1000
ACAD_MTEXT_DEFINED_HEIGHT_END
  0
MTEXT
  5
219
330
16A
100
AcDbEntity
  8
0
  6
BYBLOCK
 62
     0
100
AcDbMText
 10
17.48667888529599
 20
337.4832802942457
 30
0.0
 40
3.968749999999999
 41
7.674510542168673
 71
     2
 72
     1
  1
\fArial;G
1001
ACAD
1000
MTEXTBEGIN
1070
    73
1070
     2
1070
    44
1040
0.9638554216867471
1000
MTEXTEND
1000
ACAD_MTEXT_DEFINED_HEIGHT_BEGIN
1070
    46
1040
4.112198795180722
1000
ACAD_MTEXT_DEFINED_HEIGHT_END
  0
MTEXT
  5
21A
330
16A
100
AcDbEntity
  8
0
  6
BYBLOCK
 62
     0
100
AcDbMText
 10
586.4577402090653
 20
287.4832802942458
 30
0.0
 40
3.968749999999999
 41
6.646460843373493
 71
     2
 72
     1
  1
\fArial;F
1001
ACAD
1000
MTEXTBEGIN
1070
    73
1070
     2
1070
    44
1040
0.9638554216867471
1000
MTEXTEND
1000
ACAD_MTEXT_DEFINED_HEIGHT_BEGIN
1070
    46
1040
3.968749999999999
1000
ACAD_MTEXT_DEFINED_HEIGHT_END
  0
MTEXT
  5
21B
330
16A
100
AcDbEntity
  8
0
  6
BYBLOCK
 62
     0
100
AcDbMText
 10
17.45774020906538
 20
287.4832802942458
 30
0.0
 40
3.968749999999999
 41
6.646460843373493
 71
     2
 72
     1
  1
\fArial;F
1001
ACAD
1000
MTEXTBEGIN
1070
    73
1070
     2
1070
    44
1040
0.9638554216867471
1000
MTEXTEND
1000
ACAD_MTEXT_DEFINED_HEIGHT_BEGIN
1070
    46
1040
3.968749999999999
1000
ACAD_MTEXT_DEFINED_HEIGHT_END
  0
MTEXT
  5
21C
330
16A
100
AcDbEntity
  8
0
  6
BYBLOCK
 62
     0
100
AcDbMText
 10
586.5078089050947
 20
237.4832802942457
 30
0.0
 40
3.968749999999999
 41
6.909450301204818
 71
     2
 72
     1
  1
\fArial;E
1001
ACAD
1000
MTEXTBEGIN
1070
    73
1070
     2
1070
    44
1040
0.9638554216867471
1000
MTEXTEND
1000
ACAD_MTEXT_DEFINED_HEIGHT_BEGIN
1070
    46
1040
3.968749999999999
1000
ACAD_MTEXT_DEFINED_HEIGHT_END
  0
MTEXT
  5
21D
330
16A
100
AcDbEntity
  8
0
  6
BYBLOCK
 62
     0
100
AcDbMText
 10
17.50780890509486
 20
237.4832802942457
 30
0.0
 40
3.968749999999999
 41
6.909450301204818
 71
     2
 72
     1
  1
\fArial;E
1001
ACAD
1000
MTEXTBEGIN
1070
    73
1070
     2
1070
    44
1040
0.9638554216867471
1000
MTEXTEND
1000
ACAD_MTEXT_DEFINED_HEIGHT_BEGIN
1070
    46
1040
3.968749999999999
1000
ACAD_MTEXT_DEFINED_HEIGHT_END
  0
MTEXT
  5
21E
330
16A
100
AcDbEntity
  8
0
  6
BYBLOCK
 62
     0
100
AcDbMText
 10
586.4526872821151
 20
187.4832802942457
 30
0.0
 40
3.968749999999999
 41
7.244164156626504
 71
     2
 72
     1
  1
\fArial;D
1001
ACAD
1000
MTEXTBEGIN
1070
    73
1070
     2
1070
    44
1040
0.9638554216867471
1000
MTEXTEND
1000
ACAD_MTEXT_DEFINED_HEIGHT_BEGIN
1070
    46
1040
3.968749999999999
1000
ACAD_MTEXT_DEFINED_HEIGHT_END
  0
MTEXT
  5
21F
330
16A
100
AcDbEntity
  8
0
  6
BYBLOCK
 62
     0
100
AcDbMText
 10
17.45268728211522
 20
187.4832802942457
 30
0.0
 40
3.968749999999999
 41
7.244164156626504
 71
     2
 72
     1
  1
\fArial;D
1001
ACAD
1000
MTEXTBEGIN
1070
    73
1070
     2
1070
    44
1040
0.9638554216867471
1000
MTEXTEND
1000
ACAD_MTEXT_DEFINED_HEIGHT_BEGIN
1070
    46
1040
3.968749999999999
1000
ACAD_MTEXT_DEFINED_HEIGHT_END
  0
MTEXT
  5
220
330
16A
100
AcDbEntity
  8
0
  6
BYBLOCK
 62
     0
100
AcDbMText
 10
586.4586589019744
 20
137.4832802942457
 30
0.0
 40
3.968749999999999
 41
7.483245481927709
 71
     2
 72
     1
  1
\fArial;C
1001
ACAD
1000
MTEXTBEGIN
1070
    73
1070
     2
1070
    44
1040
0.9638554216867471
1000
MTEXTEND
1000
ACAD_MTEXT_DEFINED_HEIGHT_BEGIN
1070
    46
1040
4.112198795180722
1000
ACAD_MTEXT_DEFINED_HEIGHT_END
  0
MTEXT
  5
221
330
16A
100
AcDbEntity
  8
0
  6
BYBLOCK
 62
     0
100
AcDbMText
 10
17.45865890197456
 20
137.4832802942457
 30
0.0
 40
3.968749999999999
 41
7.483245481927709
 71
     2
 72
     1
  1
\fArial;C
1001
ACAD
1000
MTEXTBEGIN
1070
    73
1070
     2
1070
    44
1040
0.9638554216867471
1000
MTEXTEND
1000
ACAD_MTEXT_DEFINED_HEIGHT_BEGIN
1070
    46
1040
4.112198795180722
1000
ACAD_MTEXT_DEFINED_HEIGHT_END
  0
MTEXT
  5
222
330
16A
100
AcDbEntity
  8
0
  6
BYBLOCK
 62
     0
100
AcDbMText
 10
586.4706018241121
 20
87.48328029424573
 30
0.0
 40
3.968749999999999
 41
6.981174698795179
 71
     2
 72
     1
  1
\fArial;B
1001
ACAD
1000
MTEXTBEGIN
1070
    73
1070
     2
1070
    44
1040
0.9638554216867471
1000
MTEXTEND
1000
ACAD_MTEXT_DEFINED_HEIGHT_BEGIN
1070
    46
1040
3.968749999999999
1000
ACAD_MTEXT_DEFINED_HEIGHT_END
  0
MTEXT
  5
223
330
16A
100
AcDbEntity
  8
0
  6
BYBLOCK
 62
     0
100
AcDbMText
 10
17.47060182411224
 20
87.48328029424573
 30
0.0
 40
3.968749999999999
 41
6.981174698795179
 71
     2
 72
     1
  1
\fArial;B
1001
ACAD
1000
MTEXTBEGIN
1070
    73
1070
     2
1070
    44
1040
0.9638554216867471
1000
MTEXTEND
1000
ACAD_MTEXT_DEFINED_HEIGHT_BEGIN
1070
    46
1040
3.968749999999999
1000
ACAD_MTEXT_DEFINED_HEIGHT_END
  0
MTEXT
  5
224
330
16A
100
AcDbEntity
  8
0
  6
BYBLOCK
 62
     0
100
AcDbMText
 10
586.3396881427615
 20
37.48328029424573
 30
0.0
 40
3.968749999999999
 41
7.626694277108432
 71
     2
 72
     1
  1
\fArial;A
1001
ACAD
1000
MTEXTBEGIN
1070
    73
1070
     2
1070
    44
1040
0.9638554216867471
1000
MTEXTEND
1000
ACAD_MTEXT_DEFINED_HEIGHT_BEGIN
1070
    46
1040
3.968749999999999
1000
ACAD_MTEXT_DEFINED_HEIGHT_END
  0
MTEXT
  5
225
330
16A
100
AcDbEntity
  8
0
  6
BYBLOCK
 62
     0
100
AcDbMText
 10
17.33968814276159
 20
37.48328029424573
 30
0.0
 40
3.968749999999999
 41
7.626694277108432
 71
     2
 72
     1
  1
\fArial;A
1001
ACAD
1000
MTEXTBEGIN
1070
    73
1070
     2
1070
    44
1040
0.9638554216867471
1000
MTEXTEND
1000
ACAD_MTEXT_DEFINED_HEIGHT_BEGIN
1070
    46
1040
3.968749999999999
1000
ACAD_MTEXT_DEFINED_HEIGHT_END
  0
LINE
  5
226
330
16A
100
AcDbEntity
  8
0
  6
BYBLOCK
 62
     0
100
AcDbLine
 10
552.0000000000001
 20
10.0
 30
0.0
 11
552.0000000000001
 21
5.0
 31
0.0
  0
LINE
  5
227
330
16A
100
AcDbEntity
  8
0
  6
BYBLOCK
 62
     0
100
AcDbLine
 10
552.0000000000001
 20
410.0000000000001
 30
0.0
 11
552.0000000000001
 21
415.0000000000001
 31
0.0
  0
LINE
  5
228
330
16A
100
AcDbEntity
  8
0
  6
BYBLOCK
 62
     0
100
AcDbLine
 10
502.0000000000001
 20
10.0
 30
0.0
 11
502.0000000000001
 21
5.0
 31
0.0
  0
LINE
  5
229
330
16A
100
AcDbEntity
  8
0
  6
BYBLOCK
 62
     0
100
AcDbLine
 10
502.0000000000001
 20
410.0000000000001
 30
0.0
 11
502.0000000000001
 21
415.0000000000001
 31
0.0
  0
LINE
  5
22A
330
16A
100
AcDbEntity
  8
0
  6
BYBLOCK
 62
     0
100
AcDbLine
 10
452.0000000000001
 20
10.0
 30
0.0
 11
452.0000000000001
 21
5.0
 31
0.0
  0
LINE
  5
22B
330
16A
100
AcDbEntity
  8
0
  6
BYBLOCK
 62
     0
100
AcDbLine
 10
452.0000000000001
 20
410.0000000000001
 30
0.0
 11
452.0000000000001
 21
415.0000000000001
 31
0.0
  0
LINE
  5
22C
330
16A
100
AcDbEntity
  8
0
  6
BYBLOCK
 62
     0
100
AcDbLine
 10
402.0000000000001
 20
10.0
 30
0.0
 11
402.0000000000001
 21
5.0
 31
0.0
  0
LINE
  5
22D
330
16A
100
AcDbEntity
  8
0
  6
BYBLOCK
 62
     0
100
AcDbLine
 10
402.0000000000001
 20
410.0000000000001
 30
0.0
 11
402.0000000000001
 21
415.0000000000001
 31
0.0
  0
LINE
  5
22E
330
16A
100
AcDbEntity
  8
0
  6
BYBLOCK
 62
     0
100
AcDbLine
 10
352.0000000000001
 20
10.0
 30
0.0
 11
352.0000000000001
 21
5.0
 31
0.0
  0
LINE
  5
22F
330
16A
100
AcDbEntity
  8
0
  6
BYBLOCK
 62
     0
100
AcDbLine
 10
352.0000000000001
 20
410.0000000000001
 30
0.0
 11
352.0000000000001
 21
415.0000000000001
 31
0.0
  0
LINE
  5
230
330
16A
100
AcDbEntity
  8
0
  6
BYBLOCK
 62
     0
100
AcDbLine
 10
302.0000000000001
 20
10.0
 30
0.0
 11
302.0000000000001
 21
5.0
 31
0.0
  0
LINE
  5
231
330
16A
100
AcDbEntity
  8
0
  6
BYBLOCK
 62
     0
100
AcDbLine
 10
302.0000000000001
 20
410.0000000000001
 30
0.0
 11
302.0000000000001
 21
415.0000000000001
 31
0.0
  0
LINE
  5
232
330
16A
100
AcDbEntity
  8
0
  6
BYBLOCK
 62
     0
100
AcDbLine
 10
252.0
 20
10.0
 30
0.0
 11
252.0
 21
5.0
 31
0.0
  0
LINE
  5
233
330
16A
100
AcDbEntity
  8
0
  6
BYBLOCK
 62
     0
100
AcDbLine
 10
252.0
 20
410.0000000000001
 30
0.0
 11
252.0
 21
415.0000000000001
 31
0.0
  0
LINE
  5
234
330
16A
100
AcDbEntity
  8
0
  6
BYBLOCK
 62
     0
100
AcDbLine
 10
202.0
 20
10.0
 30
0.0
 11
202.0
 21
5.0
 31
0.0
  0
LINE
  5
235
330
16A
100
AcDbEntity
  8
0
  6
BYBLOCK
 62
     0
100
AcDbLine
 10
202.0
 20
410.0000000000001
 30
0.0
 11
202.0
 21
415.0000000000001
 31
0.0
  0
LINE
  5
236
330
16A
100
AcDbEntity
  8
0
  6
BYBLOCK
 62
     0
100
AcDbLine
 10
152.0
 20
10.0
 30
0.0
 11
152.0
 21
5.0
 31
0.0
  0
LINE
  5
237
330
16A
100
AcDbEntity
  8
0
  6
BYBLOCK
 62
     0
100
AcDbLine
 10
152.0
 20
410.0000000000001
 30
0.0
 11
152.0
 21
415.0000000000001
 31
0.0
  0
LINE
  5
238
330
16A
100
AcDbEntity
  8
0
  6
BYBLOCK
 62
     0
100
AcDbLine
 10
102.0
 20
10.0
 30
0.0
 11
102.0
 21
5.0
 31
0.0
  0
LINE
  5
239
330
16A
100
AcDbEntity
  8
0
  6
BYBLOCK
 62
     0
100
AcDbLine
 10
102.0
 20
410.0000000000001
 30
0.0
 11
102.0
 21
415.0000000000001
 31
0.0
  0
LINE
  5
23A
330
16A
100
AcDbEntity
  8
0
  6
BYBLOCK
 62
     0
100
AcDbLine
 10
52.0
 20
10.0
 30
0.0
 11
52.0
 21
5.0
 31
0.0
  0
LINE
  5
23B
330
16A
100
AcDbEntity
  8
0
  6
BYBLOCK
 62
     0
100
AcDbLine
 10
52.0
 20
410.0000000000001
 30
0.0
 11
52.0
 21
415.0000000000001
 31
0.0
  0
LINE
  5
23C
330
16A
100
AcDbEntity
  8
0
  6
BYBLOCK
 62
     0
100
AcDbLine
 10
584.0000000000001
 20
360.0000000000001
 30
0.0
 11
589.0000000000001
 21
360.0000000000001
 31
0.0
  0
LINE
  5
23D
330
16A
100
AcDbEntity
  8
0
  6
BYBLOCK
 62
     0
100
AcDbLine
 10
20.0
 20
360.0000000000001
 30
0.0
 11
15.0
 21
360.0000000000001
 31
0.0
  0
LINE
  5
23E
330
16A
100
AcDbEntity
  8
0
  6
BYBLOCK
 62
     0
100
AcDbLine
 10
584.0000000000001
 20
310.0000000000001
 30
0.0
 11
589.0000000000001
 21
310.0000000000001
 31
0.0
  0
LINE
  5
23F
330
16A
100
AcDbEntity
  8
0
  6
BYBLOCK
 62
     0
100
AcDbLine
 10
20.0
 20
310.0000000000001
 30
0.0
 11
15.0
 21
310.0000000000001
 31
0.0
  0
LINE
  5
240
330
16A
100
AcDbEntity
  8
0
  6
BYBLOCK
 62
     0
100
AcDbLine
 10
584.0000000000001
 20
260.0
 30
0.0
 11
589.0000000000001
 21
260.0
 31
0.0
  0
LINE
  5
241
330
16A
100
AcDbEntity
  8
0
  6
BYBLOCK
 62
     0
100
AcDbLine
 10
20.0
 20
260.0
 30
0.0
 11
15.0
 21
260.0
 31
0.0
  0
LINE
  5
242
330
16A
100
AcDbEntity
  8
0
  6
BYBLOCK
 62
     0
100
AcDbLine
 10
584.0000000000001
 20
210.0
 30
0.0
 11
589.0000000000001
 21
210.0
 31
0.0
  0
LINE
  5
243
330
16A
100
AcDbEntity
  8
0
  6
BYBLOCK
 62
     0
100
AcDbLine
 10
20.0
 20
210.0
 30
0.0
 11
15.0
 21
210.0
 31
0.0
  0
LINE
  5
244
330
16A
100
AcDbEntity
  8
0
  6
BYBLOCK
 62
     0
100
AcDbLine
 10
584.0000000000001
 20
159.9999999999999
 30
0.0
 11
589.0000000000001
 21
159.9999999999999
 31
0.0
  0
LINE
  5
245
330
16A
100
AcDbEntity
  8
0
  6
BYBLOCK
 62
     0
100
AcDbLine
 10
20.0
 20
159.9999999999999
 30
0.0
 11
15.0
 21
159.9999999999999
 31
0.0
  0
LINE
  5
246
330
16A
100
AcDbEntity
  8
0
  6
BYBLOCK
 62
     0
100
AcDbLine
 10
584.0000000000001
 20
110.0
 30
0.0
 11
589.0000000000001
 21
110.0
 31
0.0
  0
LINE
  5
247
330
16A
100
AcDbEntity
  8
0
  6
BYBLOCK
 62
     0
100
AcDbLine
 10
20.0
 20
110.0
 30
0.0
 11
15.0
 21
110.0
 31
0.0
  0
LINE
  5
248
330
16A
100
AcDbEntity
  8
0
  6
BYBLOCK
 62
     0
100
AcDbLine
 10
584.0000000000001
 20
59.99999999999994
 30
0.0
 11
589.0000000000001
 21
59.99999999999994
 31
0.0
  0
LINE
  5
249
330
16A
100
AcDbEntity
  8
0
  6
BYBLOCK
 62
     0
100
AcDbLine
 10
20.0
 20
59.99999999999994
 30
0.0
 11
15.0
 21
59.99999999999994
 31
0.0
  0
LINE
  5
24A
330
16A
100
AcDbEntity
  8
0
  6
BYBLOCK
 62
     0
100
AcDbLine
 10
302.0000000000001
 20
5.0
 30
0.0
 11
302.0000000000001
 21
15.0
 31
0.0
  0
LINE
  5
24B
330
16A
100
AcDbEntity
  8
0
  6
BYBLOCK
 62
     0
100
AcDbLine
 10
589.0000000000001
 20
210.0
 30
0.0
 11
579.0000000000001
 21
210.0
 31
0.0
  0
LINE
  5
24C
330
16A
100
AcDbEntity
  8
0
  6
BYBLOCK
 62
     0
100
AcDbLine
 10
302.0000000000001
 20
415.0000000000001
 30
0.0
 11
302.0000000000001
 21
404.9999999999999
 31
0.0
  0
LINE
  5
24D
330
16A
100
AcDbEntity
  8
0
  6
BYBLOCK
 62
     0
100
AcDbLine
 10
15.0
 20
210.0
 30
0.0
 11
25.0
 21
210.0
 31
0.0
  0
LINE
  5
24E
330
16A
100
AcDbEntity
  8
0
  6
BYBLOCK
 62
     0
100
AcDbLine
 10
589.0000000000001
 20
5.0
 30
0.0
 11
15.0
 21
5.0
 31
0.0
  0
LINE
  5
24F
330
16A
100
AcDbEntity
  8
0
  6
BYBLOCK
 62
     0
100
AcDbLine
 10
589.0000000000001
 20
415.0000000000001
 30
0.0
 11
589.0000000000001
 21
5.0
 31
0.0
  0
LINE
  5
250
330
16A
100
AcDbEntity
  8
0
  6
BYBLOCK
 62
     0
100
AcDbLine
 10
15.0
 20
415.0000000000001
 30
0.0
 11
589.0000000000001
 21
415.0000000000001
 31
0.0
  0
LINE
  5
251
330
16A
100
AcDbEntity
  8
0
  6
BYBLOCK
 62
     0
100
AcDbLine
 10
15.0
 20
5.0
 30
0.0
 11
15.0
 21
415.0000000000001
 31
0.0
  0
LINE
  5
252
330
16A
100
AcDbEntity
  8
0
  6
BYBLOCK
 62
     0
100
AcDbLine
 10
584.0000000000001
 20
10.0
 30
0.0
 11
20.0
 21
10.0
 31
0.0
  0
LINE
  5
253
330
16A
100
AcDbEntity
  8
0
  6
BYBLOCK
 62
     0
100
AcDbLine
 10
584.0000000000001
 20
410.0000000000001
 30
0.0
 11
584.0000000000001
 21
10.0
 31
0.0
  0
LINE
  5
254
330
16A
100
AcDbEntity
  8
0
  6
BYBLOCK
 62
     0
100
AcDbLine
 10
20.0
 20
410.0000000000001
 30
0.0
 11
584.0000000000001
 21
410.0000000000001
 31
0.0
  0
LINE
  5
255
330
16A
100
AcDbEntity
  8
0
  6
BYBLOCK
 62
     0
100
AcDbLine
 10
20.0
 20
10.0
 30
0.0
 11
20.0
 21
410.0000000000001
 31
0.0
  0
LINE
  5
256
330
16A
100
AcDbEntity
  8
0
  6
BYBLOCK
 62
     0
100
AcDbLine
 10
584.0000000000001
 20
18.5
 30
0.0
 11
571.0000000000001
 21
18.5
 31
0.0
  0
LINE
  5
257
330
16A
100
AcDbEntity
  8
0
  6
BYBLOCK
 62
     0
100
AcDbLine
 10
584.0000000000001
 20
58.875
 30
0.0
 11
502.7999999999998
 21
58.875
 31
0.0
  0
LINE
  5
258
330
16A
100
AcDbEntity
  8
0
  6
BYBLOCK
 62
     0
100
AcDbLine
 10
571.0000000000001
 20
14.25
 30
0.0
 11
571.0000000000001
 21
27.0
 31
0.0
  0
LINE
  5
259
330
16A
100
AcDbEntity
  8
0
  6
BYBLOCK
 62
     0
100
AcDbLine
 10
554.7999999999998
 20
58.875
 30
0.0
 11
554.7999999999998
 21
65.25
 31
0.0
  0
LINE
  5
25A
330
16A
100
AcDbEntity
  8
0
  6
BYBLOCK
 62
     0
100
AcDbLine
 10
546.9999999999999
 20
10.0
 30
0.0
 11
546.9999999999999
 21
14.25
 31
0.0
  0
LINE
  5
25B
330
16A
100
AcDbEntity
  8
0
  6
BYBLOCK
 62
     0
100
AcDbLine
 10
502.7999999999998
 20
65.25
 30
0.0
 11
502.7999999999998
 21
10.0
 31
0.0
  0
LINE
  5
25C
330
16A
100
AcDbEntity
  8
0
  6
BYBLOCK
 62
     0
100
AcDbLine
 10
458.6
 20
27.0
 30
0.0
 11
584.0000000000001
 21
27.0
 31
0.0
  0
LINE
  5
25D
330
16A
100
AcDbEntity
  8
0
  6
BYBLOCK
 62
     0
100
AcDbLine
 10
458.6
 20
27.0
 30
0.0
 11
403.9999999999999
 21
27.0
 31
0.0
  0
LINE
  5
25E
330
16A
100
AcDbEntity
  8
0
  6
BYBLOCK
 62
     0
100
AcDbLine
 10
458.6
 20
22.74992800000001
 30
0.0
 11
403.9999999999999
 21
22.74992800000001
 31
0.0
  0
LINE
  5
25F
330
16A
100
AcDbEntity
  8
0
  6
BYBLOCK
 62
     0
100
AcDbLine
 10
484.6
 20
65.25
 30
0.0
 11
484.6
 21
27.0
 31
0.0
  0
LINE
  5
260
330
16A
100
AcDbEntity
  8
0
  6
BYBLOCK
 62
     0
100
AcDbLine
 10
458.6
 20
18.5
 30
0.0
 11
403.9999999999999
 21
18.5
 31
0.0
  0
LINE
  5
261
330
16A
100
AcDbEntity
  8
0
  6
BYBLOCK
 62
     0
100
AcDbLine
 10
468.9999999999999
 20
31.25
 30
0.0
 11
468.9999999999999
 21
48.25
 31
0.0
  0
LINE
  5
262
330
16A
100
AcDbEntity
  8
0
  6
BYBLOCK
 62
     0
100
AcDbLine
 10
448.3989261635401
 20
48.25
 30
0.0
 11
448.3989261635401
 21
10.0
 31
0.0
  0
LINE
  5
263
330
16A
100
AcDbEntity
  8
0
  6
BYBLOCK
 62
     0
100
AcDbLine
 10
437.8000000000001
 20
48.25
 30
0.0
 11
437.8000000000001
 21
65.25
 31
0.0
  0
LINE
  5
264
330
16A
100
AcDbEntity
  8
0
  6
BYBLOCK
 62
     0
100
AcDbLine
 10
411.8000000000001
 20
48.25
 30
0.0
 11
411.8000000000001
 21
10.0
 31
0.0
  0
LINE
  5
265
330
16A
100
AcDbEntity
  8
0
  6
BYBLOCK
 62
     0
100
AcDbLine
 10
403.9999999999999
 20
65.25
 30
0.0
 11
403.9999999999999
 21
10.0
 31
0.0
  0
LINE
  5
266
330
16A
100
AcDbEntity
  8
0
  6
BYBLOCK
 62
     0
100
AcDbLine
 10
458.6
 20
10.0
 30
0.0
 11
458.6
 21
48.25
 31
0.0
  0
LINE
  5
267
330
16A
100
AcDbEntity
  8
0
  6
BYBLOCK
 62
     0
100
AcDbLine
 10
502.7999999999998
 20
44.0
 30
0.0
 11
403.9999999999999
 21
44.0
 31
0.0
  0
LINE
  5
268
330
16A
100
AcDbEntity
  8
0
  6
BYBLOCK
 62
     0
100
AcDbLine
 10
502.7999999999998
 20
39.75
 30
0.0
 11
403.9999999999999
 21
39.75
 31
0.0
  0
LINE
  5
269
330
16A
100
AcDbEntity
  8
0
  6
BYBLOCK
 62
     0
100
AcDbLine
 10
502.7999999999998
 20
35.5
 30
0.0
 11
403.9999999999999
 21
35.5
 31
0.0
  0
LINE
  5
26A
330
16A
100
AcDbEntity
  8
0
  6
BYBLOCK
 62
     0
100
AcDbLine
 10
502.7999999999998
 20
31.25
 30
0.0
 11
403.9999999999999
 21
31.25
 31
0.0
  0
LINE
  5
26B
330
16A
100
AcDbEntity
  8
0
  6
BYBLOCK
 62
     0
100
AcDbLine
 10
430.9909524337924
 20
48.25
 30
0.0
 11
430.9909524337924
 21
9.999999999999943
 31
0.0
  0
LINE
  5
26C
330
16A
100
AcDbEntity
  8
0
  6
BYBLOCK
 62
     0
100
AcDbLine
 10
403.9999999999999
 20
65.25
 30
0.0
 11
584.0000000000001
 21
65.25
 31
0.0
  0
LINE
  5
26D
330
16A
100
AcDbEntity
  8
0
  6
BYBLOCK
 62
     0
100
AcDbLine
 10
584.0000000000001
 20
48.25
 30
0.0
 11
403.9999999999999
 21
48.25
 31
0.0
  0
LINE
  5
26E
330
16A
100
AcDbEntity
  8
0
  6
BYBLOCK
 62
     0
100
AcDbLine
 10
403.9999999999999
 20
14.25
 30
0.0
 11
584.0000000000001
 21
14.25
 31
0.0
  0
ENDBLK
  5
270
330
16A
100
AcDbEntity
  8
0
100
AcDbBlockEnd
  0
BLOCK
  5
174
330
16B
100
AcDbEntity
  8
0
100
AcDbBlockBegin
  2
SW_CENTERMARKSYMBOL_7
 70
     0
 10
0.0
 20
0.0
 30
0.0
  3
SW_CENTERMARKSYMBOL_7
  1
SW_CENTERMARKSYMBOL_7
  0
LINE
  5
16C
330
16B
100
AcDbEntity
  8
0
  6
CONTINUOUS
 62
     0
100
AcDbLine
 10
0.0
 20
0.0
 30
0.0
 11
0.0
 21
2.500000000000002
 31
0.0
  0
LINE
  5
16D
330
16B
100
AcDbEntity
  8
0
  6
CONTINUOUS
 62
     0
100
AcDbLine
 10
0.0
 20
0.0
 30
0.0
 11
-2.500000000000002
 21
0.0
 31
0.0
  0
LINE
  5
16E
330
16B
100
AcDbEntity
  8
0
  6
CONTINUOUS
 62
     0
100
AcDbLine
 10
0.0
 20
0.0
 30
0.0
 11
0.0
 21
-2.500000000000002
 31
0.0
  0
LINE
  5
16F
330
16B
100
AcDbEntity
  8
0
  6
CONTINUOUS
 62
     0
100
AcDbLine
 10
0.0
 20
0.0
 30
0.0
 11
2.500000000000002
 21
0.0
 31
0.0
  0
LINE
  5
170
330
16B
100
AcDbEntity
  8
0
  6
CONTINUOUS
 62
     0
100
AcDbLine
 10
0.0
 20
2.500000000000002
 30
0.0
 11
0.0
 21
3.599999999999992
 31
0.0
  0
LINE
  5
171
330
16B
100
AcDbEntity
  8
0
  6
CONTINUOUS
 62
     0
100
AcDbLine
 10
-2.500000000000002
 20
0.0
 30
0.0
 11
-3.599999999999992
 21
0.0
 31
0.0
  0
LINE
  5
172
330
16B
100
AcDbEntity
  8
0
  6
CONTINUOUS
 62
     0
100
AcDbLine
 10
0.0
 20
-2.500000000000002
 30
0.0
 11
0.0
 21
-3.60000000000002
 31
0.0
  0
LINE
  5
173
330
16B
100
AcDbEntity
  8
0
  6
CONTINUOUS
 62
     0
100
AcDbLine
 10
2.500000000000002
 20
0.0
 30
0.0
 11
3.599999999999992
 21
0.0
 31
0.0
  0
ENDBLK
  5
175
330
16B
100
AcDbEntity
  8
0
100
AcDbBlockEnd
  0
BLOCK
  5
180
330
177
100
AcDbEntity
  8
0
100
AcDbBlockBegin
  2
SW_CENTERMARKSYMBOL_6
 70
     0
 10
0.0
 20
0.0
 30
0.0
  3
SW_CENTERMARKSYMBOL_6
  1
SW_CENTERMARKSYMBOL_6
  0
LINE
  5
178
330
177
100
AcDbEntity
  8
0
  6
CONTINUOUS
 62
     0
100
AcDbLine
 10
0.0
 20
0.0
 30
0.0
 11
0.0
 21
2.500000000000002
 31
0.0
  0
LINE
  5
179
330
177
100
AcDbEntity
  8
0
  6
CONTINUOUS
 62
     0
100
AcDbLine
 10
0.0
 20
0.0
 30
0.0
 11
-2.500000000000002
 21
0.0
 31
0.0
  0
LINE
  5
17A
330
177
100
AcDbEntity
  8
0
  6
CONTINUOUS
 62
     0
100
AcDbLine
 10
0.0
 20
0.0
 30
0.0
 11
0.0
 21
-2.500000000000002
 31
0.0
  0
LINE
  5
17B
330
177
100
AcDbEntity
  8
0
  6
CONTINUOUS
 62
     0
100
AcDbLine
 10
0.0
 20
0.0
 30
0.0
 11
2.500000000000002
 21
0.0
 31
0.0
  0
LINE
  5
17C
330
177
100
AcDbEntity
  8
0
  6
CONTINUOUS
 62
     0
100
AcDbLine
 10
0.0
 20
2.500000000000002
 30
0.0
 11
0.0
 21
3.599999999999992
 31
0.0
  0
LINE
  5
17D
330
177
100
AcDbEntity
  8
0
  6
CONTINUOUS
 62
     0
100
AcDbLine
 10
-2.500000000000002
 20
0.0
 30
0.0
 11
-3.599999999999992
 21
0.0
 31
0.0
  0
LINE
  5
17E
330
177
100
AcDbEntity
  8
0
  6
CONTINUOUS
 62
     0
100
AcDbLine
 10
0.0
 20
-2.500000000000002
 30
0.0
 11
0.0
 21
-3.599999999999992
 31
0.0
  0
LINE
  5
17F
330
177
100
AcDbEntity
  8
0
  6
CONTINUOUS
 62
     0
100
AcDbLine
 10
2.500000000000002
 20
0.0
 30
0.0
 11
3.599999999999992
 21
0.0
 31
0.0
  0
ENDBLK
  5
181
330
177
100
AcDbEntity
  8
0
100
AcDbBlockEnd
  0
BLOCK
  5
18C
330
183
100
AcDbEntity
  8
0
100
AcDbBlockBegin
  2
SW_CENTERMARKSYMBOL_5
 70
     0
 10
0.0
 20
0.0
 30
0.0
  3
SW_CENTERMARKSYMBOL_5
  1
SW_CENTERMARKSYMBOL_5
  0
LINE
  5
184
330
183
100
AcDbEntity
  8
0
  6
CONTINUOUS
 62
     0
100
AcDbLine
 10
0.0
 20
0.0
 30
0.0
 11
0.0
 21
2.500000000000002
 31
0.0
  0
LINE
  5
185
330
183
100
AcDbEntity
  8
0
  6
CONTINUOUS
 62
     0
100
AcDbLine
 10
0.0
 20
0.0
 30
0.0
 11
-2.500000000000002
 21
0.0
 31
0.0
  0
LINE
  5
186
330
183
100
AcDbEntity
  8
0
  6
CONTINUOUS
 62
     0
100
AcDbLine
 10
0.0
 20
0.0
 30
0.0
 11
0.0
 21
-2.500000000000002
 31
0.0
  0
LINE
  5
187
330
183
100
AcDbEntity
  8
0
  6
CONTINUOUS
 62
     0
100
AcDbLine
 10
0.0
 20
0.0
 30
0.0
 11
2.500000000000002
 21
0.0
 31
0.0
  0
LINE
  5
188
330
183
100
AcDbEntity
  8
0
  6
CONTINUOUS
 62
     0
100
AcDbLine
 10
0.0
 20
2.500000000000002
 30
0.0
 11
0.0
 21
3.599999999999992
 31
0.0
  0
LINE
  5
189
330
183
100
AcDbEntity
  8
0
  6
CONTINUOUS
 62
     0
100
AcDbLine
 10
-2.500000000000002
 20
0.0
 30
0.0
 11
-3.599999999999992
 21
0.0
 31
0.0
  0
LINE
  5
18A
330
183
100
AcDbEntity
  8
0
  6
CONTINUOUS
 62
     0
100
AcDbLine
 10
0.0
 20
-2.500000000000002
 30
0.0
 11
0.0
 21
-3.60000000000002
 31
0.0
  0
LINE
  5
18B
330
183
100
AcDbEntity
  8
0
  6
CONTINUOUS
 62
     0
100
AcDbLine
 10
2.500000000000002
 20
0.0
 30
0.0
 11
3.599999999999992
 21
0.0
 31
0.0
  0
ENDBLK
  5
18D
330
183
100
AcDbEntity
  8
0
100
AcDbBlockEnd
  0
BLOCK
  5
198
330
18F
100
AcDbEntity
  8
0
100
AcDbBlockBegin
  2
SW_CENTERMARKSYMBOL_4
 70
     0
 10
0.0
 20
0.0
 30
0.0
  3
SW_CENTERMARKSYMBOL_4
  1
SW_CENTERMARKSYMBOL_4
  0
LINE
  5
190
330
18F
100
AcDbEntity
  8
0
  6
CONTINUOUS
 62
     0
100
AcDbLine
 10
0.0
 20
0.0
 30
0.0
 11
0.0
 21
2.500000000000002
 31
0.0
  0
LINE
  5
191
330
18F
100
AcDbEntity
  8
0
  6
CONTINUOUS
 62
     0
100
AcDbLine
 10
0.0
 20
0.0
 30
0.0
 11
-2.500000000000002
 21
0.0
 31
0.0
  0
LINE
  5
192
330
18F
100
AcDbEntity
  8
0
  6
CONTINUOUS
 62
     0
100
AcDbLine
 10
0.0
 20
0.0
 30
0.0
 11
0.0
 21
-2.500000000000002
 31
0.0
  0
LINE
  5
193
330
18F
100
AcDbEntity
  8
0
  6
CONTINUOUS
 62
     0
100
AcDbLine
 10
0.0
 20
0.0
 30
0.0
 11
2.500000000000002
 21
0.0
 31
0.0
  0
LINE
  5
194
330
18F
100
AcDbEntity
  8
0
  6
CONTINUOUS
 62
     0
100
AcDbLine
 10
0.0
 20
2.500000000000002
 30
0.0
 11
0.0
 21
3.599999999999992
 31
0.0
  0
LINE
  5
195
330
18F
100
AcDbEntity
  8
0
  6
CONTINUOUS
 62
     0
100
AcDbLine
 10
-2.500000000000002
 20
0.0
 30
0.0
 11
-3.599999999999992
 21
0.0
 31
0.0
  0
LINE
  5
196
330
18F
100
AcDbEntity
  8
0
  6
CONTINUOUS
 62
     0
100
AcDbLine
 10
0.0
 20
-2.500000000000002
 30
0.0
 11
0.0
 21
-3.599999999999992
 31
0.0
  0
LINE
  5
197
330
18F
100
AcDbEntity
  8
0
  6
CONTINUOUS
 62
     0
100
AcDbLine
 10
2.500000000000002
 20
0.0
 30
0.0
 11
3.599999999999992
 21
0.0
 31
0.0
  0
ENDBLK
  5
199
330
18F
100
AcDbEntity
  8
0
100
AcDbBlockEnd
  0
BLOCK
  5
1A4
330
19B
100
AcDbEntity
  8
0
100
AcDbBlockBegin
  2
SW_CENTERMARKSYMBOL_3
 70
     0
 10
0.0
 20
0.0
 30
0.0
  3
SW_CENTERMARKSYMBOL_3
  1
SW_CENTERMARKSYMBOL_3
  0
LINE
  5
19C
330
19B
100
AcDbEntity
  8
0
  6
CONTINUOUS
 62
     0
100
AcDbLine
 10
0.0
 20
0.0
 30
0.0
 11
0.0
 21
2.500000000000002
 31
0.0
  0
LINE
  5
19D
330
19B
100
AcDbEntity
  8
0
  6
CONTINUOUS
 62
     0
100
AcDbLine
 10
0.0
 20
0.0
 30
0.0
 11
-2.500000000000002
 21
0.0
 31
0.0
  0
LINE
  5
19E
330
19B
100
AcDbEntity
  8
0
  6
CONTINUOUS
 62
     0
100
AcDbLine
 10
0.0
 20
0.0
 30
0.0
 11
0.0
 21
-2.500000000000002
 31
0.0
  0
LINE
  5
19F
330
19B
100
AcDbEntity
  8
0
  6
CONTINUOUS
 62
     0
100
AcDbLine
 10
0.0
 20
0.0
 30
0.0
 11
2.500000000000002
 21
0.0
 31
0.0
  0
LINE
  5
1A0
330
19B
100
AcDbEntity
  8
0
  6
CONTINUOUS
 62
     0
100
AcDbLine
 10
0.0
 20
2.500000000000002
 30
0.0
 11
0.0
 21
4.000000000000004
 31
0.0
  0
LINE
  5
1A1
330
19B
100
AcDbEntity
  8
0
  6
CONTINUOUS
 62
     0
100
AcDbLine
 10
-2.500000000000002
 20
0.0
 30
0.0
 11
-4.000000000000004
 21
0.0
 31
0.0
  0
LINE
  5
1A2
330
19B
100
AcDbEntity
  8
0
  6
CONTINUOUS
 62
     0
100
AcDbLine
 10
0.0
 20
-2.500000000000002
 30
0.0
 11
0.0
 21
-4.000000000000004
 31
0.0
  0
LINE
  5
1A3
330
19B
100
AcDbEntity
  8
0
  6
CONTINUOUS
 62
     0
100
AcDbLine
 10
2.500000000000002
 20
0.0
 30
0.0
 11
4.000000000000004
 21
0.0
 31
0.0
  0
ENDBLK
  5
1A5
330
19B
100
AcDbEntity
  8
0
100
AcDbBlockEnd
  0
BLOCK
  5
1B0
330
1A7
100
AcDbEntity
  8
0
100
AcDbBlockBegin
  2
SW_CENTERMARKSYMBOL_2
 70
     0
 10
0.0
 20
0.0
 30
0.0
  3
SW_CENTERMARKSYMBOL_2
  1
SW_CENTERMARKSYMBOL_2
  0
LINE
  5
1A8
330
1A7
100
AcDbEntity
  8
0
  6
CONTINUOUS
 62
     0
100
AcDbLine
 10
0.0
 20
0.0
 30
0.0
 11
0.0
 21
2.500000000000002
 31
0.0
  0
LINE
  5
1A9
330
1A7
100
AcDbEntity
  8
0
  6
CONTINUOUS
 62
     0
100
AcDbLine
 10
0.0
 20
0.0
 30
0.0
 11
-2.499999999999947
 21
0.0
 31
0.0
  0
LINE
  5
1AA
330
1A7
100
AcDbEntity
  8
0
  6
CONTINUOUS
 62
     0
100
AcDbLine
 10
0.0
 20
0.0
 30
0.0
 11
0.0
 21
-2.500000000000002
 31
0.0
  0
LINE
  5
1AB
330
1A7
100
AcDbEntity
  8
0
  6
CONTINUOUS
 62
     0
100
AcDbLine
 10
0.0
 20
0.0
 30
0.0
 11
2.500000000000058
 21
0.0
 31
0.0
  0
LINE
  5
1AC
330
1A7
100
AcDbEntity
  8
0
  6
CONTINUOUS
 62
     0
100
AcDbLine
 10
0.0
 20
2.500000000000002
 30
0.0
 11
0.0
 21
4.000000000000004
 31
0.0
  0
LINE
  5
1AD
330
1A7
100
AcDbEntity
  8
0
  6
CONTINUOUS
 62
     0
100
AcDbLine
 10
-2.499999999999947
 20
0.0
 30
0.0
 11
-4.000000000000004
 21
0.0
 31
0.0
  0
LINE
  5
1AE
330
1A7
100
AcDbEntity
  8
0
  6
CONTINUOUS
 62
     0
100
AcDbLine
 10
0.0
 20
-2.500000000000002
 30
0.0
 11
0.0
 21
-4.000000000000004
 31
0.0
  0
LINE
  5
1AF
330
1A7
100
AcDbEntity
  8
0
  6
CONTINUOUS
 62
     0
100
AcDbLine
 10
2.500000000000058
 20
0.0
 30
0.0
 11
4.000000000000004
 21
0.0
 31
0.0
  0
ENDBLK
  5
1B1
330
1A7
100
AcDbEntity
  8
0
100
AcDbBlockEnd
  0
BLOCK
  5
1BC
330
1B3
100
AcDbEntity
  8
0
100
AcDbBlockBegin
  2
SW_CENTERMARKSYMBOL_1
 70
     0
 10
0.0
 20
0.0
 30
0.0
  3
SW_CENTERMARKSYMBOL_1
  1
SW_CENTERMARKSYMBOL_1
  0
LINE
  5
1B4
330
1B3
100
AcDbEntity
  8
0
  6
CONTINUOUS
 62
     0
100
AcDbLine
 10
0.0
 20
0.0
 30
0.0
 11
0.0
 21
2.500000000000002
 31
0.0
  0
LINE
  5
1B5
330
1B3
100
AcDbEntity
  8
0
  6
CONTINUOUS
 62
     0
100
AcDbLine
 10
0.0
 20
0.0
 30
0.0
 11
-2.500000000000002
 21
0.0
 31
0.0
  0
LINE
  5
1B6
330
1B3
100
AcDbEntity
  8
0
  6
CONTINUOUS
 62
     0
100
AcDbLine
 10
0.0
 20
0.0
 30
0.0
 11
0.0
 21
-2.500000000000002
 31
0.0
  0
LINE
  5
1B7
330
1B3
100
AcDbEntity
  8
0
  6
CONTINUOUS
 62
     0
100
AcDbLine
 10
0.0
 20
0.0
 30
0.0
 11
2.500000000000002
 21
0.0
 31
0.0
  0
LINE
  5
1B8
330
1B3
100
AcDbEntity
  8
0
  6
CONTINUOUS
 62
     0
100
AcDbLine
 10
0.0
 20
2.500000000000002
 30
0.0
 11
0.0
 21
4.000000000000004
 31
0.0
  0
LINE
  5
1B9
330
1B3
100
AcDbEntity
  8
0
  6
CONTINUOUS
 62
     0
100
AcDbLine
 10
-2.500000000000002
 20
0.0
 30
0.0
 11
-4.000000000000004
 21
0.0
 31
0.0
  0
LINE
  5
1BA
330
1B3
100
AcDbEntity
  8
0
  6
CONTINUOUS
 62
     0
100
AcDbLine
 10
0.0
 20
-2.500000000000002
 30
0.0
 11
0.0
 21
-3.999999999999976
 31
0.0
  0
LINE
  5
1BB
330
1B3
100
AcDbEntity
  8
0
  6
CONTINUOUS
 62
     0
100
AcDbLine
 10
2.500000000000002
 20
0.0
 30
0.0
 11
4.000000000000004
 21
0.0
 31
0.0
  0
ENDBLK
  5
1BD
330
1B3
100
AcDbEntity
  8
0
100
AcDbBlockEnd
  0
BLOCK
  5
1C8
330
1BF
100
AcDbEntity
  8
0
100
AcDbBlockBegin
  2
SW_CENTERMARKSYMBOL_0
 70
     0
 10
0.0
 20
0.0
 30
0.0
  3
SW_CENTERMARKSYMBOL_0
  1
SW_CENTERMARKSYMBOL_0
  0
LINE
  5
1C0
330
1BF
100
AcDbEntity
  8
0
  6
CONTINUOUS
 62
     0
100
AcDbLine
 10
0.0
 20
0.0
 30
0.0
 11
0.0
 21
2.500000000000002
 31
0.0
  0
LINE
  5
1C1
330
1BF
100
AcDbEntity
  8
0
  6
CONTINUOUS
 62
     0
100
AcDbLine
 10
0.0
 20
0.0
 30
0.0
 11
-2.499999999999947
 21
0.0
 31
0.0
  0
LINE
  5
1C2
330
1BF
100
AcDbEntity
  8
0
  6
CONTINUOUS
 62
     0
100
AcDbLine
 10
0.0
 20
0.0
 30
0.0
 11
0.0
 21
-2.500000000000002
 31
0.0
  0
LINE
  5
1C3
330
1BF
100
AcDbEntity
  8
0
  6
CONTINUOUS
 62
     0
100
AcDbLine
 10
0.0
 20
0.0
 30
0.0
 11
2.500000000000058
 21
0.0
 31
0.0
  0
LINE
  5
1C4
330
1BF
100
AcDbEntity
  8
0
  6
CONTINUOUS
 62
     0
100
AcDbLine
 10
0.0
 20
2.500000000000002
 30
0.0
 11
0.0
 21
4.000000000000004
 31
0.0
  0
LINE
  5
1C5
330
1BF
100
AcDbEntity
  8
0
  6
CONTINUOUS
 62
     0
100
AcDbLine
 10
-2.499999999999947
 20
0.0
 30
0.0
 11
-4.000000000000004
 21
0.0
 31
0.0
  0
LINE
  5
1C6
330
1BF
100
AcDbEntity
  8
0
  6
CONTINUOUS
 62
     0
100
AcDbLine
 10
0.0
 20
-2.500000000000002
 30
0.0
 11
0.0
 21
-4.000000000000004
 31
0.0
  0
LINE
  5
1C7
330
1BF
100
AcDbEntity
  8
0
  6
CONTINUOUS
 62
     0
100
AcDbLine
 10
2.500000000000058
 20
0.0
 30
0.0
 11
4.000000000000004
 21
0.0
 31
0.0
  0
ENDBLK
  5
1C9
330
1BF
100
AcDbEntity
  8
0
100
AcDbBlockEnd
  0
BLOCK
  5
1EB
330
1E8
100
AcDbEntity
  8
0
100
AcDbBlockBegin
  2
SW_NOTE_1
 70
     0
 10
0.0
 20
0.0
 30
0.0
  3
SW_NOTE_1
  1
SW_NOTE_1
  0
MTEXT
  5
1E9
330
1E8
100
AcDbEntity
  8
0
  6
CONTINUOUS
 62
     0
100
AcDbMText
 10
0.0
 20
1.933601609657942
 30
0.0
 40
1.5
 41
14.33132530120482
 71
     1
 72
     1
  1
\fArial;CASSER LES
1001
ACAD
1000
MTEXTBEGIN
1070
    73
1070
     2
1070
    44
1040
0.9638554216867472
1000
MTEXTEND
1000
ACAD_MTEXT_DEFINED_HEIGHT_BEGIN
1070
    46
1040
1.55421686746988
1000
ACAD_MTEXT_DEFINED_HEIGHT_END
  0
MTEXT
  5
1EA
330
1E8
100
AcDbEntity
  8
0
  6
CONTINUOUS
 62
     0
100
AcDbMText
 10
0.0
 20
-0.5663983344626964
 30
0.0
 40
1.5
 41
15.00903614457831
 71
     1
 72
     1
  1
\fArial;ANGLES VIFS
1001
ACAD
1000
MTEXTBEGIN
1070
    73
1070
     2
1070
    44
1040
0.9638554216867472
1000
MTEXTEND
1000
ACAD_MTEXT_DEFINED_HEIGHT_BEGIN
1070
    46
1040
1.55421686746988
1000
ACAD_MTEXT_DEFINED_HEIGHT_END
  0
ENDBLK
  5
1EC
330
1E8
100
AcDbEntity
  8
0
100
AcDbBlockEnd
  0
BLOCK
  5
1F6
330
1EF
100
AcDbEntity
  8
0
100
AcDbBlockBegin
  2
SW_NOTE_0
 70
     0
 10
0.0
 20
0.0
 30
0.0
  3
SW_NOTE_0
  1
SW_NOTE_0
  0
MTEXT
  5
1F0
330
1EF
100
AcDbEntity
  8
0
  6
CONTINUOUS
 62
     0
100
AcDbMText
 10
0.0
 20
1.933601609657942
 30
0.0
 40
1.5
 41
32.70180722891566
 71
     1
 72
     1
  1
\fArial;SAUF INDICATION CONTRAIRE:
1001
ACAD
1000
MTEXTBEGIN
1070
    73
1070
     2
1070
    44
1040
0.9638554216867472
1000
MTEXTEND
1000
ACAD_MTEXT_DEFINED_HEIGHT_BEGIN
1070
    46
1040
1.55421686746988
1000
ACAD_MTEXT_DEFINED_HEIGHT_END
  0
MTEXT
  5
1F1
330
1EF
100
AcDbEntity
  8
0
  6
CONTINUOUS
 62
     0
100
AcDbMText
 10
0.0
 20
-0.5663983344626964
 30
0.0
 40
1.5
 41
37.12951807228916
 71
     1
 72
     1
  1
\fArial;LES COTES SONT EN MILLIMETRES
1001
ACAD
1000
MTEXTBEGIN
1070
    73
1070
     2
1070
    44
1040
0.9638554216867472
1000
MTEXTEND
1000
ACAD_MTEXT_DEFINED_HEIGHT_BEGIN
1070
    46
1040
1.55421686746988
1000
ACAD_MTEXT_DEFINED_HEIGHT_END
  0
MTEXT
  5
1F2
330
1EF
100
AcDbEntity
  8
0
  6
CONTINUOUS
 62
     0
100
AcDbMText
 10
0.0
 20
-3.066398278583342
 30
0.0
 40
1.5
 41
20.96385542168674
 71
     1
 72
     1
  1
\fArial;ETAT DE SURFACE:
1001
ACAD
1000
MTEXTBEGIN
1070
    73
1070
     2
1070
    44
1040
0.9638554216867472
1000
MTEXTEND
1000
ACAD_MTEXT_DEFINED_HEIGHT_BEGIN
1070
    46
1040
1.55421686746988
1000
ACAD_MTEXT_DEFINED_HEIGHT_END
  0
MTEXT
  5
1F3
330
1EF
100
AcDbEntity
  8
0
  6
CONTINUOUS
 62
     0
100
AcDbMText
 10
0.0
 20
-5.566398222703987
 30
0.0
 40
1.5
 41
15.90361445783132
 71
     1
 72
     1
  1
\fArial;TOLERANCES:
1001
ACAD
1000
MTEXTBEGIN
1070
    73
1070
     2
1070
    44
1040
0.9638554216867472
1000
MTEXTEND
1000
ACAD_MTEXT_DEFINED_HEIGHT_BEGIN
1070
    46
1040
1.55421686746988
1000
ACAD_MTEXT_DEFINED_HEIGHT_END
  0
MTEXT
  5
1F4
330
1EF
100
AcDbEntity
  8
0
  6
CONTINUOUS
 62
     0
100
AcDbMText
 10
1.687500000000008
 20
-8.066398166824634
 30
0.0
 40
1.5
 41
12.57831325301205
 71
     1
 72
     1
  1
\fArial;LINEAIRES:
1001
ACAD
1000
MTEXTBEGIN
1070
    73
1070
     2
1070
    44
1040
0.9638554216867472
1000
MTEXTEND
1000
ACAD_MTEXT_DEFINED_HEIGHT_BEGIN
1070
    46
1040
1.55421686746988
1000
ACAD_MTEXT_DEFINED_HEIGHT_END
  0
MTEXT
  5
1F5
330
1EF
100
AcDbEntity
  8
0
  6
CONTINUOUS
 62
     0
100
AcDbMText
 10
1.687500000000008
 20
-10.56639811094528
 30
0.0
 40
1.5
 41
15.2710843373494
 71
     1
 72
     1
  1
\fArial;ANGULAIRES:
1001
ACAD
1000
MTEXTBEGIN
1070
    73
1070
     2
1070
    44
1040
0.9638554216867472
1000
MTEXTEND
1000
ACAD_MTEXT_DEFINED_HEIGHT_BEGIN
1070
    46
1040
1.55421686746988
1000
ACAD_MTEXT_DEFINED_HEIGHT_END
  0
ENDBLK
  5
1F7
330
1EF
100
AcDbEntity
  8
0
100
AcDbBlockEnd
  0
ENDSEC
  0
SECTION
  2
ENTITIES
  0
ARC
  5
6B
330
1F
100
AcDbEntity
  8
MAKE2D$VISIBLE$LINES
100
AcDbCircle
 10
227.7147580122561
 20
258.7113206476437
 30
0.0
 40
2.999999664163956
100
AcDbArc
 50
270.0000064140052
 51
0.0000064139975994
  0
ARC
  5
6C
330
1F
100
AcDbEntity
  8
MAKE2D$VISIBLE$LINES
100
AcDbCircle
 10
227.7147580122557
 20
358.7113213193156
 30
0.0
 40
2.999999664163728
100
AcDbArc
 50
359.9999935859981
 51
89.99999358600402
  0
CIRCLE
  5
6D
330
1F
100
AcDbEntity
  8
MAKE2D$VISIBLE$LINES
100
AcDbCircle
 10
232.2147575751397
 20
254.2113210533853
 30
0.0
 40
1.499999898719835
  0
LINE
  5
6E
330
1F
100
AcDbEntity
  8
MAKE2D$VISIBLE$LINES
100
AcDbLine
 10
237.7174327681901
 20
358.7113209834791
 30
0.0
 11
237.7147561091841
 21
358.7113209834791
 31
0.0
  0
ARC
  5
6F
330
1F
100
AcDbEntity
  8
MAKE2D$VISIBLE$LINES
100
AcDbCircle
 10
152.7147762593531
 20
258.7113198640255
 30
0.0
 40
9.999998880546348
100
AcDbArc
 50
179.9999935860023
 51
269.9999935860033
  0
LINE
  5
70
330
1F
100
AcDbEntity
  8
MAKE2D$VISIBLE$LINES
100
AcDbLine
 10
227.7147583480926
 20
255.7113209834798
 30
0.0
 11
152.7147751398994
 21
255.7113209834793
 31
0.0
  0
ARC
  5
71
330
1F
100
AcDbEntity
  8
MAKE2D$VISIBLE$LINES
100
AcDbCircle
 10
152.7174521347419
 20
258.711320647643
 30
0.0
 40
2.999999664163785
100
AcDbArc
 50
179.9999935859992
 51
269.948873181944
  0
CIRCLE
  5
72
330
1F
100
AcDbEntity
  8
MAKE2D$VISIBLE$LINES
100
AcDbCircle
 10
148.2147763819639
 20
254.2113210533845
 30
0.0
 40
1.499999898719921
  0
LINE
  5
73
330
1F
100
AcDbEntity
  8
MAKE2D$VISIBLE$LINES
100
AcDbLine
 10
142.7147773788068
 20
258.7113209834791
 30
0.0
 11
142.7147773788061
 21
358.7113209834791
 31
0.0
  0
LINE
  5
74
330
1F
100
AcDbEntity
  8
MAKE2D$VISIBLE$LINES
100
AcDbLine
 10
149.7147758115714
 20
258.7113209834791
 30
0.0
 11
149.7147758115707
 21
358.7113209834791
 31
0.0
  0
LINE
  5
75
330
1F
100
AcDbEntity
  8
MAKE2D$VISIBLE$LINES
100
AcDbLine
 10
230.7147576764194
 20
358.7113209834793
 30
0.0
 11
230.7147576764203
 21
258.7113209834798
 31
0.0
  0
LINE
  5
76
330
1F
100
AcDbEntity
  8
MAKE2D$VISIBLE$LINES
100
AcDbLine
 10
227.7147583480926
 20
248.7113209834798
 30
0.0
 11
152.7147751398996
 21
248.7113209834792
 31
0.0
  0
ARC
  5
77
330
1F
100
AcDbEntity
  8
MAKE2D$VISIBLE$LINES
100
AcDbCircle
 10
227.7174338876448
 20
258.7113198640259
 30
0.0
 40
9.999998880546206
100
AcDbArc
 50
270.0000064140002
 51
0.0000064139993365
  0
LINE
  5
78
330
1F
100
AcDbEntity
  8
MAKE2D$VISIBLE$LINES
100
AcDbLine
 10
237.7174327681901
 20
358.7113209834791
 30
0.0
 11
237.717432768191
 21
258.7113209834798
 31
0.0
  0
ARC
  5
79
330
1F
100
AcDbEntity
  8
MAKE2D$VISIBLE$LINES
100
AcDbCircle
 10
227.7174338876439
 20
358.7113221029331
 30
0.0
 40
9.999998880546263
100
AcDbArc
 50
359.999993586002
 51
89.99999358599986
  0
CIRCLE
  5
7A
330
1F
100
AcDbEntity
  8
MAKE2D$VISIBLE$LINES
100
AcDbCircle
 10
232.214757575139
 20
363.2113210533842
 30
0.0
 40
1.499999898708239
  0
LINE
  5
7B
330
1F
100
AcDbEntity
  8
MAKE2D$VISIBLE$LINES
100
AcDbLine
 10
152.7147751398987
 20
368.7113209834793
 30
0.0
 11
227.7147583480917
 21
368.7113209834793
 31
0.0
  0
CIRCLE
  5
7C
330
1F
100
AcDbEntity
  8
MAKE2D$VISIBLE$LINES
100
AcDbCircle
 10
148.2147763819627
 20
363.2113210533838
 30
0.0
 40
1.499999898719693
  0
ARC
  5
7D
330
1F
100
AcDbEntity
  8
MAKE2D$VISIBLE$LINES
100
AcDbCircle
 10
152.7147762593525
 20
358.7113221029326
 30
0.0
 40
9.999998880546746
100
AcDbArc
 50
90.00000641399885
 51
180.0000064139971
  0
LINE
  5
7E
330
1F
100
AcDbEntity
  8
MAKE2D$VISIBLE$LINES
100
AcDbLine
 10
152.7147751398987
 20
361.7113209834791
 30
0.0
 11
227.7147583480917
 21
361.7113209834791
 31
0.0
  0
ARC
  5
7F
330
1F
100
AcDbEntity
  8
MAKE2D$VISIBLE$LINES
100
AcDbCircle
 10
152.7147754757348
 20
358.7113213193151
 30
0.0
 40
2.999999664164098
100
AcDbArc
 50
90.00000641399869
 51
180.0000064139965
  0
ARC
  5
80
330
1F
100
AcDbEntity
  8
MAKE2D$VISIBLE$LINES
100
AcDbCircle
 10
46.28858558743288
 20
358.711321319315
 30
0.0
 40
2.999999664164155
100
AcDbArc
 50
90.00000641399963
 51
180.0000064139954
  0
LINE
  5
81
330
1F
100
AcDbEntity
  8
MAKE2D$VISIBLE$LINES
100
AcDbLine
 10
46.28858525159669
 20
361.7113209834791
 30
0.0
 11
121.2885684597897
 21
361.7113209834791
 31
0.0
  0
ARC
  5
82
330
1F
100
AcDbEntity
  8
MAKE2D$VISIBLE$LINES
100
AcDbCircle
 10
46.28858637105063
 20
358.7113221029327
 30
0.0
 40
9.999998880546576
100
AcDbArc
 50
90.00000641399933
 51
180.000006413998
  0
CIRCLE
  5
83
330
1F
100
AcDbEntity
  8
MAKE2D$VISIBLE$LINES
100
AcDbCircle
 10
41.78858649366083
 20
363.2113210533837
 30
0.0
 40
1.499999898719835
  0
LINE
  5
84
330
1F
100
AcDbEntity
  8
MAKE2D$VISIBLE$LINES
100
AcDbLine
 10
46.28858525159669
 20
368.7113209834793
 30
0.0
 11
121.2885684597897
 21
368.7113209834793
 31
0.0
  0
CIRCLE
  5
85
330
1F
100
AcDbEntity
  8
MAKE2D$VISIBLE$LINES
100
AcDbCircle
 10
125.7885676868372
 20
363.2113210533842
 30
0.0
 40
1.499999898708225
  0
ARC
  5
86
330
1F
100
AcDbEntity
  8
MAKE2D$VISIBLE$LINES
100
AcDbCircle
 10
121.2912439993418
 20
358.7113221029329
 30
0.0
 40
9.999998880546363
100
AcDbArc
 50
359.999993586003
 51
89.99999358600058
  0
LINE
  5
87
330
1F
100
AcDbEntity
  8
MAKE2D$VISIBLE$LINES
100
AcDbLine
 10
131.2912428798881
 20
358.7113209834791
 30
0.0
 11
131.291242879889
 21
258.7113209834798
 31
0.0
  0
ARC
  5
88
330
1F
100
AcDbEntity
  8
MAKE2D$VISIBLE$LINES
100
AcDbCircle
 10
121.291243999343
 20
258.7113198640258
 30
0.0
 40
9.999998880546093
100
AcDbArc
 50
270.0000064139995
 51
0.0000064139999878
  0
LINE
  5
89
330
1F
100
AcDbEntity
  8
MAKE2D$VISIBLE$LINES
100
AcDbLine
 10
121.2885684597906
 20
248.7113209834798
 30
0.0
 11
46.2885852515976
 21
248.7113209834792
 31
0.0
  0
LINE
  5
8A
330
1F
100
AcDbEntity
  8
MAKE2D$VISIBLE$LINES
100
AcDbLine
 10
124.2885677881174
 20
358.7113209834793
 30
0.0
 11
124.2885677881183
 21
258.7113209834798
 31
0.0
  0
LINE
  5
8B
330
1F
100
AcDbEntity
  8
MAKE2D$VISIBLE$LINES
100
AcDbLine
 10
43.28858592326966
 20
258.7113209834791
 30
0.0
 11
43.28858592326876
 21
358.7113209834791
 31
0.0
  0
LINE
  5
8C
330
1F
100
AcDbEntity
  8
MAKE2D$VISIBLE$LINES
100
AcDbLine
 10
36.2885874905048
 20
258.7113209834791
 30
0.0
 11
36.28858749050411
 21
358.7113209834791
 31
0.0
  0
CIRCLE
  5
8D
330
1F
100
AcDbEntity
  8
MAKE2D$VISIBLE$LINES
100
AcDbCircle
 10
41.78858649366188
 20
254.2113210533845
 30
0.0
 40
1.499999898719921
  0
ARC
  5
8E
330
1F
100
AcDbEntity
  8
MAKE2D$VISIBLE$LINES
100
AcDbCircle
 10
46.29126224644001
 20
258.7113206476434
 30
0.0
 40
2.999999664164076
100
AcDbArc
 50
179.9999935860068
 51
269.9999935859973
  0
LINE
  5
8F
330
1F
100
AcDbEntity
  8
MAKE2D$VISIBLE$LINES
100
AcDbLine
 10
121.2885684597906
 20
255.7113209834798
 30
0.0
 11
46.29126191060365
 21
255.7113209834793
 31
0.0
  0
ARC
  5
90
330
1F
100
AcDbEntity
  8
MAKE2D$VISIBLE$LINES
100
AcDbCircle
 10
46.28858637105121
 20
258.7113198640256
 30
0.0
 40
9.999998880546476
100
AcDbArc
 50
179.9999935860029
 51
269.9999935860026
  0
LINE
  5
91
330
1F
100
AcDbEntity
  8
MAKE2D$VISIBLE$LINES
100
AcDbLine
 10
131.2912428798881
 20
358.7113209834791
 30
0.0
 11
131.2885662208821
 21
358.7113209834791
 31
0.0
  0
CIRCLE
  5
92
330
1F
100
AcDbEntity
  8
MAKE2D$VISIBLE$LINES
100
AcDbCircle
 10
125.7885676868379
 20
254.2113210533853
 30
0.0
 40
1.499999898719821
  0
ARC
  5
93
330
1F
100
AcDbEntity
  8
MAKE2D$VISIBLE$LINES
100
AcDbCircle
 10
121.2885681239537
 20
358.7113213193155
 30
0.0
 40
2.999999664163799
100
AcDbArc
 50
359.9999935859992
 51
89.99999358600269
  0
ARC
  5
94
330
1F
100
AcDbEntity
  8
MAKE2D$VISIBLE$LINES
100
AcDbCircle
 10
121.2885681239542
 20
258.7113206476437
 30
0.0
 40
2.999999664163956
100
AcDbArc
 50
270.0000064140038
 51
0.0000064139975994
  0
CIRCLE
  5
95
330
1F
100
AcDbEntity
  8
MAKE2D$VISIBLE$LINES
100
AcDbCircle
 10
170.2147773788057
 20
194.1494162215733
 30
0.0
 40
1.099999999999966
  0
CIRCLE
  5
96
330
1F
100
AcDbEntity
  8
MAKE2D$VISIBLE$LINES
100
AcDbCircle
 10
200.2147773788055
 20
204.1494162215733
 30
0.0
 40
1.100000000000023
  0
CIRCLE
  5
97
330
1F
100
AcDbEntity
  8
MAKE2D$VISIBLE$LINES
100
AcDbCircle
 10
210.2147773788057
 20
174.1494162215733
 30
0.0
 40
1.099999999999994
  0
CIRCLE
  5
98
330
1F
100
AcDbEntity
  8
MAKE2D$VISIBLE$LINES
100
AcDbCircle
 10
180.2147773788057
 20
164.1494162215733
 30
0.0
 40
1.099999999999994
  0
LINE
  5
99
330
1F
100
AcDbEntity
  8
MAKE2D$VISIBLE$LINES
100
AcDbLine
 10
152.7147763166093
 20
124.1494182395899
 30
0.0
 11
227.7147755715512
 21
124.1494182395899
 31
0.0
  0
ARC
  5
9A
330
1F
100
AcDbEntity
  8
MAKE2D$VISIBLE$LINES
100
AcDbCircle
 10
227.7147773788057
 20
134.1494162215733
 30
0.0
 40
9.999999999999943
100
AcDbArc
 50
269.9999999999998
 51
0.0000000000009771
  0
LINE
  5
9B
330
1F
100
AcDbEntity
  8
MAKE2D$VISIBLE$LINES
100
AcDbLine
 10
237.714777210679
 20
134.1494162215735
 30
0.0
 11
237.714777210679
 21
234.1494157808984
 31
0.0
  0
ARC
  5
9C
330
1F
100
AcDbEntity
  8
MAKE2D$VISIBLE$LINES
100
AcDbCircle
 10
227.7147773788056
 20
234.1494162215734
 30
0.0
 40
10.0
100
AcDbArc
 50
0.0000000000006514
 51
90.0
  0
LINE
  5
9D
330
1F
100
AcDbEntity
  8
MAKE2D$VISIBLE$LINES
100
AcDbLine
 10
227.7147755715512
 20
244.1494155573809
 30
0.0
 11
152.7147763166093
 21
244.1494155573809
 31
0.0
  0
ARC
  5
9E
330
1F
100
AcDbEntity
  8
MAKE2D$VISIBLE$LINES
100
AcDbCircle
 10
152.7147773788058
 20
234.1494162215734
 30
0.0
 40
9.99999999999997
100
AcDbArc
 50
90.00000608658856
 51
180.0000000000003
  0
LINE
  5
9F
330
1F
100
AcDbEntity
  8
MAKE2D$VISIBLE$LINES
100
AcDbLine
 10
142.7147784027719
 20
234.1494157808984
 30
0.0
 11
142.7147784027719
 21
134.1494161534274
 31
0.0
  0
ARC
  5
A0
330
1F
100
AcDbEntity
  8
MAKE2D$VISIBLE$LINES
100
AcDbCircle
 10
152.7147773788057
 20
134.1494162215731
 30
0.0
 40
9.999999999999801
100
AcDbArc
 50
180.0000003904489
 51
269.9999939134111
  0
CIRCLE
  5
A1
330
1F
100
AcDbEntity
  8
MAKE2D$VISIBLE$LINES
100
AcDbCircle
 10
148.2147773788059
 20
238.6494162215734
 30
0.0
 40
1.5
  0
CIRCLE
  5
A2
330
1F
100
AcDbEntity
  8
MAKE2D$VISIBLE$LINES
100
AcDbCircle
 10
232.2147773788057
 20
129.6494162215733
 30
0.0
 40
1.500000000000085
  0
CIRCLE
  5
A3
330
1F
100
AcDbEntity
  8
MAKE2D$VISIBLE$LINES
100
AcDbCircle
 10
232.2147773788056
 20
238.6494162215733
 30
0.0
 40
1.500000000000028
  0
CIRCLE
  5
A4
330
1F
100
AcDbEntity
  8
MAKE2D$VISIBLE$LINES
100
AcDbCircle
 10
148.2147773788057
 20
129.6494162215733
 30
0.0
 40
1.500000000000057
  0
CIRCLE
  5
A5
330
1F
100
AcDbEntity
  8
MAKE2D$VISIBLE$LINES
100
AcDbCircle
 10
88.78597548200784
 20
210.1644643134878
 30
0.0
 40
1.749999863004859
  0
CIRCLE
  5
A6
330
1F
100
AcDbEntity
  8
MAKE2D$VISIBLE$LINES
100
AcDbCircle
 10
118.9865687203724
 20
210.1390643134879
 30
0.0
 40
1.749999863004973
  0
CIRCLE
  5
A7
330
1F
100
AcDbEntity
  8
MAKE2D$VISIBLE$LINES
100
AcDbCircle
 10
125.7885676868374
 20
129.649416291479
 30
0.0
 40
1.499999898719679
  0
CIRCLE
  5
A8
330
1F
100
AcDbEntity
  8
MAKE2D$VISIBLE$LINES
100
AcDbCircle
 10
118.9865687203726
 20
160.3296643134881
 30
0.0
 40
1.749999863005073
  0
CIRCLE
  5
A9
330
1F
100
AcDbEntity
  8
MAKE2D$VISIBLE$LINES
100
AcDbCircle
 10
66.53558046366672
 20
166.476464313488
 30
0.0
 40
1.749999863004859
  0
LINE
  5
AA
330
1F
100
AcDbEntity
  8
MAKE2D$VISIBLE$LINES
100
AcDbLine
 10
121.2885684597897
 20
124.1494162215734
 30
0.0
 11
46.28858525159646
 21
124.1494162215734
 31
0.0
  0
CIRCLE
  5
AB
330
1F
100
AcDbEntity
  8
MAKE2D$VISIBLE$LINES
100
AcDbCircle
 10
41.78858649366076
 20
129.6494162914788
 30
0.0
 40
1.499999898719679
  0
ARC
  5
AC
330
1F
100
AcDbEntity
  8
MAKE2D$VISIBLE$LINES
100
AcDbCircle
 10
46.28858637105026
 20
134.1494151021196
 30
0.0
 40
9.999998880546206
100
AcDbArc
 50
179.9999935860012
 51
269.9999935860027
  0
LINE
  5
AD
330
1F
100
AcDbEntity
  8
MAKE2D$VISIBLE$LINES
100
AcDbLine
 10
50.2885843560334
 20
174.1494162215733
 30
0.0
 11
54.28858346047033
 21
174.1494162215733
 31
0.0
  0
ARC
  5
AE
330
1F
100
AcDbEntity
  8
MAKE2D$VISIBLE$LINES
100
AcDbCircle
 10
54.28858323657946
 20
176.149415997683
 30
0.0
 40
1.999999776109588
100
AcDbArc
 50
270.0000064140017
 51
0.0000064139889144
  0
LINE
  5
AF
330
1F
100
AcDbEntity
  8
MAKE2D$VISIBLE$LINES
100
AcDbLine
 10
56.2885830126888
 20
176.1494162215734
 30
0.0
 11
56.2885830126888
 21
192.1494162215734
 31
0.0
  0
ARC
  5
B0
330
1F
100
AcDbEntity
  8
MAKE2D$VISIBLE$LINES
100
AcDbCircle
 10
54.28858323657953
 20
192.1494164454641
 30
0.0
 40
1.99999977610929
100
AcDbArc
 50
359.9999935860005
 51
89.9999935860001
  0
LINE
  5
B1
330
1F
100
AcDbEntity
  8
MAKE2D$VISIBLE$LINES
100
AcDbLine
 10
54.28858346047033
 20
194.1494162215734
 30
0.0
 11
50.2885843560334
 21
194.1494162215734
 31
0.0
  0
ARC
  5
B2
330
1F
100
AcDbEntity
  8
MAKE2D$VISIBLE$LINES
100
AcDbCircle
 10
50.28858457992415
 20
192.1494164454641
 30
0.0
 40
1.999999776109247
100
AcDbArc
 50
90.00000641399829
 51
180.0000064139995
  0
LINE
  5
B3
330
1F
100
AcDbEntity
  8
MAKE2D$VISIBLE$LINES
100
AcDbLine
 10
48.29126146282121
 20
192.1494162215734
 30
0.0
 11
48.29126146282121
 21
176.1494162215734
 31
0.0
  0
CIRCLE
  5
B4
330
1F
100
AcDbEntity
  8
MAKE2D$VISIBLE$LINES
100
AcDbCircle
 10
41.78858649366076
 20
238.6494162914784
 30
0.0
 40
1.499999898719679
  0
LINE
  5
B5
330
1F
100
AcDbEntity
  8
MAKE2D$VISIBLE$LINES
100
AcDbLine
 10
36.28858749050411
 20
134.1494162215734
 30
0.0
 11
36.28858749050411
 21
234.1494162215734
 31
0.0
  0
ARC
  5
B6
330
1F
100
AcDbEntity
  8
MAKE2D$VISIBLE$LINES
100
AcDbCircle
 10
46.2885863710503
 20
234.1494173410272
 30
0.0
 40
9.999998880546263
100
AcDbArc
 50
90.00000641399878
 51
180.000006413999
  0
ARC
  5
B7
330
1F
100
AcDbEntity
  8
MAKE2D$VISIBLE$LINES
100
AcDbCircle
 10
121.2885673403361
 20
234.1494173410267
 30
0.0
 40
9.999998880546235
100
AcDbArc
 50
359.9999935860021
 51
89.99999358600262
  0
LINE
  5
B8
330
1F
100
AcDbEntity
  8
MAKE2D$VISIBLE$LINES
100
AcDbLine
 10
46.28858525159646
 20
244.1494162215734
 30
0.0
 11
121.2885684597897
 21
244.1494162215728
 31
0.0
  0
ARC
  5
B9
330
1F
100
AcDbEntity
  8
MAKE2D$VISIBLE$LINES
100
AcDbCircle
 10
50.28858457992408
 20
176.1494159976826
 30
0.0
 40
1.999999776109169
100
AcDbArc
 50
179.9999935859997
 51
269.9999935860035
  0
CIRCLE
  5
BA
330
1F
100
AcDbEntity
  8
MAKE2D$VISIBLE$LINES
100
AcDbCircle
 10
125.7885676868373
 20
238.6494162914779
 30
0.0
 40
1.499999898708197
  0
LINE
  5
BB
330
1F
100
AcDbEntity
  8
MAKE2D$VISIBLE$LINES
100
AcDbLine
 10
131.2885662208823
 20
234.1494162215728
 30
0.0
 11
131.2885662208823
 21
134.1494162215734
 31
0.0
  0
LINE
  5
BC
330
1F
100
AcDbEntity
  8
MAKE2D$VISIBLE$LINES
100
AcDbLine
 10
131.2885662208823
 20
134.1494162215734
 30
0.0
 11
131.2912428798884
 21
134.1494162215734
 31
0.0
  0
LINE
  5
BD
330
1F
100
AcDbEntity
  8
MAKE2D$VISIBLE$LINES
100
AcDbLine
 10
131.2912428798884
 20
234.1494162215728
 30
0.0
 11
131.2885662208823
 21
234.1494162215728
 31
0.0
  0
ARC
  5
BE
330
1F
100
AcDbEntity
  8
MAKE2D$VISIBLE$LINES
100
AcDbCircle
 10
121.2912439993421
 20
134.1494151021197
 30
0.0
 40
9.999998880546292
100
AcDbArc
 50
270.0000064139992
 51
0.0000064139983594
  0
LINE
  5
BF
330
1F
100
AcDbEntity
  8
MAKE2D$VISIBLE$LINES
100
AcDbLine
 10
121.291245118796
 20
124.1494162215734
 30
0.0
 11
121.2885684597897
 21
124.1494162215734
 31
0.0
  0
LINE
  5
C0
330
1F
100
AcDbEntity
  8
MAKE2D$VISIBLE$LINES
100
AcDbLine
 10
48.28858480381493
 20
176.1494162215734
 30
0.0
 11
48.29126146282121
 21
176.1494162215734
 31
0.0
  0
LINE
  5
C1
330
1F
100
AcDbEntity
  8
MAKE2D$VISIBLE$LINES
100
AcDbLine
 10
48.29126146282121
 20
192.1494162215734
 30
0.0
 11
48.28858480381493
 21
192.1494162215734
 31
0.0
  0
ARC
  5
C2
330
1F
100
AcDbEntity
  8
MAKE2D$VISIBLE$LINES
100
AcDbCircle
 10
152.7147754757347
 20
108.5137022716937
 30
0.0
 40
2.999999664164126
100
AcDbArc
 50
90.00000641399923
 51
180.0000064139949
  0
LINE
  5
C3
330
1F
100
AcDbEntity
  8
MAKE2D$VISIBLE$LINES
100
AcDbLine
 10
152.7147751398985
 20
111.5137019358578
 30
0.0
 11
227.7147583480913
 21
111.5137019358578
 31
0.0
  0
ARC
  5
C4
330
1F
100
AcDbEntity
  8
MAKE2D$VISIBLE$LINES
100
AcDbCircle
 10
152.7147762593524
 20
108.5137030553115
 30
0.0
 40
9.99999888054649
100
AcDbArc
 50
90.00000641399902
 51
180.0000064139988
  0
CIRCLE
  5
C5
330
1F
100
AcDbEntity
  8
MAKE2D$VISIBLE$LINES
100
AcDbCircle
 10
148.2147763819627
 20
113.0137020057624
 30
0.0
 40
1.499999898719807
  0
LINE
  5
C6
330
1F
100
AcDbEntity
  8
MAKE2D$VISIBLE$LINES
100
AcDbLine
 10
152.7147751398985
 20
118.5137019358579
 30
0.0
 11
227.7147583480913
 21
118.5137019358579
 31
0.0
  0
CIRCLE
  5
C7
330
1F
100
AcDbEntity
  8
MAKE2D$VISIBLE$LINES
100
AcDbCircle
 10
232.2147575751391
 20
113.013702005763
 30
0.0
 40
1.499999898708211
  0
ARC
  5
C8
330
1F
100
AcDbEntity
  8
MAKE2D$VISIBLE$LINES
100
AcDbCircle
 10
227.7174338876434
 20
108.5137030553114
 30
0.0
 40
9.999998880546604
100
AcDbArc
 50
359.9999935860038
 51
89.9999935859992
  0
LINE
  5
C9
330
1F
100
AcDbEntity
  8
MAKE2D$VISIBLE$LINES
100
AcDbLine
 10
237.71743276819
 20
108.5137019358578
 30
0.0
 11
237.7174327681909
 21
8.513701935858592
 31
0.0
  0
ARC
  5
CA
330
1F
100
AcDbEntity
  8
MAKE2D$VISIBLE$LINES
100
AcDbCircle
 10
227.7174338876446
 20
8.513700816404793
 30
0.0
 40
9.999998880546377
100
AcDbArc
 50
270.0000064139994
 51
0.0000064139981965
  0
LINE
  5
CB
330
1F
100
AcDbEntity
  8
MAKE2D$VISIBLE$LINES
100
AcDbLine
 10
227.7147583480922
 20
-1.486298064141494
 30
0.0
 11
152.7147751398992
 21
-1.486298064142062
 31
0.0
  0
LINE
  5
CC
330
1F
100
AcDbEntity
  8
MAKE2D$VISIBLE$LINES
100
AcDbLine
 10
230.714757676419
 20
108.5137019358579
 30
0.0
 11
230.7147576764199
 21
8.513701935858592
 31
0.0
  0
LINE
  5
CD
330
1F
100
AcDbEntity
  8
MAKE2D$VISIBLE$LINES
100
AcDbLine
 10
149.7147758115715
 20
8.51370193585791
 30
0.0
 11
149.7147758115706
 21
108.5137019358578
 31
0.0
  0
LINE
  5
CE
330
1F
100
AcDbEntity
  8
MAKE2D$VISIBLE$LINES
100
AcDbLine
 10
142.7147773788066
 20
8.51370193585791
 30
0.0
 11
142.7147773788059
 21
108.5137019358578
 31
0.0
  0
CIRCLE
  5
CF
330
1F
100
AcDbEntity
  8
MAKE2D$VISIBLE$LINES
100
AcDbCircle
 10
148.2147763819636
 20
4.013702005763264
 30
0.0
 40
1.499999898719807
  0
ARC
  5
D0
330
1F
100
AcDbEntity
  8
MAKE2D$VISIBLE$LINES
100
AcDbCircle
 10
152.7174521347418
 20
8.513701600022031
 30
0.0
 40
2.999999664164069
100
AcDbArc
 50
179.9999935860049
 51
269.9488731819423
  0
LINE
  5
D1
330
1F
100
AcDbEntity
  8
MAKE2D$VISIBLE$LINES
100
AcDbLine
 10
227.7147583480922
 20
5.513701935858506
 30
0.0
 11
152.7147751398992
 21
5.513701935857966
 31
0.0
  0
ARC
  5
D2
330
1F
100
AcDbEntity
  8
MAKE2D$VISIBLE$LINES
100
AcDbCircle
 10
152.714776259353
 20
8.513700816404302
 30
0.0
 40
9.999998880546462
100
AcDbArc
 50
179.9999935860027
 51
269.9999935860026
  0
LINE
  5
D3
330
1F
100
AcDbEntity
  8
MAKE2D$VISIBLE$LINES
100
AcDbLine
 10
237.71743276819
 20
108.5137019358578
 30
0.0
 11
237.7147561091839
 21
108.5137019358578
 31
0.0
  0
CIRCLE
  5
D4
330
1F
100
AcDbEntity
  8
MAKE2D$VISIBLE$LINES
100
AcDbCircle
 10
232.2147575751397
 20
4.01370200576402
 30
0.0
 40
1.499999898719835
  0
ARC
  5
D5
330
1F
100
AcDbEntity
  8
MAKE2D$VISIBLE$LINES
100
AcDbCircle
 10
227.7147580122555
 20
108.5137022716943
 30
0.0
 40
2.999999664163728
100
AcDbArc
 50
359.9999935859983
 51
89.99999358600402
  0
ARC
  5
D6
330
1F
100
AcDbEntity
  8
MAKE2D$VISIBLE$LINES
100
AcDbCircle
 10
227.7147580122562
 20
8.51370160002233
 30
0.0
 40
2.999999664163814
100
AcDbArc
 50
270.0000064140013
 51
0.0000064140013991
  0
ARC
  5
D7
330
1F
100
AcDbEntity
  8
MAKE2D$VISIBLE$LINES
100
AcDbCircle
 10
46.28858558743303
 20
108.5137022716935
 30
0.0
 40
2.999999664164297
100
AcDbArc
 50
90.00000641399801
 51
180.0000064139916
  0
LINE
  5
D8
330
1F
100
AcDbEntity
  8
MAKE2D$VISIBLE$LINES
100
AcDbLine
 10
46.28858525159691
 20
111.5137019358578
 30
0.0
 11
121.2885684597897
 21
111.5137019358578
 31
0.0
  0
ARC
  5
D9
330
1F
100
AcDbEntity
  8
MAKE2D$VISIBLE$LINES
100
AcDbCircle
 10
46.28858637105086
 20
108.5137030553112
 30
0.0
 40
9.999998880546803
100
AcDbArc
 50
90.00000641399937
 51
180.0000064139971
  0
CIRCLE
  5
DA
330
1F
100
AcDbEntity
  8
MAKE2D$VISIBLE$LINES
100
AcDbCircle
 10
41.78858649366086
 20
113.0137020057624
 30
0.0
 40
1.499999898719807
  0
LINE
  5
DB
330
1F
100
AcDbEntity
  8
MAKE2D$VISIBLE$LINES
100
AcDbLine
 10
46.28858525159691
 20
118.5137019358579
 30
0.0
 11
121.2885684597897
 21
118.5137019358579
 31
0.0
  0
CIRCLE
  5
DC
330
1F
100
AcDbEntity
  8
MAKE2D$VISIBLE$LINES
100
AcDbCircle
 10
125.7885676868372
 20
113.0137020057629
 30
0.0
 40
1.499999898708225
  0
ARC
  5
DD
330
1F
100
AcDbEntity
  8
MAKE2D$VISIBLE$LINES
100
AcDbCircle
 10
121.2912439993417
 20
108.5137030553114
 30
0.0
 40
9.999998880546704
100
AcDbArc
 50
359.9999935860043
 51
89.99999358599864
  0
LINE
  5
DE
330
1F
100
AcDbEntity
  8
MAKE2D$VISIBLE$LINES
100
AcDbLine
 10
131.2912428798884
 20
108.5137019358578
 30
0.0
 11
131.2912428798893
 21
8.513701935858592
 31
0.0
  0
ARC
  5
DF
330
1F
100
AcDbEntity
  8
MAKE2D$VISIBLE$LINES
100
AcDbCircle
 10
121.291243999343
 20
8.513700816404736
 30
0.0
 40
9.99999888054632
100
AcDbArc
 50
270.0000064139992
 51
0.0000064139985222
  0
LINE
  5
E0
330
1F
100
AcDbEntity
  8
MAKE2D$VISIBLE$LINES
100
AcDbLine
 10
121.2885684597906
 20
-1.486298064141494
 30
0.0
 11
46.2885852515976
 21
-1.486298064142062
 31
0.0
  0
LINE
  5
E1
330
1F
100
AcDbEntity
  8
MAKE2D$VISIBLE$LINES
100
AcDbLine
 10
124.2885677881174
 20
108.5137019358579
 30
0.0
 11
124.2885677881183
 21
8.513701935858592
 31
0.0
  0
LINE
  5
E2
330
1F
100
AcDbEntity
  8
MAKE2D$VISIBLE$LINES
100
AcDbLine
 10
43.28858592326966
 20
8.51370193585791
 30
0.0
 11
43.28858592326898
 21
108.5137019358578
 31
0.0
  0
LINE
  5
E3
330
1F
100
AcDbEntity
  8
MAKE2D$VISIBLE$LINES
100
AcDbLine
 10
36.28858749050502
 20
8.51370193585791
 30
0.0
 11
36.28858749050411
 21
108.5137019358578
 31
0.0
  0
CIRCLE
  5
E4
330
1F
100
AcDbEntity
  8
MAKE2D$VISIBLE$LINES
100
AcDbCircle
 10
41.78858649366188
 20
4.013702005763147
 30
0.0
 40
1.499999898719921
  0
ARC
  5
E5
330
1F
100
AcDbEntity
  8
MAKE2D$VISIBLE$LINES
100
AcDbCircle
 10
46.29126224644018
 20
8.513701600021998
 30
0.0
 40
2.99999966416402
100
AcDbArc
 50
179.9999935860042
 51
269.9488731819437
  0
LINE
  5
E6
330
1F
100
AcDbEntity
  8
MAKE2D$VISIBLE$LINES
100
AcDbLine
 10
121.2885684597906
 20
5.513701935858506
 30
0.0
 11
46.2885852515976
 21
5.513701935857966
 31
0.0
  0
ARC
  5
E7
330
1F
100
AcDbEntity
  8
MAKE2D$VISIBLE$LINES
100
AcDbCircle
 10
46.28858637105134
 20
8.513700816404224
 30
0.0
 40
9.999998880546377
100
AcDbArc
 50
179.9999935860023
 51
269.9999935860031
  0
LINE
  5
E8
330
1F
100
AcDbEntity
  8
MAKE2D$VISIBLE$LINES
100
AcDbLine
 10
131.2912428798884
 20
108.5137019358578
 30
0.0
 11
131.2885662208823
 21
108.5137019358578
 31
0.0
  0
CIRCLE
  5
E9
330
1F
100
AcDbEntity
  8
MAKE2D$VISIBLE$LINES
100
AcDbCircle
 10
125.7885676868379
 20
4.013702005764031
 30
0.0
 40
1.499999898719821
  0
ARC
  5
EA
330
1F
100
AcDbEntity
  8
MAKE2D$VISIBLE$LINES
100
AcDbCircle
 10
121.2885681239538
 20
108.5137022716941
 30
0.0
 40
2.999999664163913
100
AcDbArc
 50
359.9999935860024
 51
89.99999358600485
  0
ARC
  5
EB
330
1F
100
AcDbEntity
  8
MAKE2D$VISIBLE$LINES
100
AcDbCircle
 10
121.2885681239544
 20
8.513701600022443
 30
0.0
 40
2.999999664163927
100
AcDbArc
 50
270.0000064140041
 51
0.0000064139992279
  0
ARC
  5
EC
330
1F
100
AcDbEntity
  8
MAKE2D$VISIBLE$LINES
100
AcDbCircle
 10
354.5909659519271
 20
108.5137022716936
 30
0.0
 40
2.999999664164211
100
AcDbArc
 50
90.00000641400085
 51
180.0000064139932
  0
LINE
  5
ED
330
1F
100
AcDbEntity
  8
MAKE2D$VISIBLE$LINES
100
AcDbLine
 10
354.5909656160908
 20
111.5137019358578
 30
0.0
 11
429.5909488242839
 21
111.5137019358578
 31
0.0
  0
ARC
  5
EE
330
1F
100
AcDbEntity
  8
MAKE2D$VISIBLE$LINES
100
AcDbCircle
 10
354.5909667355449
 20
108.5137030553111
 30
0.0
 40
9.99999888054686
100
AcDbArc
 50
90.000006414
 51
180.0000064139967
  0
CIRCLE
  5
EF
330
1F
100
AcDbEntity
  8
MAKE2D$VISIBLE$LINES
100
AcDbCircle
 10
350.090966858155
 20
113.0137020057626
 30
0.0
 40
1.499999898719636
  0
LINE
  5
F0
330
1F
100
AcDbEntity
  8
MAKE2D$VISIBLE$LINES
100
AcDbLine
 10
354.5909656160908
 20
118.5137019358579
 30
0.0
 11
429.5909488242839
 21
118.5137019358579
 31
0.0
  0
CIRCLE
  5
F1
330
1F
100
AcDbEntity
  8
MAKE2D$VISIBLE$LINES
100
AcDbCircle
 10
434.0909480513312
 20
113.013702005763
 30
0.0
 40
1.499999898708211
  0
ARC
  5
F2
330
1F
100
AcDbEntity
  8
MAKE2D$VISIBLE$LINES
100
AcDbCircle
 10
429.5936243638358
 20
108.5137030553115
 30
0.0
 40
9.999998880546576
100
AcDbArc
 50
359.9999935860036
 51
89.99999358599806
  0
LINE
  5
F3
330
1F
100
AcDbEntity
  8
MAKE2D$VISIBLE$LINES
100
AcDbLine
 10
439.5936232443823
 20
108.5137019358578
 30
0.0
 11
439.5936232443832
 21
8.513701935858592
 31
0.0
  0
ARC
  5
F4
330
1F
100
AcDbEntity
  8
MAKE2D$VISIBLE$LINES
100
AcDbCircle
 10
429.5936243638372
 20
8.513700816404423
 30
0.0
 40
9.999998880546007
100
AcDbArc
 50
270.000006413999
 51
0.0000064140003135
  0
LINE
  5
F5
330
1F
100
AcDbEntity
  8
MAKE2D$VISIBLE$LINES
100
AcDbLine
 10
429.5909488242848
 20
-1.486298064141494
 30
0.0
 11
354.5909656160918
 21
-1.486298064142062
 31
0.0
  0
LINE
  5
F6
330
1F
100
AcDbEntity
  8
MAKE2D$VISIBLE$LINES
100
AcDbLine
 10
432.5909481526116
 20
108.5137019358579
 30
0.0
 11
432.5909481526125
 21
8.513701935858592
 31
0.0
  0
LINE
  5
F7
330
1F
100
AcDbEntity
  8
MAKE2D$VISIBLE$LINES
100
AcDbLine
 10
351.5909662877636
 20
8.51370193585791
 30
0.0
 11
351.5909662877629
 21
108.5137019358578
 31
0.0
  0
LINE
  5
F8
330
1F
100
AcDbEntity
  8
MAKE2D$VISIBLE$LINES
100
AcDbLine
 10
344.590967854999
 20
8.51370193585791
 30
0.0
 11
344.5909678549983
 21
108.5137019358578
 31
0.0
  0
CIRCLE
  5
F9
330
1F
100
AcDbEntity
  8
MAKE2D$VISIBLE$LINES
100
AcDbCircle
 10
350.090966858156
 20
4.013702005763159
 30
0.0
 40
1.499999898719921
  0
ARC
  5
FA
330
1F
100
AcDbEntity
  8
MAKE2D$VISIBLE$LINES
100
AcDbCircle
 10
354.5936426109341
 20
8.513701600021676
 30
0.0
 40
2.999999664163757
100
AcDbArc
 50
179.9999935859981
 51
269.9488731819429
  0
LINE
  5
FB
330
1F
100
AcDbEntity
  8
MAKE2D$VISIBLE$LINES
100
AcDbLine
 10
429.5909488242848
 20
5.513701935858506
 30
0.0
 11
354.5909656160915
 21
5.513701935857966
 31
0.0
  0
ARC
  5
FC
330
1F
100
AcDbEntity
  8
MAKE2D$VISIBLE$LINES
100
AcDbCircle
 10
354.5909667355452
 20
8.51370081640411
 30
0.0
 40
9.999998880546292
100
AcDbArc
 50
179.9999935860016
 51
269.9999935860035
  0
LINE
  5
FD
330
1F
100
AcDbEntity
  8
MAKE2D$VISIBLE$LINES
100
AcDbLine
 10
439.5936232443823
 20
108.5137019358578
 30
0.0
 11
439.5909465853762
 21
108.5137019358578
 31
0.0
  0
CIRCLE
  5
FE
330
1F
100
AcDbEntity
  8
MAKE2D$VISIBLE$LINES
100
AcDbCircle
 10
434.0909480513317
 20
4.013702005764003
 30
0.0
 40
1.499999898719921
  0
ARC
  5
FF
330
1F
100
AcDbEntity
  8
MAKE2D$VISIBLE$LINES
100
AcDbCircle
 10
429.5909484884479
 20
108.5137022716943
 30
0.0
 40
2.999999664163757
100
AcDbArc
 50
359.9999935859987
 51
89.9999935860024
  0
ARC
  5
100
330
1F
100
AcDbEntity
  8
MAKE2D$VISIBLE$LINES
100
AcDbCircle
 10
429.5909484884483
 20
8.5137016000225
 30
0.0
 40
2.999999664163984
100
AcDbArc
 50
270.0000064140052
 51
0.0000064139981423
  0
ARC
  5
101
330
1F
100
AcDbEntity
  8
MAKE2D$VISIBLE$LINES
100
AcDbCircle
 10
354.5909659519271
 20
234.149416557409
 30
0.0
 40
2.999999664164211
100
AcDbArc
 50
90.00000641400085
 51
180.0000064139932
  0
LINE
  5
102
330
1F
100
AcDbEntity
  8
MAKE2D$VISIBLE$LINES
100
AcDbLine
 10
354.5909656160908
 20
237.1494162215732
 30
0.0
 11
429.5909488242839
 21
237.1494162215732
 31
0.0
  0
ARC
  5
103
330
1F
100
AcDbEntity
  8
MAKE2D$VISIBLE$LINES
100
AcDbCircle
 10
354.5909667355448
 20
234.1494173410265
 30
0.0
 40
9.999998880546888
100
AcDbArc
 50
90.00000641399967
 51
180.0000064139966
  0
CIRCLE
  5
104
330
1F
100
AcDbEntity
  8
MAKE2D$VISIBLE$LINES
100
AcDbCircle
 10
350.090966858155
 20
238.649416291478
 30
0.0
 40
1.499999898719636
  0
LINE
  5
105
330
1F
100
AcDbEntity
  8
MAKE2D$VISIBLE$LINES
100
AcDbLine
 10
354.5909656160908
 20
244.1494162215733
 30
0.0
 11
429.5909488242839
 21
244.1494162215733
 31
0.0
  0
CIRCLE
  5
106
330
1F
100
AcDbEntity
  8
MAKE2D$VISIBLE$LINES
100
AcDbCircle
 10
434.0909480513312
 20
238.6494162914784
 30
0.0
 40
1.499999898708211
  0
ARC
  5
107
330
1F
100
AcDbEntity
  8
MAKE2D$VISIBLE$LINES
100
AcDbCircle
 10
429.5936243638358
 20
234.1494173410269
 30
0.0
 40
9.999998880546519
100
AcDbArc
 50
359.9999935860031
 51
89.99999358599806
  0
LINE
  5
108
330
1F
100
AcDbEntity
  8
MAKE2D$VISIBLE$LINES
100
AcDbLine
 10
439.5936232443823
 20
234.1494162215732
 30
0.0
 11
439.5936232443832
 21
134.149416221574
 31
0.0
  0
ARC
  5
109
330
1F
100
AcDbEntity
  8
MAKE2D$VISIBLE$LINES
100
AcDbCircle
 10
429.5936243638373
 20
134.1494151021198
 30
0.0
 40
9.99999888054595
100
AcDbArc
 50
270.0000064139987
 51
0.0000064140003135
  0
LINE
  5
10A
330
1F
100
AcDbEntity
  8
MAKE2D$VISIBLE$LINES
100
AcDbLine
 10
429.5909488242848
 20
124.1494162215739
 30
0.0
 11
354.5909656160918
 21
124.1494162215733
 31
0.0
  0
LINE
  5
10B
330
1F
100
AcDbEntity
  8
MAKE2D$VISIBLE$LINES
100
AcDbLine
 10
432.5909481526116
 20
234.1494162215733
 30
0.0
 11
432.5909481526125
 21
134.149416221574
 31
0.0
  0
LINE
  5
10C
330
1F
100
AcDbEntity
  8
MAKE2D$VISIBLE$LINES
100
AcDbLine
 10
351.5909662877636
 20
134.1494162215733
 30
0.0
 11
351.5909662877629
 21
234.1494162215732
 31
0.0
  0
LINE
  5
10D
330
1F
100
AcDbEntity
  8
MAKE2D$VISIBLE$LINES
100
AcDbLine
 10
344.590967854999
 20
134.1494162215733
 30
0.0
 11
344.5909678549983
 21
234.1494162215732
 31
0.0
  0
CIRCLE
  5
10E
330
1F
100
AcDbEntity
  8
MAKE2D$VISIBLE$LINES
100
AcDbCircle
 10
350.090966858156
 20
129.6494162914786
 30
0.0
 40
1.499999898719921
  0
ARC
  5
10F
330
1F
100
AcDbEntity
  8
MAKE2D$VISIBLE$LINES
100
AcDbCircle
 10
354.593642610934
 20
134.1494158857371
 30
0.0
 40
2.9999996641637
100
AcDbArc
 50
179.9999935859981
 51
269.948873181944
  0
LINE
  5
110
330
1F
100
AcDbEntity
  8
MAKE2D$VISIBLE$LINES
100
AcDbLine
 10
429.5909488242848
 20
131.1494162215739
 30
0.0
 11
354.5909656160915
 21
131.1494162215733
 31
0.0
  0
ARC
  5
111
330
1F
100
AcDbEntity
  8
MAKE2D$VISIBLE$LINES
100
AcDbCircle
 10
354.5909667355451
 20
134.1494151021195
 30
0.0
 40
9.999998880546178
100
AcDbArc
 50
179.9999935860015
 51
269.9999935860046
  0
LINE
  5
112
330
1F
100
AcDbEntity
  8
MAKE2D$VISIBLE$LINES
100
AcDbLine
 10
439.5936232443823
 20
234.1494162215732
 30
0.0
 11
439.5909465853762
 21
234.1494162215732
 31
0.0
  0
CIRCLE
  5
113
330
1F
100
AcDbEntity
  8
MAKE2D$VISIBLE$LINES
100
AcDbCircle
 10
434.0909480513317
 20
129.6494162914793
 30
0.0
 40
1.499999898719921
  0
ARC
  5
114
330
1F
100
AcDbEntity
  8
MAKE2D$VISIBLE$LINES
100
AcDbCircle
 10
429.5909484884479
 20
234.1494165574097
 30
0.0
 40
2.999999664163757
100
AcDbArc
 50
359.9999935859987
 51
89.9999935860024
  0
ARC
  5
115
330
1F
100
AcDbEntity
  8
MAKE2D$VISIBLE$LINES
100
AcDbCircle
 10
429.5909484884484
 20
134.1494158857377
 30
0.0
 40
2.99999966416387
100
AcDbArc
 50
270.000006414003
 51
0.0000064140008563
  0
ARC
  5
116
330
1F
100
AcDbEntity
  8
MAKE2D$VISIBLE$LINES
100
AcDbCircle
 10
354.5909659519271
 20
358.7113213193149
 30
0.0
 40
2.999999664164211
100
AcDbArc
 50
90.00000641400085
 51
180.0000064139943
  0
LINE
  5
117
330
1F
100
AcDbEntity
  8
MAKE2D$VISIBLE$LINES
100
AcDbLine
 10
354.5909656160908
 20
361.7113209834791
 30
0.0
 11
429.5909488242839
 21
361.7113209834791
 31
0.0
  0
ARC
  5
118
330
1F
100
AcDbEntity
  8
MAKE2D$VISIBLE$LINES
100
AcDbCircle
 10
354.5909667355448
 20
358.7113221029325
 30
0.0
 40
9.999998880546803
100
AcDbArc
 50
90.00000641399933
 51
180.0000064139967
  0
CIRCLE
  5
119
330
1F
100
AcDbEntity
  8
MAKE2D$VISIBLE$LINES
100
AcDbCircle
 10
350.090966858155
 20
363.2113210533839
 30
0.0
 40
1.499999898719636
  0
LINE
  5
11A
330
1F
100
AcDbEntity
  8
MAKE2D$VISIBLE$LINES
100
AcDbLine
 10
354.5909656160908
 20
368.7113209834793
 30
0.0
 11
429.5909488242839
 21
368.7113209834793
 31
0.0
  0
CIRCLE
  5
11B
330
1F
100
AcDbEntity
  8
MAKE2D$VISIBLE$LINES
100
AcDbCircle
 10
434.0909480513312
 20
363.2113210533843
 30
0.0
 40
1.499999898708154
  0
ARC
  5
11C
330
1F
100
AcDbEntity
  8
MAKE2D$VISIBLE$LINES
100
AcDbCircle
 10
429.5936243638361
 20
358.711322102933
 30
0.0
 40
9.999998880546292
100
AcDbArc
 50
359.9999935860026
 51
89.99999358599969
  0
LINE
  5
11D
330
1F
100
AcDbEntity
  8
MAKE2D$VISIBLE$LINES
100
AcDbLine
 10
439.5936232443823
 20
358.7113209834791
 30
0.0
 11
439.5936232443832
 21
258.7113209834798
 31
0.0
  0
ARC
  5
11E
330
1F
100
AcDbEntity
  8
MAKE2D$VISIBLE$LINES
100
AcDbCircle
 10
429.5936243638371
 20
258.7113198640257
 30
0.0
 40
9.999998880546036
100
AcDbArc
 50
270.0000064139994
 51
0.0000064140003135
  0
LINE
  5
11F
330
1F
100
AcDbEntity
  8
MAKE2D$VISIBLE$LINES
100
AcDbLine
 10
429.5909488242848
 20
248.7113209834798
 30
0.0
 11
354.5909656160918
 21
248.7113209834792
 31
0.0
  0
LINE
  5
120
330
1F
100
AcDbEntity
  8
MAKE2D$VISIBLE$LINES
100
AcDbLine
 10
432.5909481526116
 20
358.7113209834793
 30
0.0
 11
432.5909481526125
 21
258.7113209834798
 31
0.0
  0
LINE
  5
121
330
1F
100
AcDbEntity
  8
MAKE2D$VISIBLE$LINES
100
AcDbLine
 10
351.5909662877636
 20
258.7113209834791
 30
0.0
 11
351.5909662877629
 21
358.7113209834791
 31
0.0
  0
LINE
  5
122
330
1F
100
AcDbEntity
  8
MAKE2D$VISIBLE$LINES
100
AcDbLine
 10
344.590967854999
 20
258.7113209834791
 30
0.0
 11
344.5909678549983
 21
358.7113209834791
 31
0.0
  0
CIRCLE
  5
123
330
1F
100
AcDbEntity
  8
MAKE2D$VISIBLE$LINES
100
AcDbCircle
 10
350.090966858156
 20
254.2113210533845
 30
0.0
 40
1.499999898719921
  0
ARC
  5
124
330
1F
100
AcDbEntity
  8
MAKE2D$VISIBLE$LINES
100
AcDbCircle
 10
354.593642610934
 20
258.7113206476429
 30
0.0
 40
2.9999996641637
100
AcDbArc
 50
179.999993585997
 51
269.948873181944
  0
LINE
  5
125
330
1F
100
AcDbEntity
  8
MAKE2D$VISIBLE$LINES
100
AcDbLine
 10
429.5909488242848
 20
255.7113209834798
 30
0.0
 11
354.5909656160915
 21
255.7113209834793
 31
0.0
  0
ARC
  5
126
330
1F
100
AcDbEntity
  8
MAKE2D$VISIBLE$LINES
100
AcDbCircle
 10
354.5909667355452
 20
258.7113198640254
 30
0.0
 40
9.999998880546292
100
AcDbArc
 50
179.999993586002
 51
269.9999935860035
  0
LINE
  5
127
330
1F
100
AcDbEntity
  8
MAKE2D$VISIBLE$LINES
100
AcDbLine
 10
439.5936232443823
 20
358.7113209834791
 30
0.0
 11
439.5909465853762
 21
358.7113209834791
 31
0.0
  0
CIRCLE
  5
128
330
1F
100
AcDbEntity
  8
MAKE2D$VISIBLE$LINES
100
AcDbCircle
 10
434.0909480513317
 20
254.2113210533852
 30
0.0
 40
1.499999898719921
  0
ARC
  5
129
330
1F
100
AcDbEntity
  8
MAKE2D$VISIBLE$LINES
100
AcDbCircle
 10
429.5909484884479
 20
358.7113213193156
 30
0.0
 40
2.9999996641637
100
AcDbArc
 50
359.999993585997
 51
89.99999358600458
  0
ARC
  5
12A
330
1F
100
AcDbEntity
  8
MAKE2D$VISIBLE$LINES
100
AcDbCircle
 10
429.5909484884482
 20
258.7113206476438
 30
0.0
 40
2.999999664164069
100
AcDbArc
 50
270.0000064140062
 51
0.0000064139954282
  0
ARC
  5
12B
330
1F
100
AcDbEntity
  8
MAKE2D$VISIBLE$LINES
100
AcDbCircle
 10
254.7266802376403
 20
108.5137022716936
 30
0.0
 40
2.999999664164211
100
AcDbArc
 50
90.00000641400031
 51
180.0000064139932
  0
LINE
  5
12C
330
1F
100
AcDbEntity
  8
MAKE2D$VISIBLE$LINES
100
AcDbLine
 10
254.7266799018041
 20
111.5137019358578
 30
0.0
 11
329.726663109997
 21
111.5137019358578
 31
0.0
  0
ARC
  5
12D
330
1F
100
AcDbEntity
  8
MAKE2D$VISIBLE$LINES
100
AcDbCircle
 10
254.7266810212579
 20
108.5137030553116
 30
0.0
 40
9.999998880546434
100
AcDbArc
 50
90.00000641399869
 51
180.0000064139992
  0
CIRCLE
  5
12E
330
1F
100
AcDbEntity
  8
MAKE2D$VISIBLE$LINES
100
AcDbCircle
 10
250.2266811438682
 20
113.0137020057625
 30
0.0
 40
1.499999898719807
  0
LINE
  5
12F
330
1F
100
AcDbEntity
  8
MAKE2D$VISIBLE$LINES
100
AcDbLine
 10
254.7266799018041
 20
118.5137019358579
 30
0.0
 11
329.726663109997
 21
118.5137019358579
 31
0.0
  0
CIRCLE
  5
130
330
1F
100
AcDbEntity
  8
MAKE2D$VISIBLE$LINES
100
AcDbCircle
 10
334.2266623370446
 20
113.013702005763
 30
0.0
 40
1.499999898708211
  0
ARC
  5
131
330
1F
100
AcDbEntity
  8
MAKE2D$VISIBLE$LINES
100
AcDbCircle
 10
329.729338649549
 20
108.5137030553113
 30
0.0
 40
9.999998880546746
100
AcDbArc
 50
359.9999935860045
 51
89.99999358599838
  0
LINE
  5
132
330
1F
100
AcDbEntity
  8
MAKE2D$VISIBLE$LINES
100
AcDbLine
 10
339.7293375300954
 20
108.5137019358578
 30
0.0
 11
339.7293375300964
 21
8.513701935858592
 31
0.0
  0
ARC
  5
133
330
1F
100
AcDbEntity
  8
MAKE2D$VISIBLE$LINES
100
AcDbCircle
 10
329.7293386495502
 20
8.513700816404622
 30
0.0
 40
9.999998880546206
100
AcDbArc
 50
270.000006414
 51
0.0000064139991736
  0
LINE
  5
134
330
1F
100
AcDbEntity
  8
MAKE2D$VISIBLE$LINES
100
AcDbLine
 10
329.726663109998
 20
-1.486298064141494
 30
0.0
 11
254.726679901805
 21
-1.486298064142062
 31
0.0
  0
LINE
  5
135
330
1F
100
AcDbEntity
  8
MAKE2D$VISIBLE$LINES
100
AcDbLine
 10
332.7266624383248
 20
108.5137019358579
 30
0.0
 11
332.7266624383257
 21
8.513701935858592
 31
0.0
  0
LINE
  5
136
330
1F
100
AcDbEntity
  8
MAKE2D$VISIBLE$LINES
100
AcDbLine
 10
251.726680573477
 20
8.51370193585791
 30
0.0
 11
251.7266805734761
 21
108.5137019358578
 31
0.0
  0
LINE
  5
137
330
1F
100
AcDbEntity
  8
MAKE2D$VISIBLE$LINES
100
AcDbLine
 10
244.7266821407122
 20
8.51370193585791
 30
0.0
 11
244.7266821407115
 21
108.5137019358578
 31
0.0
  0
CIRCLE
  5
138
330
1F
100
AcDbEntity
  8
MAKE2D$VISIBLE$LINES
100
AcDbCircle
 10
250.2266811438693
 20
4.01370200576318
 30
0.0
 40
1.499999898719921
  0
ARC
  5
139
330
1F
100
AcDbEntity
  8
MAKE2D$VISIBLE$LINES
100
AcDbCircle
 10
254.7293568966473
 20
8.513701600021761
 30
0.0
 40
2.999999664163814
100
AcDbArc
 50
179.9999935859997
 51
269.9488731819429
  0
LINE
  5
13A
330
1F
100
AcDbEntity
  8
MAKE2D$VISIBLE$LINES
100
AcDbLine
 10
329.726663109998
 20
5.513701935858506
 30
0.0
 11
254.7266799018047
 21
5.513701935857966
 31
0.0
  0
ARC
  5
13B
330
1F
100
AcDbEntity
  8
MAKE2D$VISIBLE$LINES
100
AcDbCircle
 10
254.7266810212585
 20
8.513700816404224
 30
0.0
 40
9.999998880546405
100
AcDbArc
 50
179.9999935860023
 51
269.999993586003
  0
LINE
  5
13C
330
1F
100
AcDbEntity
  8
MAKE2D$VISIBLE$LINES
100
AcDbLine
 10
339.7293375300954
 20
108.5137019358578
 30
0.0
 11
339.7266608710894
 21
108.5137019358578
 31
0.0
  0
CIRCLE
  5
13D
330
1F
100
AcDbEntity
  8
MAKE2D$VISIBLE$LINES
100
AcDbCircle
 10
334.2266623370452
 20
4.013702005764003
 30
0.0
 40
1.499999898719807
  0
ARC
  5
13E
330
1F
100
AcDbEntity
  8
MAKE2D$VISIBLE$LINES
100
AcDbCircle
 10
329.7266627741612
 20
108.5137022716944
 30
0.0
 40
2.999999664163586
100
AcDbArc
 50
359.999993585997
 51
89.99999358600675
  0
ARC
  5
13F
330
1F
100
AcDbEntity
  8
MAKE2D$VISIBLE$LINES
100
AcDbCircle
 10
329.7266627741616
 20
8.513701600022642
 30
0.0
 40
2.999999664164126
100
AcDbArc
 50
270.000006414003
 51
0.0000064139954282
  0
ARC
  5
140
330
1F
100
AcDbEntity
  8
MAKE2D$VISIBLE$LINES
100
AcDbCircle
 10
329.7266627741616
 20
134.149415885738
 30
0.0
 40
2.999999664164098
100
AcDbArc
 50
270.0000064140074
 51
0.0000064139965138
  0
ARC
  5
141
330
1F
100
AcDbEntity
  8
MAKE2D$VISIBLE$LINES
100
AcDbCircle
 10
329.7266627741612
 20
234.1494165574095
 30
0.0
 40
2.99999966416387
100
AcDbArc
 50
359.9999935860013
 51
89.99999358600132
  0
CIRCLE
  5
142
330
1F
100
AcDbEntity
  8
MAKE2D$VISIBLE$LINES
100
AcDbCircle
 10
334.2266623370453
 20
129.6494162914794
 30
0.0
 40
1.499999898719807
  0
LINE
  5
143
330
1F
100
AcDbEntity
  8
MAKE2D$VISIBLE$LINES
100
AcDbLine
 10
339.7293375300957
 20
234.1494162215732
 30
0.0
 11
339.7266608710897
 21
234.1494162215732
 31
0.0
  0
ARC
  5
144
330
1F
100
AcDbEntity
  8
MAKE2D$VISIBLE$LINES
100
AcDbCircle
 10
254.7266810212585
 20
134.1494151021194
 30
0.0
 40
9.999998880546178
100
AcDbArc
 50
179.9999935860012
 51
269.9999935860043
  0
LINE
  5
145
330
1F
100
AcDbEntity
  8
MAKE2D$VISIBLE$LINES
100
AcDbLine
 10
329.726663109998
 20
131.1494162215739
 30
0.0
 11
254.726679901805
 21
131.1494162215733
 31
0.0
  0
ARC
  5
146
330
1F
100
AcDbEntity
  8
MAKE2D$VISIBLE$LINES
100
AcDbCircle
 10
254.7293568966475
 20
134.1494158857373
 30
0.0
 40
2.999999664163984
100
AcDbArc
 50
179.9999935860029
 51
269.9488731819451
  0
CIRCLE
  5
147
330
1F
100
AcDbEntity
  8
MAKE2D$VISIBLE$LINES
100
AcDbCircle
 10
250.2266811438693
 20
129.6494162914785
 30
0.0
 40
1.499999898719921
  0
LINE
  5
148
330
1F
100
AcDbEntity
  8
MAKE2D$VISIBLE$LINES
100
AcDbLine
 10
244.7266821407124
 20
134.1494162215733
 30
0.0
 11
244.7266821407115
 21
234.1494162215732
 31
0.0
  0
LINE
  5
149
330
1F
100
AcDbEntity
  8
MAKE2D$VISIBLE$LINES
100
AcDbLine
 10
251.726680573477
 20
134.1494162215733
 30
0.0
 11
251.7266805734764
 21
234.1494162215732
 31
0.0
  0
LINE
  5
14A
330
1F
100
AcDbEntity
  8
MAKE2D$VISIBLE$LINES
100
AcDbLine
 10
332.7266624383248
 20
234.1494162215733
 30
0.0
 11
332.7266624383257
 21
134.149416221574
 31
0.0
  0
LINE
  5
14B
330
1F
100
AcDbEntity
  8
MAKE2D$VISIBLE$LINES
100
AcDbLine
 10
329.726663109998
 20
124.1494162215739
 30
0.0
 11
254.726679901805
 21
124.1494162215733
 31
0.0
  0
ARC
  5
14C
330
1F
100
AcDbEntity
  8
MAKE2D$VISIBLE$LINES
100
AcDbCircle
 10
329.7293386495503
 20
134.1494151021202
 30
0.0
 40
9.999998880546405
100
AcDbArc
 50
270.0000064139996
 51
0.000006413997708
  0
LINE
  5
14D
330
1F
100
AcDbEntity
  8
MAKE2D$VISIBLE$LINES
100
AcDbLine
 10
339.7293375300957
 20
234.1494162215732
 30
0.0
 11
339.7293375300966
 21
134.149416221574
 31
0.0
  0
ARC
  5
14E
330
1F
100
AcDbEntity
  8
MAKE2D$VISIBLE$LINES
100
AcDbCircle
 10
329.7293386495492
 20
234.1494173410268
 30
0.0
 40
9.999998880546633
100
AcDbArc
 50
359.9999935860041
 51
89.99999358599871
  0
CIRCLE
  5
14F
330
1F
100
AcDbEntity
  8
MAKE2D$VISIBLE$LINES
100
AcDbCircle
 10
334.2266623370446
 20
238.6494162914783
 30
0.0
 40
1.499999898708211
  0
LINE
  5
150
330
1F
100
AcDbEntity
  8
MAKE2D$VISIBLE$LINES
100
AcDbLine
 10
254.7266799018043
 20
244.1494162215733
 30
0.0
 11
329.7266631099971
 21
244.1494162215733
 31
0.0
  0
CIRCLE
  5
151
330
1F
100
AcDbEntity
  8
MAKE2D$VISIBLE$LINES
100
AcDbCircle
 10
250.2266811438683
 20
238.6494162914778
 30
0.0
 40
1.499999898719778
  0
ARC
  5
152
330
1F
100
AcDbEntity
  8
MAKE2D$VISIBLE$LINES
100
AcDbCircle
 10
254.7266810212582
 20
234.1494173410266
 30
0.0
 40
9.999998880546775
100
AcDbArc
 50
90.00000641399902
 51
180.0000064139972
  0
LINE
  5
153
330
1F
100
AcDbEntity
  8
MAKE2D$VISIBLE$LINES
100
AcDbLine
 10
254.7266799018043
 20
237.1494162215732
 30
0.0
 11
329.7266631099971
 21
237.1494162215732
 31
0.0
  0
ARC
  5
154
330
1F
100
AcDbEntity
  8
MAKE2D$VISIBLE$LINES
100
AcDbCircle
 10
254.7266802376404
 20
234.1494165574089
 30
0.0
 40
2.999999664164297
100
AcDbArc
 50
90.0000064139976
 51
180.0000064139916
  0
ARC
  5
155
330
1F
100
AcDbEntity
  8
MAKE2D$VISIBLE$LINES
100
AcDbCircle
 10
254.7266802376403
 20
358.7113213193149
 30
0.0
 40
2.999999664164211
100
AcDbArc
 50
90.00000641400031
 51
180.0000064139943
  0
LINE
  5
156
330
1F
100
AcDbEntity
  8
MAKE2D$VISIBLE$LINES
100
AcDbLine
 10
254.7266799018041
 20
361.7113209834791
 30
0.0
 11
329.7266631099969
 21
361.7113209834791
 31
0.0
  0
ARC
  5
157
330
1F
100
AcDbEntity
  8
MAKE2D$VISIBLE$LINES
100
AcDbCircle
 10
254.7266810212579
 20
358.7113221029329
 30
0.0
 40
9.999998880546462
100
AcDbArc
 50
90.00000641399885
 51
180.0000064139987
  0
CIRCLE
  5
158
330
1F
100
AcDbEntity
  8
MAKE2D$VISIBLE$LINES
100
AcDbCircle
 10
250.2266811438682
 20
363.2113210533837
 30
0.0
 40
1.499999898719864
  0
LINE
  5
159
330
1F
100
AcDbEntity
  8
MAKE2D$VISIBLE$LINES
100
AcDbLine
 10
254.7266799018041
 20
368.7113209834793
 30
0.0
 11
329.7266631099969
 21
368.7113209834793
 31
0.0
  0
CIRCLE
  5
15A
330
1F
100
AcDbEntity
  8
MAKE2D$VISIBLE$LINES
100
AcDbCircle
 10
334.2266623370446
 20
363.2113210533842
 30
0.0
 40
1.499999898708211
  0
ARC
  5
15B
330
1F
100
AcDbEntity
  8
MAKE2D$VISIBLE$LINES
100
AcDbCircle
 10
329.7293386495492
 20
358.711322102933
 30
0.0
 40
9.999998880546348
100
AcDbArc
 50
359.9999935860026
 51
89.99999358600067
  0
LINE
  5
15C
330
1F
100
AcDbEntity
  8
MAKE2D$VISIBLE$LINES
100
AcDbLine
 10
339.7293375300955
 20
358.7113209834791
 30
0.0
 11
339.7293375300964
 21
258.7113209834798
 31
0.0
  0
ARC
  5
15D
330
1F
100
AcDbEntity
  8
MAKE2D$VISIBLE$LINES
100
AcDbCircle
 10
329.72933864955
 20
258.7113198640261
 30
0.0
 40
9.999998880546434
100
AcDbArc
 50
270.000006414
 51
0.0000064139980337
  0
LINE
  5
15E
330
1F
100
AcDbEntity
  8
MAKE2D$VISIBLE$LINES
100
AcDbLine
 10
329.7266631099978
 20
248.7113209834798
 30
0.0
 11
254.7266799018047
 21
248.7113209834792
 31
0.0
  0
LINE
  5
15F
330
1F
100
AcDbEntity
  8
MAKE2D$VISIBLE$LINES
100
AcDbLine
 10
332.7266624383246
 20
358.7113209834793
 30
0.0
 11
332.7266624383255
 21
258.7113209834798
 31
0.0
  0
LINE
  5
160
330
1F
100
AcDbEntity
  8
MAKE2D$VISIBLE$LINES
100
AcDbLine
 10
251.726680573477
 20
258.7113209834791
 30
0.0
 11
251.7266805734761
 21
358.7113209834791
 31
0.0
  0
LINE
  5
161
330
1F
100
AcDbEntity
  8
MAKE2D$VISIBLE$LINES
100
AcDbLine
 10
244.7266821407122
 20
258.7113209834791
 30
0.0
 11
244.7266821407115
 21
358.7113209834791
 31
0.0
  0
CIRCLE
  5
162
330
1F
100
AcDbEntity
  8
MAKE2D$VISIBLE$LINES
100
AcDbCircle
 10
250.2266811438691
 20
254.2113210533846
 30
0.0
 40
1.499999898719835
  0
ARC
  5
163
330
1F
100
AcDbEntity
  8
MAKE2D$VISIBLE$LINES
100
AcDbCircle
 10
254.7293568966473
 20
258.7113206476432
 30
0.0
 40
2.999999664163984
100
AcDbArc
 50
179.9999935860035
 51
269.948873181944
  0
LINE
  5
164
330
1F
100
AcDbEntity
  8
MAKE2D$VISIBLE$LINES
100
AcDbLine
 10
329.7266631099978
 20
255.7113209834798
 30
0.0
 11
254.7266799018047
 21
255.7113209834793
 31
0.0
  0
ARC
  5
165
330
1F
100
AcDbEntity
  8
MAKE2D$VISIBLE$LINES
100
AcDbCircle
 10
254.7266810212584
 20
258.7113198640254
 30
0.0
 40
9.99999888054632
100
AcDbArc
 50
179.999993586002
 51
269.9999935860035
  0
LINE
  5
166
330
1F
100
AcDbEntity
  8
MAKE2D$VISIBLE$LINES
100
AcDbLine
 10
339.7293375300955
 20
358.7113209834791
 30
0.0
 11
339.7266608710895
 21
358.7113209834791
 31
0.0
  0
CIRCLE
  5
167
330
1F
100
AcDbEntity
  8
MAKE2D$VISIBLE$LINES
100
AcDbCircle
 10
334.2266623370453
 20
254.2113210533853
 30
0.0
 40
1.499999898719807
  0
ARC
  5
168
330
1F
100
AcDbEntity
  8
MAKE2D$VISIBLE$LINES
100
AcDbCircle
 10
329.7266627741611
 20
358.7113213193156
 30
0.0
 40
2.9999996641637
100
AcDbArc
 50
359.999993585997
 51
89.99999358600458
  0
ARC
  5
169
330
1F
100
AcDbEntity
  8
MAKE2D$VISIBLE$LINES
100
AcDbCircle
 10
329.7266627741616
 20
258.7113206476437
 30
0.0
 40
2.999999664163899
100
AcDbArc
 50
270.0000064140041
 51
0.0000064139986851
  0
ENDSEC
  0
SECTION
  2
OBJECTS
  0
DICTIONARY
  5
C
330
0
100
AcDbDictionary
  3
ACAD_GROUP
350
D
  3
ACAD_LAYOUT
350
1A
  3
ACAD_MATERIAL
350
43
  3
ACAD_MLEADERSTYLE
350
293
  3
ACAD_MLINESTYLE
350
17
  3
ACAD_PLOTSETTINGS
350
19
  3
ACAD_SCALELIST
350
47
  3
ACAD_VISUALSTYLE
350
2A
  3
ACDBHEADERROUNDTRIPXREC
350
271
  3
ACDBVARIABLEDICTIONARY
350
291
  0
DICTIONARY
  5
D
102
{ACAD_REACTORS
330
C
102
}
330
C
100
AcDbDictionary
  0
DICTIONARY
  5
1A
102
{ACAD_REACTORS
330
C
102
}
330
C
100
AcDbDictionary
  0
DICTIONARY
  5
43
102
{ACAD_REACTORS
330
C
102
}
330
C
100
AcDbDictionary
  3
BYBLOCK
350
45
  3
BYLAYER
350
44
  3
GLOBAL
350
46
  0
DICTIONARY
  5
293
102
{ACAD_REACTORS
330
C
102
}
330
C
100
AcDbDictionary
  0
DICTIONARY
  5
17
102
{ACAD_REACTORS
330
C
102
}
330
C
100
AcDbDictionary
  3
STANDARD
350
18
  0
DICTIONARY
  5
19
102
{ACAD_REACTORS
330
C
102
}
330
C
100
AcDbDictionary
  0
DICTIONARY
  5
47
102
{ACAD_REACTORS
330
C
102
}
330
C
100
AcDbDictionary
  3
A0
350
48
  3
A1
350
49
  3
A2
350
4A
  3
A3
350
4B
  3
A4
350
4C
  3
A5
350
4D
  3
A6
350
4E
  3
A7
350
4F
  3
A8
350
50
  3
A9
350
51
  3
B0
350
52
  3
B1
350
53
  3
B2
350
54
  3
B3
350
55
  3
B4
350
56
  3
B5
350
57
  3
B6
350
58
  3
B7
350
59
  3
B8
350
5A
  3
B9
350
5B
  3
C0
350
5C
  3
C1
350
5D
  3
C2
350
5E
  3
C3
350
5F
  3
C4
350
60
  3
C5
350
61
  3
C6
350
62
  3
C7
350
63
  3
C8
350
64
  3
C9
350
65
  3
D0
350
66
  3
D1
350
67
  3
D2
350
68
  0
DICTIONARY
  5
2A
102
{ACAD_REACTORS
330
C
102
}
330
C
100
AcDbDictionary
  3
2DWIREFRAME
350
2F
  3
BASIC
350
32
  3
BRIGHTEN
350
36
  3
COLORCHANGE
350
3A
  3
CONCEPTUAL
350
34
  3
DIM
350
35
  3
EDGECOLOROFF
350
3D
  3
FACEPATTERN
350
39
  3
FLAT
350
2B
  3
FLATWITHEDGES
350
2C
  3
GOURAUD
350
2D
  3
GOURAUDWITHEDGES
350
2E
  3
HIDDEN
350
31
  3
JITTEROFF
350
3B
  3
LINEPATTERN
350
38
  3
OVERHANGOFF
350
3C
  3
REALISTIC
350
33
  3
SHADED
350
42
  3
SHADED_WITH_EDGES
350
41
  3
SHADES_OF_GRAY
350
3E
  3
SKETCHY
350
3F
  3
THICKEN
350
37
  3
WIREFRAME
350
30
  3
X-RAY
350
40
  0
DICTIONARY
  5
271
102
{ACAD_REACTORS
330
C
102
}
330
C
100
AcDbDictionary
  3
CEPSNTYPE
350
27A
  3
DIMSTYLEDATA
350
290
  3
FINGERPRINTGUID
350
27B
  3
HYPERLINKBASE
350
274
  3
INSUNITS
350
279
  3
LAYOUTDICT
350
276
  3
LWETCUNION
350
278
  3
PLOTSETDICT
350
277
  3
PSVPSCALE
350
27D
  3
PUCSBASE
350
280
  3
PUCSORGBACK
350
286
  3
PUCSORGBOTTOM
350
282
  3
PUCSORGFRONT
350
285
  3
PUCSORGLEFT
350
283
  3
PUCSORGRIGHT
350
284
  3
PUCSORGTOP
350
281
  3
PUCSORTHOREF
350
27E
  3
PUCSORTHOVIEW
350
27F
  3
STYLESHEET
350
275
  3
TSTACKALIGN
350
272
  3
TSTACKSIZE
350
273
  3
UCSBASE
350
289
  3
UCSORGBACK
350
28F
  3
UCSORGBOTTOM
350
28B
  3
UCSORGFRONT
350
28E
  3
UCSORGLEFT
350
28C
  3
UCSORGRIGHT
350
28D
  3
UCSORGTOP
350
28A
  3
UCSORTHOREF
350
287
  3
UCSORTHOVIEW
350
288
  3
VERSIONGUID
350
27C
  0
DICTIONARY
  5
291
102
{ACAD_REACTORS
330
C
102
}
330
C
100
AcDbDictionary
  3
CANNOSCALE
350
298
  3
DIMASSOC
350
296
  3
HIDETEXT
350
297
  3
MSLTSCALE
350
299
  0
MATERIAL
  5
45
102
{ACAD_REACTORS
330
43
102
}
102
{ACAD_XDICTIONARY
360
29C
102
}
330
43
100
AcDbMaterial
  1
BYBLOCK
  0
MATERIAL
  5
44
102
{ACAD_REACTORS
330
43
102
}
102
{ACAD_XDICTIONARY
360
29A
102
}
330
43
100
AcDbMaterial
  1
BYLAYER
  0
MATERIAL
  5
46
102
{ACAD_REACTORS
330
43
102
}
102
{ACAD_XDICTIONARY
360
29E
102
}
330
43
100
AcDbMaterial
  1
GLOBAL
  0
MLINESTYLE
  5
18
102
{ACAD_REACTORS
330
17
102
}
330
17
100
AcDbMlineStyle
  2
Standard
 70
     0
  3

 62
   256
 51
90.0
 52
90.0
 71
     2
 49
0.5
 62
   256
  6
BYLAYER
 49
-0.5
 62
   256
  6
BYLAYER
  0
ACAD_PROXY_OBJECT
  5
48
102
{ACAD_REACTORS
330
47
102
}
330
47
100
AcDbProxyObject
 90
      499
 91
      503
 93
       41
310
903313A31580
  0
ACAD_PROXY_OBJECT
  5
49
102
{ACAD_REACTORS
330
47
102
}
330
47
100
AcDbProxyObject
 90
      499
 91
      503
 93
      105
310
903313A324000000000000004000
  0
ACAD_PROXY_OBJECT
  5
4A
102
{ACAD_REACTORS
330
47
102
}
330
47
100
AcDbProxyObject
 90
      499
 91
      503
 93
      105
310
903313A344000000000000104000
  0
ACAD_PROXY_OBJECT
  5
4B
102
{ACAD_REACTORS
330
47
102
}
330
47
100
AcDbProxyObject
 90
      499
 91
      503
 93
      105
310
903313A354000000000000144000
  0
ACAD_PROXY_OBJECT
  5
4C
102
{ACAD_REACTORS
330
47
102
}
330
47
100
AcDbProxyObject
 90
      499
 91
      503
 93
      105
310
903313A384000000000000204000
  0
ACAD_PROXY_OBJECT
  5
4D
102
{ACAD_REACTORS
330
47
102
}
330
47
100
AcDbProxyObject
 90
      499
 91
      503
 93
      113
310
904313A31304000000000000244000
  0
ACAD_PROXY_OBJECT
  5
4E
102
{ACAD_REACTORS
330
47
102
}
330
47
100
AcDbProxyObject
 90
      499
 91
      503
 93
      113
310
904313A31364000000000000304000
  0
ACAD_PROXY_OBJECT
  5
4F
102
{ACAD_REACTORS
330
47
102
}
330
47
100
AcDbProxyObject
 90
      499
 91
      503
 93
      113
310
904313A32304000000000000344000
  0
ACAD_PROXY_OBJECT
  5
50
102
{ACAD_REACTORS
330
47
102
}
330
47
100
AcDbProxyObject
 90
      499
 91
      503
 93
      113
310
904313A333040000000000003E4000
  0
ACAD_PROXY_OBJECT
  5
51
102
{ACAD_REACTORS
330
47
102
}
330
47
100
AcDbProxyObject
 90
      499
 91
      503
 93
      113
310
904313A34304000000000000444000
  0
ACAD_PROXY_OBJECT
  5
52
102
{ACAD_REACTORS
330
47
102
}
330
47
100
AcDbProxyObject
 90
      499
 91
      503
 93
      113
310
904313A35304000000000000494000
  0
ACAD_PROXY_OBJECT
  5
53
102
{ACAD_REACTORS
330
47
102
}
330
47
100
AcDbProxyObject
 90
      499
 91
      503
 93
      121
310
905313A3130304000000000000594000
  0
ACAD_PROXY_OBJECT
  5
54
102
{ACAD_REACTORS
330
47
102
}
330
47
100
AcDbProxyObject
 90
      499
 91
      503
 93
      105
310
903323A310000000000000010100
  0
ACAD_PROXY_OBJECT
  5
55
102
{ACAD_REACTORS
330
47
102
}
330
47
100
AcDbProxyObject
 90
      499
 91
      503
 93
      105
310
903343A310000000000000410100
  0
ACAD_PROXY_OBJECT
  5
56
102
{ACAD_REACTORS
330
47
102
}
330
47
100
AcDbProxyObject
 90
      499
 91
      503
 93
      105
310
903383A310000000000000810100
  0
ACAD_PROXY_OBJECT
  5
57
102
{ACAD_REACTORS
330
47
102
}
330
47
100
AcDbProxyObject
 90
      499
 91
      503
 93
      113
310
90431303A310000000000000910100
  0
ACAD_PROXY_OBJECT
  5
58
102
{ACAD_REACTORS
330
47
102
}
330
47
100
AcDbProxyObject
 90
      499
 91
      503
 93
      121
310
9053130303A310000000000001650100
  0
ACAD_PROXY_OBJECT
  5
59
102
{ACAD_REACTORS
330
47
102
}
330
47
100
AcDbProxyObject
 90
      499
 91
      503
 93
      257
310
90E312F31323822203D2031272D3022000000000000200FC000000000000284000
  0
ACAD_PROXY_OBJECT
  5
5A
102
{ACAD_REACTORS
330
47
102
}
330
47
100
AcDbProxyObject
 90
      499
 91
      503
 93
      249
310
90D312F363422203D2031272D3022000000000000240FC000000000000284000
  0
ACAD_PROXY_OBJECT
  5
5B
102
{ACAD_REACTORS
330
47
102
}
330
47
100
AcDbProxyObject
 90
      499
 91
      503
 93
      249
310
90D312F333222203D2031272D3022000000000000280FC000000000000284000
  0
ACAD_PROXY_OBJECT
  5
5C
102
{ACAD_REACTORS
330
47
102
}
330
47
100
AcDbProxyObject
 90
      499
 91
      503
 93
      249
310
90D312F313622203D2031272D30220000000000002C0FC000000000000284000
  0
ACAD_PROXY_OBJECT
  5
5D
102
{ACAD_REACTORS
330
47
102
}
330
47
100
AcDbProxyObject
 90
      499
 91
      503
 93
      249
310
90D332F333222203D2031272D30220000000000002E0FC000000000000284000
  0
ACAD_PROXY_OBJECT
  5
5E
102
{ACAD_REACTORS
330
47
102
}
330
47
100
AcDbProxyObject
 90
      499
 91
      503
 93
      241
310
90C312F3822203D2031272D3022000000000000300FC000000000000284000
  0
ACAD_PROXY_OBJECT
  5
5F
102
{ACAD_REACTORS
330
47
102
}
330
47
100
AcDbProxyObject
 90
      499
 91
      503
 93
      249
310
90D332F313622203D2031272D3022000000000000320FC000000000000284000
  0
ACAD_PROXY_OBJECT
  5
60
102
{ACAD_REACTORS
330
47
102
}
330
47
100
AcDbProxyObject
 90
      499
 91
      503
 93
      241
310
90C312F3422203D2031272D3022000000000000340FC000000000000284000
  0
ACAD_PROXY_OBJECT
  5
61
102
{ACAD_REACTORS
330
47
102
}
330
47
100
AcDbProxyObject
 90
      499
 91
      503
 93
      241
310
90C332F3822203D2031272D3022000000000000360FC000000000000284000
  0
ACAD_PROXY_OBJECT
  5
62
102
{ACAD_REACTORS
330
47
102
}
330
47
100
AcDbProxyObject
 90
      499
 91
      503
 93
      241
310
90C312F3222203D2031272D3022000000000000380FC000000000000284000
  0
ACAD_PROXY_OBJECT
  5
63
102
{ACAD_REACTORS
330
47
102
}
330
47
100
AcDbProxyObject
 90
      499
 91
      503
 93
      241
310
90C332F3422203D2031272D30220000000000003A0FC000000000000284000
  0
ACAD_PROXY_OBJECT
  5
64
102
{ACAD_REACTORS
330
47
102
}
330
47
100
AcDbProxyObject
 90
      499
 91
      503
 93
      161
310
90A3122203D2031272D30224000000000000284000
  0
ACAD_PROXY_OBJECT
  5
65
102
{ACAD_REACTORS
330
47
102
}
330
47
100
AcDbProxyObject
 90
      499
 91
      503
 93
      257
310
90E312D312F3222203D2031272D30220000000000003E0FC000000000000284000
  0
ACAD_PROXY_OBJECT
  5
66
102
{ACAD_REACTORS
330
47
102
}
330
47
100
AcDbProxyObject
 90
      499
 91
      503
 93
      225
310
90A3322203D2031272D302200000000000002100000000000000284000
  0
ACAD_PROXY_OBJECT
  5
67
102
{ACAD_REACTORS
330
47
102
}
330
47
100
AcDbProxyObject
 90
      499
 91
      503
 93
      225
310
90A3622203D2031272D302200000000000006100000000000000284000
  0
ACAD_PROXY_OBJECT
  5
68
102
{ACAD_REACTORS
330
47
102
}
330
47
100
AcDbProxyObject
 90
      499
 91
      503
 93
      249
310
90D31272D3022203D2031272D30220000000000000A100000000000000284000
  0
ACAD_PROXY_OBJECT
  5
2F
102
{ACAD_REACTORS
330
2A
102
}
330
2A
100
AcDbProxyObject
 90
      499
 91
      501
 93
      436
310
42CC9915DA5C99599C985B595049028333333333333E33F0000000000000F90107901411070040501600405405064090741402480A0340
1001
ACAD
1000
AcDbSavedByObjectVersion
1070
     0
  0
ACAD_PROXY_OBJECT
  5
32
102
{ACAD_REACTORS
330
2A
102
}
330
2A
100
AcDbProxyObject
 90
      499
 91
      501
 93
      388
310
4150985CDA58D07406404333333333333E33F0000000000000F90107A41107004050150841D405064090741402480A0350
1001
ACAD
1000
AcDbSavedByObjectVersion
1070
     0
  0
ACAD_PROXY_OBJECT
  5
36
102
{ACAD_REACTORS
330
2A
102
}
330
2A
100
AcDbProxyObject
 90
      499
 91
      501
 93
      428
310
42109C9A59DA1D195B90C409028333333333333E33F0000000000000F9010790141107004050150841D405064090741402480A029950
1001
ACAD
1000
AcDbSavedByObjectVersion
1070
     0
  0
ACAD_PROXY_OBJECT
  5
3A
102
{ACAD_REACTORS
330
2A
102
}
330
2A
100
AcDbProxyObject
 90
      499
 91
      501
 93
      452
310
42D0DBDB1BDC90DA185B99D95104090240C333333333333E33F0000000000000F90108901411070040501508421405064090741402480A0350
1001
ACAD
1000
AcDbSavedByObjectVersion
1070
     0
  0
ACAD_PROXY_OBJECT
  5
34
102
{ACAD_REACTORS
330
2A
102
}
330
2A
100
AcDbProxyObject
 90
      499
 91
      501
 93
      500
310
4290DBDB98D95C1D1D585B10940D028333333333333E33F0000000000000F90107902409070040501000000000018199010841D405064090740C02480A0340
1001
ACAD
1000
AcDbSavedByObjectVersion
1070
     0
  0
ACAD_PROXY_OBJECT
  5
35
102
{ACAD_REACTORS
330
2A
102
}
330
2A
100
AcDbProxyObject
 90
      499
 91
      501
 93
      412
310
40D11A5B50B409028333333333333E33F0000000000000F9010790141107004050150841D405064090741402480A02677FFFFFD0
1001
ACAD
1000
AcDbSavedByObjectVersion
1070
     0
  0
ACAD_PROXY_OBJECT
  5
3D
102
{ACAD_REACTORS
330
2A
102
}
330
2A
100
AcDbProxyObject
 90
      499
 91
      501
 93
      452
310
43115919D950DBDB1BDC93D999916409028333333333333E33F0000000000000F9010790141107004050150841D405064090741402480A0350
1001
ACAD
1000
AcDbSavedByObjectVersion
1070
     0
  0
ACAD_PROXY_OBJECT
  5
39
102
{ACAD_REACTORS
330
2A
102
}
330
2A
100
AcDbProxyObject
 90
      499
 91
      501
 93
      444
310
42D19858D95C185D1D195C9B90F409028333333333333E33F0000000000000F9010790141107004050150841D405064090741402480A0350
1001
ACAD
1000
AcDbSavedByObjectVersion
1070
     0
  0
ACAD_PROXY_OBJECT
  5
2B
102
{ACAD_REACTORS
330
2A
102
}
330
2A
100
AcDbProxyObject
 90
      499
 91
      501
 93
      380
310
41119B185D240901404333333333333E33F0000000000000F9010740A907004050150841D405064090741402480A1B50
1001
ACAD
1000
AcDbSavedByObjectVersion
1070
     0
  0
ACAD_PROXY_OBJECT
  5
2C
102
{ACAD_REACTORS
330
2A
102
}
330
2A
100
AcDbProxyObject
 90
      499
 91
      501
 93
      468
310
43519B185D15DA5D1A115919D95CD0140901404333333333333E33F0000000000000F90107409019070040501600405405064090741402480A1B50
1001
ACAD
1000
AcDbSavedByObjectVersion
1070
     0
  0
ACAD_PROXY_OBJECT
  5
2D
102
{ACAD_REACTORS
330
2A
102
}
330
2A
100
AcDbProxyObject
 90
      499
 91
      501
 93
      404
310
41D1DBDD5C985D5910240902404333333333333E33F0000000000000F9010740A9070040501641D405064090741402480A1B50
1001
ACAD
1000
AcDbSavedByObjectVersion
1070
     0
  0
ACAD_PROXY_OBJECT
  5
2E
102
{ACAD_REACTORS
330
2A
102
}
330
2A
100
AcDbProxyObject
 90
      499
 91
      501
 93
      492
310
4411DBDD5C985D5915DA5D1A115919D95CD0340902404333333333333E33F0000000000000F90107409019070040501600405405064090741402480A1B50
1001
ACAD
1000
AcDbSavedByObjectVersion
1070
     0
  0
ACAD_PROXY_OBJECT
  5
31
102
{ACAD_REACTORS
330
2A
102
}
330
2A
100
AcDbProxyObject
 90
      499
 91
      501
 93
      476
310
41921A5919195B90640502408333333333333E33F0000000000000F901079024090700405020000000000001110200405405064090740C02480A0340
1001
ACAD
1000
AcDbSavedByObjectVersion
1070
     0
  0
ACAD_PROXY_OBJECT
  5
3B
102
{ACAD_REACTORS
330
2A
102
}
330
2A
100
AcDbProxyObject
 90
      499
 91
      501
 93
      428
310
42529A5D1D195C93D999914409028333333333333E33F0000000000000F9010790141107004050150A41D405064090741402480A0350
1001
ACAD
1000
AcDbSavedByObjectVersion
1070
     0
  0
ACAD_PROXY_OBJECT
  5
38
102
{ACAD_REACTORS
330
2A
102
}
330
2A
100
AcDbProxyObject
 90
      499
 91
      501
 93
      444
310
42D31A5B995C185D1D195C9B90E409028333333333333E33F0000000000000F9010790141107004050750841D405064090741402483A0350
1001
ACAD
1000
AcDbSavedByObjectVersion
1070
     0
  0
ACAD_PROXY_OBJECT
  5
3C
102
{ACAD_REACTORS
330
2A
102
}
330
2A
100
AcDbProxyObject
 90
      499
 91
      501
 93
      444
310
42D3DD995C9A185B99D3D999915409028333333333333E33F0000000000000F9010790141107004050150941D405064090741402480A0350
1001
ACAD
1000
AcDbSavedByObjectVersion
1070
     0
  0
ACAD_PROXY_OBJECT
  5
33
102
{ACAD_REACTORS
330
2A
102
}
330
2A
100
AcDbProxyObject
 90
      499
 91
      501
 93
      428
310
425499585B1A5CDD1A58D08409038333333333333E33F0000000000000F9010740A907004050150800405405064090740C02480A1B40
1001
ACAD
1000
AcDbSavedByObjectVersion
1070
     0
  0
ACAD_PROXY_OBJECT
  5
42
102
{ACAD_REACTORS
330
2A
102
}
330
2A
100
AcDbProxyObject
 90
      499
 91
      501
 93
      420
310
4194DA1859195911B40902404333333333333E33F0000000000000F9010740A41107004050150800405405064090840C02480A0B40
1001
ACAD
1000
AcDbSavedByObjectVersion
1070
     0
  0
ACAD_PROXY_OBJECT
  5
41
102
{ACAD_REACTORS
330
2A
102
}
330
2A
100
AcDbProxyObject
 90
      499
 91
      501
 93
      516
310
4454DA18591959081DDA5D1A08195919D95CD1A40902404333333333333E33F0000000000000F901074090142907004050250800405405064090740C02480A0B40
1001
ACAD
1000
AcDbSavedByObjectVersion
1070
     0
  0
ACAD_PROXY_OBJECT
  5
3E
102
{ACAD_REACTORS
330
2A
102
}
330
2A
100
AcDbProxyObject
 90
      499
 91
      501
 93
      532
310
4394DA1859195CC81BD98811DC985E5174090240C333333333333E33F0000000000000F901079024090741D01000000000000111010841D405064090740C02480A0340
1001
ACAD
1000
AcDbSavedByObjectVersion
1070
     0
  0
ACAD_PROXY_OBJECT
  5
3F
102
{ACAD_REACTORS
330
2A
102
}
330
2A
100
AcDbProxyObject
 90
      499
 91
      501
 93
      476
310
41D4DAD95D18DA1E51840502408333333333333E33F0000000000000F901079024090741D01000000000000111010B41D405064090741802480A0340
1001
ACAD
1000
AcDbSavedByObjectVersion
1070
     0
  0
ACAD_PROXY_OBJECT
  5
37
102
{ACAD_REACTORS
330
2A
102
}
330
2A
100
AcDbProxyObject
 90
      499
 91
      501
 93
      412
310
41D51A1A58DAD95B90D409028333333333333E33F0000000000000F9010790141107004050150C41D405064090741402480A0350
1001
ACAD
1000
AcDbSavedByObjectVersion
1070
     0
  0
ACAD_PROXY_OBJECT
  5
30
102
{ACAD_REACTORS
330
2A
102
}
330
2A
100
AcDbProxyObject
 90
      499
 91
      501
 93
      420
310
4255DA5C99599C985B595059028333333333333E33F0000000000000F90107901411070040501600405405064090740C02480A0340
1001
ACAD
1000
AcDbSavedByObjectVersion
1070
     0
  0
ACAD_PROXY_OBJECT
  5
40
102
{ACAD_REACTORS
330
2A
102
}
330
2A
100
AcDbProxyObject
 90
      499
 91
      501
 93
      404
310
41560B54985E51940902404000000000000E03F0000000000000F9010740501907004050150841D405064090740C02480A1B40
1001
ACAD
1000
AcDbSavedByObjectVersion
1070
     0
  0
XRECORD
  5
27A
102
{ACAD_REACTORS
330
271
102
}
330
271
100
AcDbXrecord
 90
        0
  0
XRECORD
  5
290
102
{ACAD_REACTORS
330
271
102
}
330
271
100
AcDbXrecord
1000
DSTYLE
1002
{
1070
   279
 70
     2
1070
   340
340
11
1002
}
  0
XRECORD
  5
27B
102
{ACAD_REACTORS
330
271
102
}
330
271
100
AcDbXrecord
  1
{A7C6A224-7F8A-4847-948B-E28AC5304A2C}
  0
XRECORD
  5
274
102
{ACAD_REACTORS
330
271
102
}
330
271
100
AcDbXrecord
  1

  0
XRECORD
  5
279
102
{ACAD_REACTORS
330
271
102
}
330
271
100
AcDbXrecord
 90
        4
  0
XRECORD
  5
276
102
{ACAD_REACTORS
330
271
102
}
330
271
100
AcDbXrecord
340
1A
  0
XRECORD
  5
278
102
{ACAD_REACTORS
330
271
102
}
330
271
100
AcDbXrecord
 90
    10781
  0
XRECORD
  5
277
102
{ACAD_REACTORS
330
271
102
}
330
271
100
AcDbXrecord
340
19
  0
XRECORD
  5
27D
102
{ACAD_REACTORS
330
271
102
}
330
271
100
AcDbXrecord
 40
0.0
  0
XRECORD
  5
280
102
{ACAD_REACTORS
330
271
102
}
330
271
100
AcDbXrecord
340
0
  0
XRECORD
  5
286
102
{ACAD_REACTORS
330
271
102
}
330
271
100
AcDbXrecord
 10
0.0
 20
0.0
 30
0.0
  0
XRECORD
  5
282
102
{ACAD_REACTORS
330
271
102
}
330
271
100
AcDbXrecord
 10
0.0
 20
0.0
 30
0.0
  0
XRECORD
  5
285
102
{ACAD_REACTORS
330
271
102
}
330
271
100
AcDbXrecord
 10
0.0
 20
0.0
 30
0.0
  0
XRECORD
  5
283
102
{ACAD_REACTORS
330
271
102
}
330
271
100
AcDbXrecord
 10
0.0
 20
0.0
 30
0.0
  0
XRECORD
  5
284
102
{ACAD_REACTORS
330
271
102
}
330
271
100
AcDbXrecord
 10
0.0
 20
0.0
 30
0.0
  0
XRECORD
  5
281
102
{ACAD_REACTORS
330
271
102
}
330
271
100
AcDbXrecord
 10
0.0
 20
0.0
 30
0.0
  0
XRECORD
  5
27E
102
{ACAD_REACTORS
330
271
102
}
330
271
100
AcDbXrecord
340
0
  0
XRECORD
  5
27F
102
{ACAD_REACTORS
330
271
102
}
330
271
100
AcDbXrecord
 70
     0
  0
XRECORD
  5
275
102
{ACAD_REACTORS
330
271
102
}
330
271
100
AcDbXrecord
  1

  0
XRECORD
  5
272
102
{ACAD_REACTORS
330
271
102
}
330
271
100
AcDbXrecord
 90
        1
  0
XRECORD
  5
273
102
{ACAD_REACTORS
330
271
102
}
330
271
100
AcDbXrecord
 90
       70
  0
XRECORD
  5
289
102
{ACAD_REACTORS
330
271
102
}
330
271
100
AcDbXrecord
340
0
  0
XRECORD
  5
28F
102
{ACAD_REACTORS
330
271
102
}
330
271
100
AcDbXrecord
 10
0.0
 20
0.0
 30
0.0
  0
XRECORD
  5
28B
102
{ACAD_REACTORS
330
271
102
}
330
271
100
AcDbXrecord
 10
0.0
 20
0.0
 30
0.0
  0
XRECORD
  5
28E
102
{ACAD_REACTORS
330
271
102
}
330
271
100
AcDbXrecord
 10
0.0
 20
0.0
 30
0.0
  0
XRECORD
  5
28C
102
{ACAD_REACTORS
330
271
102
}
330
271
100
AcDbXrecord
 10
0.0
 20
0.0
 30
0.0
  0
XRECORD
  5
28D
102
{ACAD_REACTORS
330
271
102
}
330
271
100
AcDbXrecord
 10
0.0
 20
0.0
 30
0.0
  0
XRECORD
  5
28A
102
{ACAD_REACTORS
330
271
102
}
330
271
100
AcDbXrecord
 10
0.0
 20
0.0
 30
0.0
  0
XRECORD
  5
287
102
{ACAD_REACTORS
330
271
102
}
330
271
100
AcDbXrecord
340
0
  0
XRECORD
  5
288
102
{ACAD_REACTORS
330
271
102
}
330
271
100
AcDbXrecord
 70
     0
  0
XRECORD
  5
27C
102
{ACAD_REACTORS
330
271
102
}
330
271
100
AcDbXrecord
  1
{FAEB1C32-E019-11D5-929B-00C0DF256EC4}
  0
DICTIONARYVAR
  5
298
102
{ACAD_REACTORS
330
291
102
}
330
291
100
DictionaryVariables
280
     0
  1
1:1
  0
DICTIONARYVAR
  5
296
102
{ACAD_REACTORS
330
291
102
}
330
291
100
DictionaryVariables
280
     0
  1
2
  0
DICTIONARYVAR
  5
297
102
{ACAD_REACTORS
330
291
102
}
330
291
100
DictionaryVariables
280
     0
  1
1
  0
DICTIONARYVAR
  5
299
102
{ACAD_REACTORS
330
291
102
}
330
291
100
DictionaryVariables
280
     0
  1
1
  0
DICTIONARY
  5
29C
330
45
100
AcDbDictionary
280
     1
  3
ACAD_XREC_ROUNDTRIP
360
29D
  0
DICTIONARY
  5
29A
330
44
100
AcDbDictionary
280
     1
  3
ACAD_XREC_ROUNDTRIP
360
29B
  0
DICTIONARY
  5
29E
330
46
100
AcDbDictionary
280
     1
  3
ACAD_XREC_ROUNDTRIP
360
29F
  0
XRECORD
  5
29D
102
{ACAD_REACTORS
330
29C
102
}
330
29C
100
AcDbXrecord
102
MATERIAL
148
0.0
149
0.0
149
0.0
 93
        0
 94
      127
282
     0
 72
     1
 77
     1
171
     1
175
     1
179
     1
273
     0
  0
XRECORD
  5
29B
102
{ACAD_REACTORS
330
29A
102
}
330
29A
100
AcDbXrecord
102
MATERIAL
148
0.0
149
0.0
149
0.0
 93
        0
 94
      127
282
     0
 72
     1
 77
     1
171
     1
175
     1
179
     1
273
     0
  0
XRECORD
  5
29F
102
{ACAD_REACTORS
330
29E
102
}
330
29E
100
AcDbXrecord
102
MATERIAL
148
0.0
149
0.0
149
0.0
 93
        0
 94
      127
282
     0
 72
     1
 77
     1
171
     1
175
     1
179
     1
273
     0
  0
ENDSEC
  0
EOF
